<svg width="20" height="21" viewBox="0 0 15 16" fill="none" xmlns="http://www.w3.org/2000/svg">
<g clip-path="url(#clip0_1398_6)">
<path d="M12.0353 12.0356C14.7886 9.28233 14.7886 4.81832 12.0353 2.065C9.28199 -0.688315 4.81798 -0.688315 2.06467 2.065C-0.68865 4.81832 -0.68865 9.28233 2.06467 12.0356C4.81798 14.789 9.28199 14.789 12.0353 12.0356Z" fill="#FFC107"/>
<path d="M0.151181 7.20146C0.151029 5.81624 0.559002 4.46167 1.32415 3.30695C2.08929 2.15222 3.17769 1.24852 4.4534 0.708712C5.72911 0.168904 7.13559 0.0169183 8.49718 0.271738C9.85876 0.526557 11.1151 1.17689 12.1092 2.1415C11.4588 1.46875 10.681 0.932221 9.82111 0.563205C8.96121 0.194188 8.03644 6.79728e-05 7.10073 -0.00783568C6.16502 -0.0157393 5.2371 0.162732 4.37109 0.51717C3.50507 0.871608 2.71829 1.39492 2.05662 2.05659C1.39495 2.71826 0.871639 3.50504 0.517201 4.37106C0.162762 5.23707 -0.0157088 6.16499 -0.00780516 7.1007C9.84904e-05 8.03641 0.194219 8.96118 0.563235 9.82108C0.932252 10.681 1.46878 11.4588 2.14153 12.1092C0.863211 10.7956 0.148945 9.0344 0.151181 7.20146V7.20146Z" fill="#FFD600"/>
<path d="M8.96299 13.8367C10.0959 13.5164 11.1308 12.9179 11.9734 12.0958C12.8161 11.2736 13.4397 10.2537 13.7877 9.129L7.61445 2.95572L6.78745 8.67239L7.75282 9.6367L6.3468 11.0502L8.96299 13.8367Z" fill="url(#paint0_linear_1398_6)"/>
<path d="M6.05729 10.3402C6.05294 10.2072 6.07538 10.0746 6.1233 9.95035C6.17122 9.82612 6.24363 9.7128 6.33622 9.61713C6.42881 9.52145 6.5397 9.44537 6.66229 9.39342C6.78488 9.34146 6.91666 9.31468 7.04981 9.31468C7.18295 9.31468 7.31474 9.34146 7.43733 9.39342C7.55992 9.44537 7.67081 9.52145 7.7634 9.61713C7.85599 9.7128 7.9284 9.82612 7.97632 9.95035C8.02423 10.0746 8.04668 10.2072 8.04232 10.3402C8.04403 10.4719 8.01897 10.6025 7.96865 10.7242C7.91833 10.8459 7.84382 10.956 7.74962 11.048C7.65824 11.1414 7.54912 11.2156 7.42868 11.2663C7.30823 11.3169 7.17888 11.343 7.04821 11.343C6.91755 11.343 6.7882 11.3169 6.66775 11.2663C6.5473 11.2156 6.43819 11.1414 6.3468 11.048C6.25328 10.9557 6.17942 10.8454 6.12967 10.7237C6.07992 10.6021 6.0553 10.4716 6.05729 10.3402V10.3402ZM7.94227 7.41219C7.94227 7.8578 7.86883 8.18881 7.72195 8.40523C7.64681 8.51161 7.54556 8.59687 7.42794 8.65279C7.31031 8.70871 7.18028 8.73342 7.05034 8.72454C6.92132 8.73187 6.79258 8.70609 6.67633 8.64964C6.56009 8.5932 6.46021 8.50796 6.38618 8.40204C6.23717 8.18491 6.16267 7.85496 6.16267 7.41219V4.0552C6.16267 3.62094 6.23717 3.2956 6.38618 3.07918C6.4612 2.9732 6.56212 2.8882 6.67932 2.83231C6.79652 2.77641 6.92609 2.75147 7.05566 2.75988C7.18559 2.7511 7.31559 2.77585 7.43319 2.83177C7.5508 2.88768 7.65206 2.97288 7.72727 3.07918C7.87415 3.29206 7.9476 3.6181 7.9476 4.05733L7.94227 7.41219Z" fill="white"/>
</g>
<defs>
<linearGradient id="paint0_linear_1398_6" x1="6.77787" y1="6.8832" x2="11.9485" y2="12.0539" gradientUnits="userSpaceOnUse">
<stop stop-color="#FF9800"/>
<stop offset="1" stop-color="#FFC107"/>
</linearGradient>
<clipPath id="clip0_1398_6">
<rect width="15" height="15.3151" fill="white"/>
</clipPath>
</defs>
</svg>
