<svg width="119" height="108" viewBox="0 0 119 108" fill="none" xmlns="http://www.w3.org/2000/svg">
<g clip-path="url(#clip0_1225_148)">
<path d="M71 44.91C70.8508 44.8837 70.7084 44.8276 70.5812 44.7452C70.4541 44.6627 70.3449 44.5555 70.26 44.43C69.1774 43.6641 68.2252 42.7288 67.44 41.66C65.7031 39.5909 64.0998 37.4131 62.64 35.14C61.762 35.156 60.8862 35.0449 60.04 34.81C60.0066 34.7907 59.9789 34.7631 59.9596 34.7297C59.9403 34.6964 59.9301 34.6585 59.93 34.62C58.6976 32.5557 58.1091 30.1706 58.24 27.77C57.82 27.18 59.6 27.06 59.95 26.77C62.55 25.7 64.95 24.29 67.58 23.18H67.52L67.9 23.01C69.3667 22.3367 70.85 21.6467 72.35 20.94H72.29C77.45 18.48 82.57 15.94 87.72 13.46C88.06 13.34 88.53 12.86 88.83 13.29C88.8659 13.2859 88.9022 13.2911 88.9355 13.3051C88.9688 13.3191 88.9979 13.3415 89.02 13.37C90.77 14.18 91.47 17.3 92.08 18.99C92.0999 19.0721 92.0999 19.1579 92.08 19.24C92.7 19.24 94.41 18.54 94.01 19.76C94.5252 21.0472 94.8909 22.3894 95.1 23.76C95.42 25.35 95.1 26.76 93.24 26.89C93.2609 26.9479 93.2614 27.0112 93.2414 27.0694C93.2214 27.1276 93.1821 27.1772 93.13 27.21C93.76 29.51 94.52 32.11 93.53 34.41C93.53 35.41 91.42 34.79 90.71 34.91C89.12 34.84 87.52 34.75 85.93 34.71C81.52 34.56 77.11 34.59 72.71 34.71H72.77C71.57 34.77 70.37 34.83 69.16 34.86C70.23 36.86 71.41 38.86 72.57 40.86C72.94 41.48 73.57 42.18 73.34 42.96C73 43.86 72.06 45 71 44.91ZM64 35.16L64.08 35.28V35.18L64 35.16ZM84 33.65C86.28 33.7 88.55 33.81 90.83 33.92C89.5864 32.2027 88.6305 30.2944 88 28.27V28.34L87.91 28.1V28.17C87.129 26.2437 86.5883 24.2285 86.3 22.17C86.2947 22.0834 86.2947 21.9966 86.3 21.91C86.06 19.67 85.65 17.27 86.54 15.12C81.48 17.58 76.54 20.18 71.39 22.55H71.45L68.35 24H68.41H68.31H68.37L68.23 24.07H68.29L67.88 24.27L67.14 24.6C67.9502 27.4023 68.9526 30.1455 70.14 32.81V32.86C70.27 33.19 70.41 33.52 70.55 33.86C70.5544 33.9066 70.5544 33.9534 70.55 34H71.78C75.86 33.65 79.92 33.62 84 33.65ZM91.74 27.39C90.85 27.63 89.94 27.81 89.06 28.11C89.86 30.11 90.51 32.45 92.29 33.78C93.29 31.99 92.83 29.85 92.38 27.97C92.3036 27.7265 92.2566 27.4747 92.24 27.22L91.74 27.39ZM87.25 21.23C87.5167 23.3986 88.0542 25.5252 88.85 27.56C90.2741 26.9043 91.733 26.3268 93.22 25.83C92.47 24.16 91.73 21.98 92.22 20.17C90.59 20.39 88.97 20.38 87.34 20.46C87.3225 20.5021 87.2911 20.5369 87.2511 20.5587C87.2111 20.5806 87.1649 20.5881 87.12 20.58C87.17 20.8 87.21 21 87.23 21.23H87.25ZM93.4 23.23C93.5807 23.9893 93.874 24.7174 94.27 25.39C94.2984 23.5627 93.8977 21.7542 93.1 20.11C92.59 20.93 93.1 21.95 93.3 22.81V22.74C93.3 22.81 93.3 22.87 93.3 22.94V22.87C93.33 23 93.35 23.12 93.38 23.24L93.4 23.23ZM88.62 14C86.47 15.09 86.85 17.89 87.05 19.91C88.3933 19.6323 89.7526 19.4386 91.12 19.33C90.56 17.82 90.05 14.88 88.77 13.88C88.7295 13.9306 88.6782 13.9715 88.62 14Z" fill="#EF5B0C"/>
<path d="M44 29.44C43.58 29.44 43 29.1 43.52 28.74C45.52 28.48 46.92 27.51 44.08 26.8C43.08 26.5 43.08 25.32 42.9 24.47C42.9 24.22 42.56 23.76 42.9 23.63C42.9 22.63 43.65 25.24 43.74 25.41C43.84 25.78 43.95 26.15 44.39 26.18C47.08 26.77 46.44 29.22 44 29.44Z" fill="#231F20"/>
<path d="M37.75 31.18C37.7308 31.1717 37.7147 31.1576 37.7039 31.1397C37.6931 31.1217 37.6883 31.1008 37.69 31.08C38.0218 30.3972 38.4838 29.7857 39.05 29.28C39.37 29.19 39.12 29.54 38.99 29.62C38.8196 29.787 38.6593 29.9639 38.51 30.15C38.4866 30.189 38.4599 30.2258 38.43 30.26C38.27 30.48 38.12 30.71 37.98 30.94V31C37.89 31.06 37.87 31.21 37.75 31.18Z" fill="#231F20"/>
<path d="M39.26 30.73C38.89 30.6 40.43 28.93 40.62 28.67C41.31 28.47 40.23 29.5 40.14 29.67C39.84 29.94 39.61 30.64 39.26 30.73Z" fill="#231F20"/>
<path d="M36.43 31.66C36.05 31.61 37.43 29.37 37.62 29.73C37.62 30.07 37.1 30.38 36.97 30.73C36.7807 30.9855 36.6323 31.2689 36.53 31.57C36.5242 31.5933 36.5116 31.6143 36.4938 31.6303C36.476 31.6464 36.4538 31.6567 36.43 31.66Z" fill="#231F20"/>
<path d="M46.79 28.42C46.86 28.14 47.79 26.42 48.03 26.63C48.13 26.94 47.35 27.63 47.23 27.98C47.11 28.08 47 28.79 46.79 28.42Z" fill="#231F20"/>
<path d="M47.93 28.35C47.52 28.22 48.24 27.64 48.32 27.35C48.4 27.06 48.64 26.6 48.95 26.7C48.978 26.7118 49.0025 26.7305 49.0213 26.7543C49.0401 26.7781 49.0526 26.8063 49.0576 26.8362C49.0625 26.8662 49.0599 26.8969 49.0498 26.9255C49.0398 26.9541 49.0226 26.9798 49 27C48.55 27.38 48.36 28 47.93 28.35Z" fill="#231F20"/>
<path d="M35.45 28.24C34.99 27.7 35.45 26.97 35.74 26.47C36.0974 26.0405 36.5675 25.7193 37.0976 25.5426C37.6276 25.3659 38.1965 25.3408 38.74 25.47C39.61 25.53 40.63 26.47 40.22 27.34C39.5999 27.6678 38.9193 27.8651 38.22 27.92C37.4449 28.1471 36.6313 28.2118 35.83 28.11C35.7957 28.1765 35.737 28.2272 35.6662 28.2514C35.5953 28.2757 35.5179 28.2716 35.45 28.24ZM35.82 27.8C37.1704 27.6318 38.5071 27.3678 39.82 27.01C39.29 25.31 35.59 25.91 35.82 27.78V27.8Z" fill="#231F20"/>
<path d="M35.7 28.33C35.6484 28.3191 35.6022 28.2908 35.569 28.2498C35.5358 28.2088 35.5177 28.1577 35.5177 28.105C35.5177 28.0523 35.5358 28.0012 35.569 27.9602C35.6022 27.9193 35.6484 27.8909 35.7 27.88C36.9007 27.7471 38.082 27.4753 39.22 27.07C40.39 27.52 37.22 28.21 36.84 28.23C36.472 28.3466 36.0827 28.3808 35.7 28.33Z" fill="#231F20"/>
<path d="M35 26.51C34.95 26.45 35 26.37 35 26.33C35.4244 25.6232 36.0987 25.1014 36.8895 24.8681C37.6803 24.6347 38.5298 24.7068 39.27 25.07C39.3021 25.084 39.3295 25.1071 39.3486 25.1364C39.3678 25.1657 39.3781 25.2 39.3781 25.235C39.3781 25.27 39.3678 25.3043 39.3486 25.3336C39.3295 25.3629 39.3021 25.386 39.27 25.4C39.02 25.4 38.79 25.14 38.51 25.1C38.0357 24.995 37.5443 24.995 37.07 25.1C36.6651 25.178 36.2798 25.3358 35.9364 25.5641C35.5931 25.7925 35.2986 26.0868 35.07 26.43C35.18 26.48 35.1 26.58 35 26.51Z" fill="#231F20"/>
<path d="M45.45 25.68C44.79 25.51 45.02 24.68 45.14 24.16C45.2866 23.7837 45.5225 23.4488 45.8273 23.184C46.1322 22.9192 46.4969 22.7325 46.89 22.64C47.89 22.4 49.63 23.1 49.11 24.36C48.7 24.88 47.89 24.86 47.33 25.16C46.7343 25.4304 46.1 25.6058 45.45 25.68ZM45.67 25.13C45.7307 25.1435 45.7842 25.1792 45.82 25.23C46.6991 24.7751 47.6158 24.397 48.56 24.1H48.64C48.51 23.22 47.12 23.1 46.48 23.49C46.2092 23.5897 45.9718 23.7635 45.795 23.9916C45.6182 24.2197 45.5091 24.4929 45.48 24.78C45.54 24.87 45.46 25.14 45.67 25.13Z" fill="#231F20"/>
<path d="M46.88 24.56C46.7403 24.4873 46.6251 24.3751 46.5489 24.2372C46.4727 24.0994 46.4389 23.9421 46.4517 23.7851C46.4646 23.6282 46.5234 23.4785 46.621 23.3548C46.7185 23.2312 46.8503 23.139 47 23.09C47.0912 22.9913 47.2089 22.921 47.339 22.8874C47.4691 22.8538 47.6062 22.8583 47.7338 22.9005C47.8614 22.9427 47.9741 23.0207 48.0586 23.1252C48.143 23.2298 48.1956 23.3564 48.21 23.49C48.2321 23.6599 48.2102 23.8327 48.1463 23.9917C48.0824 24.1508 47.9787 24.2907 47.8452 24.3981C47.7117 24.5056 47.5528 24.5769 47.3838 24.6052C47.2147 24.6336 47.0413 24.618 46.88 24.56Z" fill="#231F20"/>
<path d="M37.88 27.24C37.18 26.74 37.73 25.47 38.58 25.73C38.6947 25.7652 38.8005 25.8245 38.8904 25.904C38.9802 25.9835 39.052 26.0813 39.1009 26.1909C39.1497 26.3004 39.1746 26.4192 39.1737 26.5392C39.1728 26.6591 39.1463 26.7775 39.0958 26.8864C39.0454 26.9952 38.9722 27.092 38.8812 27.1702C38.7902 27.2484 38.6835 27.3062 38.5683 27.3397C38.4531 27.3732 38.3321 27.3816 38.2133 27.3644C38.0946 27.3472 37.9809 27.3048 37.88 27.24Z" fill="#231F20"/>
<path d="M32.66 26.12C32.5328 26.1529 32.3978 26.1373 32.2814 26.0764C32.165 26.0154 32.0754 25.9133 32.03 25.79C31.94 24.94 32.96 24.51 33.55 24.1C34.8101 23.3831 36.183 22.886 37.61 22.63C40.15 22.18 42.75 23.39 38.5 24.02C36.55 24.5 34.77 25.49 32.87 26.1C32.87 26.19 32.71 26.23 32.66 26.12Z" fill="#231F20"/>
<path d="M40.23 23.53C40.1775 23.5139 40.1291 23.4866 40.0882 23.45C40.0473 23.4134 40.0147 23.3684 39.9929 23.318C39.971 23.2676 39.9603 23.2131 39.9616 23.1582C39.9628 23.1033 39.9759 23.0494 40 23C38.8916 22.8443 37.7622 22.947 36.7 23.3C36.99 23.82 35.31 23.3 37.53 22.71C38.53 22.5 39.86 21.85 40.74 22.62C40.7837 22.7123 40.8046 22.8137 40.8011 22.9158C40.7976 23.0178 40.7697 23.1175 40.7198 23.2066C40.6699 23.2957 40.5994 23.3715 40.5142 23.4278C40.429 23.484 40.3315 23.5191 40.23 23.53Z" fill="#231F20"/>
<path d="M33.89 38.19C33.89 38.19 33.89 38.12 33.89 38.09L33.83 37.49C33.83 37.26 33.73 37.03 33.73 36.79C33.7313 36.7667 33.7313 36.7433 33.73 36.72C34.04 36.37 34.02 37.1 34.08 37.29C34.14 37.48 34.33 38.05 34.08 38.29C34.061 38.2978 34.0406 38.3013 34.0202 38.3003C33.9997 38.2993 33.9797 38.2939 33.9616 38.2844C33.9435 38.2748 33.9277 38.2614 33.9153 38.2451C33.9029 38.2288 33.8943 38.21 33.89 38.19Z" fill="#231F20"/>
<path d="M34.56 38.46C34.56 38.06 34.22 37.15 34.56 36.9C34.71 36.9 34.71 37.05 34.7 37.16C34.6898 37.3632 34.6898 37.5668 34.7 37.77C34.73 37.92 34.92 38.86 34.56 38.46Z" fill="#231F20"/>
<path d="M44.05 39.1C43.79 39.03 43.21 38.67 43.62 38.43C43.84 38.43 43.94 38.73 44.18 38.78C44.42 38.83 44.22 39.16 44.05 39.1Z" fill="#231F20"/>
<path d="M44.52 38.66C44.43 38.5 44.2 38.41 44.15 38.23C44.26 37.88 44.57 38.34 44.71 38.45C44.85 38.56 44.65 38.79 44.52 38.66Z" fill="#231F20"/>
<path d="M4 59.92C3 60.2 5.25 55.53 5.44 56.08C5.0836 56.8842 4.79591 57.7172 4.58 58.57C4.36 59 4.59 59.85 4 59.92Z" fill="#231F20"/>
<path d="M0.260009 59C-0.619991 58.93 1.01001 56.1 1.18001 55.59C1.30001 55.43 1.74001 54.43 1.91001 54.59C1.91001 54.59 1.91001 54.74 1.82001 54.73C1.39058 55.6954 1.05569 56.7001 0.820009 57.73C0.700009 58.24 0.810009 59 0.260009 59Z" fill="#231F20"/>
<path d="M9.26997 50.92C8.66997 50.7 11.43 48.29 11.57 48.92C11.68 49.39 10.96 49.47 10.69 49.72C10.2621 49.9906 9.88058 50.3282 9.55997 50.72C9.56095 50.755 9.55317 50.7897 9.53733 50.8209C9.52149 50.8521 9.4981 50.8789 9.46928 50.8987C9.44046 50.9186 9.40713 50.931 9.37233 50.9347C9.33752 50.9384 9.30233 50.9333 9.26997 50.92Z" fill="#231F20"/>
<path d="M8.28002 47.84C7.55002 47.68 8.90002 45.84 9.35002 46.37C9.55002 46.89 8.64002 46.96 8.62002 47.48C8.60002 47.63 8.51002 47.85 8.28002 47.84Z" fill="#231F20"/>
<path d="M15 16.08C14.69 15.83 12.43 15.31 12.86 14.9C13.07 14.63 14.29 15.29 14.72 15.31C15.15 15.33 15.61 15.44 15.43 15.88C15.3931 15.9584 15.3298 16.0214 15.2512 16.0579C15.1727 16.0945 15.0837 16.1023 15 16.08Z" fill="#231F20"/>
<path d="M21.3 9.00001C21.0043 8.50538 20.6254 8.06557 20.18 7.70001C19.84 8.85001 19.5 6.19002 21.3 8.35002V8.40001L21.55 8.73001C21.77 9.00001 21.44 9.23001 21.3 9.00001Z" fill="#231F20"/>
<path d="M42.26 2.84999C41.89 2.08999 42.43 1.13999 42.41 0.319989C42.41 -0.0900113 43.16 -0.130011 43.09 0.319989C43.03 1.05999 42.83 1.76999 42.83 2.50999C42.8319 2.57761 42.8158 2.64453 42.7833 2.70384C42.7507 2.76315 42.7029 2.81269 42.6448 2.84734C42.5867 2.882 42.5204 2.90052 42.4528 2.90098C42.3851 2.90145 42.3185 2.88384 42.26 2.84999Z" fill="#231F20"/>
<path d="M56.33 9.63C55.85 9.11 57.03 8.49 57.39 8.2C58.05 8.01 57.91 8.74 57.39 8.89C56.87 9.04 56.78 9.77 56.33 9.63Z" fill="#231F20"/>
<path d="M99.23 9.82001C98.42 9.31001 101.87 6.43001 102.5 6.33001C103.87 5.80001 103.21 7.44001 104.4 6.77001C107.12 5.23001 109.85 3.67001 112.65 2.28001C113.46 2.14001 113.42 3.16001 112.43 3.41001H112.36H112.41C110.19 4.41001 108.03 5.57001 105.87 6.74001C104.99 7.18001 103.48 8.42001 102.87 7.00001C102.231 7.20535 101.644 7.54649 101.15 8.00001C100.563 8.47557 100.014 8.99723 99.51 9.56001C99.5049 9.63075 99.4732 9.69693 99.4212 9.74519C99.3693 9.79345 99.3009 9.82019 99.23 9.82001Z" fill="#231F20"/>
<path d="M102.31 21.16C102.03 21.16 102.14 20.77 102.38 20.87C103.9 20.43 107.38 16.87 107.73 20.21C110.37 20.31 113 19.46 115.62 19.12C116.29 19.12 118.08 18.17 118.01 19.38C117.83 20.06 116.96 19.83 116.44 20L113.11 20.49C111.6 20.55 108.11 21.72 107.04 20.8C106.81 20.38 107.11 19.49 106.33 19.63C104.9 19.85 103.77 21.05 102.31 21.16Z" fill="#231F20"/>
<path d="M116.17 41.2C112.89 40.52 109.56 39.8 106.66 38.01C106.28 37.82 105.92 37.46 106.14 37.01C106.2 36.6 106.8 36.01 106.33 35.66C104.97 35.03 103.41 35.33 101.98 35.2C101.58 34.76 103.53 34.81 103.78 34.68C105.62 34.49 108.22 34.57 106.9 37.12C108.509 37.9987 110.223 38.6706 112 39.12H111.94C113.47 39.54 115.07 39.63 116.61 40.03C117.29 40.3 116.83 41.41 116.17 41.2Z" fill="#231F20"/>
<path d="M27 108C23.7477 108.044 20.4981 107.796 17.29 107.26C15.679 107.153 14.1005 106.757 12.63 106.09C9.75001 104.99 9.10001 101.59 8.72001 98.87V98.7V98.76C8.00001 92.9 7.66001 87.06 7.24001 81.22C6.71001 72.67 5.82001 62.8 11.59 55.72C14.04 53.08 17.53 51.72 20.8 50.36C24.07 49 27.7 47.74 31.06 46.23C30.74 44.74 30.66 43.23 30.42 41.7C30.3638 41.0269 30.2602 40.3586 30.11 39.7C27.98 40.48 26.82 37.89 26.57 36.18C23.46 36.51 22.21 32.93 23.98 30.73C22.98 29.49 21.6 28.41 21.18 26.79C20.76 25.17 21.62 23.24 23.57 23.38C23.3477 22.2339 23.5775 21.0462 24.2113 20.0657C24.8451 19.0852 25.8337 18.3879 26.97 18.12C27.27 14.29 30.45 10.9 34.48 12.12C35.67 9.83001 38.93 7.19001 41.19 9.71001C42 6.60001 48 6.00001 47.86 9.94001C50.27 8.46001 53.63 10.14 51.86 13.08C53.39 13.39 53.31 15.52 52.52 16.52C52.0557 17.2012 51.4231 17.7507 50.6836 18.1151C49.9442 18.4796 49.1231 18.6466 48.3 18.6C48.459 18.9591 48.5992 19.3263 48.72 19.7C49.3518 21.4838 49.8892 23.2997 50.33 25.14C50.65 26.19 51.07 27.22 51.42 28.26C51.66 28.78 51.91 29.47 51.28 29.81C47.9683 31.1059 44.5192 32.0185 41 32.53C42.14 35.31 45.45 35.04 47.86 34.34C48.64 34.27 51.61 32.9 52 33.42C54 36.58 50.45 38.08 47.82 38.42C47.89 40.42 48.46 42.27 48.62 44.22C51.73 45.43 55.25 45.41 58.33 46.77C63.79 48.68 67.18 55.68 70.01 60.37C71.15 62.4633 72.2967 64.5533 73.45 66.64L73.53 66.79V66.73C73.5892 66.8199 73.6427 66.9134 73.69 67.01V66.95C75.42 70.2 77.34 73.33 79.2 76.5C79.57 77.1 79.94 77.84 80.66 78.05C81.17 76.94 80.42 75.71 80.28 74.58L80.22 74.31L80 73.43C78.4235 68.1369 76.554 62.9355 74.4 57.85C73.4 55.53 72.46 53.15 71.32 50.85C70.45 49.61 69.67 48.3 68.75 47.09C67.43 45.18 66.35 42.61 67.04 40.28C67.22 39.08 68.79 37.23 69.14 39.42C69.0372 40.3965 68.9905 41.3781 69 42.36C69.0171 42.4328 69.0073 42.5094 68.9724 42.5756C68.9375 42.6417 68.8798 42.693 68.81 42.72C68.03 42.72 68.81 39.84 68.47 39.24C67.88 38.47 67.23 42.1 67.6 42.51C67.8524 43.5731 68.2353 44.6009 68.74 45.57C69.82 47.14 71 48.65 72.07 50.24C74.3549 54.865 76.3585 59.6236 78.07 64.49C78.07 64.55 78.07 64.62 78.15 64.69C79.09 67.08 79.89 69.53 80.59 72V71.93V72.07C80.78 73.3 82.74 79.83 79.86 78.54C78.78 77.88 78.34 76.61 77.65 75.6C76 73 74.46 70.28 73 67.54C71.69 65.21 70.44 62.86 69.14 60.54C68.68 59.75 68.2 58.97 67.76 58.17C66.1865 55.2346 64.1996 52.5404 61.86 50.17L61.63 49.96C59.34 47.48 55.81 47.15 52.73 46.26C52.17 48.14 51.47 49.98 50.82 51.83C50.5428 52.8494 50.1397 53.8303 49.62 54.75C49.19 55.01 48.9 54.43 48.62 54.19C47.93 53.45 47.21 52.75 46.48 52.05C46.2 51.69 45.03 50.89 46.17 50.94C46.32 50.87 46.42 51.05 46.35 51.17C47.4523 51.8567 48.4607 52.6836 49.35 53.63C50.19 51.09 51.14 48.63 51.91 46.05C51.0749 45.89 50.26 45.6385 49.48 45.3L48.92 45.02C47.22 48.02 45.07 50.85 43.28 53.84V53.91C42.816 54.9255 42.1838 55.8552 41.41 56.66C42.4017 61.3553 43.07 66.1132 43.41 70.9C43.93 75.27 44.72 79.62 44.92 84.02C44.99 88.19 45.57 92.33 45.58 96.5C48.09 96.5 50.58 96.59 53.1 96.81C54.58 97.05 56.18 96.81 57.58 97.34C57.68 97.34 57.72 97.43 57.77 97.49C57.7931 97.4898 57.8158 97.4963 57.8354 97.5088C57.8549 97.5212 57.8704 97.539 57.88 97.56C60.15 97.56 62.49 96.93 64.7 97.77C63.9865 91.4617 63.6259 85.1185 63.62 78.77C63.51 76.71 63.28 74.66 63.06 72.61C63.06 71.87 62.45 70.79 63.2 70.3C63.89 70.01 64.04 70.97 64.33 71.37C64.81 72.23 65.33 73.06 65.86 73.9C68.8 78.9 71.28 84.31 75.19 88.7C76.0156 89.6458 77.0133 90.4263 78.13 91C80.68 91.79 83.44 91.38 85.99 90.81C86.6711 90.644 87.3114 90.3412 87.8718 89.92C88.4322 89.4988 88.9011 88.9681 89.25 88.36C90.2428 86.994 90.813 85.3669 90.89 83.68C91.14 78.38 89.47 73.32 87.38 68.53C87.3841 68.4935 87.3841 68.4566 87.38 68.42C86.65 66.36 85.78 64.42 84.95 62.35V62.41C83.7477 59.3119 82.2473 56.338 80.47 53.53C79.2192 51.6999 77.8636 49.9436 76.41 48.27C75.9 47.32 75.41 46.39 74.83 45.46V45.52C73.23 42.52 74.3 43.59 74.68 41.52C74.29 41.46 73.93 41.92 73.57 41.72C73.11 41.18 74.27 40.23 73.88 39.59C73.39 39.59 72.88 40.09 72.44 39.89C71.9 39.23 73.25 38.31 73.04 37.49C73.0383 37.4378 73.0226 37.387 72.9944 37.343C72.9663 37.299 72.9267 37.2634 72.88 37.24H72.71H72.61C72.2611 37.2276 71.9153 37.3106 71.61 37.48C71.77 37.69 71.29 37.87 71.14 37.97C70.47 38.16 71.14 37.31 71.36 37.2C73.14 35.96 74.02 37.26 73.17 38.99C74.64 38.41 74.66 39.89 74.24 40.87C75.79 40.48 75.18 42.57 74.66 43.28C75.11 44.85 76.29 46.08 76.93 47.57C78.5898 49.5381 80.1421 51.5944 81.58 53.73C84.74 58.83 86.69 64.55 88.98 70.06V70C89.8074 72.0022 90.5022 74.0566 91.06 76.15C91.0633 76.1966 91.0633 76.2434 91.06 76.29C91.73 79.63 92.31 83.63 91.06 86.88C90.12 88.88 88.88 91.03 86.61 91.74C84.1959 92.5554 81.631 92.8252 79.1 92.53C76 92.23 74.1 89.39 72.24 87.21C69.09 82.9 66.85 77.9 64 73.3C64.68 78.76 64.44 84.3 64.84 89.74C65 91.8 65.15 93.85 65.35 95.91C65.35 96.55 65.78 97.44 65.24 97.91C67.08 98.73 69.1 99.74 70.17 101.52C70.99 103.29 69.44 103.44 68.32 102.52C69.84 103.52 69.32 105.27 67.51 104.24C68.4 106.03 66.14 105.24 65.28 104.91C65.98 106.56 63.41 105.42 62.67 105.44C60.7757 105.109 58.8514 104.982 56.93 105.06C55.56 106.33 49.77 105.88 47.67 106.15L45.85 106.29H45.91C43.29 106.46 40.7 106.84 38.09 107.1C36.8457 107.103 35.6042 107.217 34.38 107.44C32 108 29.42 107.73 27 108ZM17.78 106.54C22.8883 107.188 28.0516 107.282 33.18 106.82C35.46 106.21 37.83 106.34 40.18 105.96C45.33 105.09 50.59 105.39 55.75 104.67C55.91 103.24 56.03 101.8 56.28 100.38C56.3673 99.6237 56.5111 98.8749 56.71 98.14C49.24 97.32 41.71 97.64 34.2 97.4C32.81 97.27 31.42 97.05 30.02 96.94C27.94 96.72 24.88 97.31 24.2 94.67C23.352 91.5036 22.8853 88.2472 22.81 84.97C22.67 80.58 22.27 76.21 21.92 71.83C21.6841 70.5424 21.547 69.2386 21.51 67.93C21.51 67.5 22.2 67.31 22.27 67.82C22.27 68.01 22.32 68.21 22.34 68.41C22.34 68.48 22.34 68.54 22.34 68.61C23.1729 73.4108 23.6873 78.2613 23.88 83.13C23.9294 85.8867 24.17 88.6366 24.6 91.36C24.87 92.62 24.85 94.07 25.6 95.15C26.99 96.26 29.02 95.61 30.69 95.93C35.42 96.63 40.19 96.46 44.95 96.46C44.9669 93.9258 44.8535 91.3925 44.61 88.87C44.42 85.77 44.42 82.65 44.02 79.56C43.52 75.56 42.79 71.56 42.4 67.56C42.4 67.46 42.4 67.35 42.4 67.25C42.03 63.69 41.4 60.14 41.09 56.57C40.46 56.48 40.09 55.8 39.62 55.42C38.86 54.69 38.18 53.88 37.44 53.13C35.44 51.04 33.44 48.98 31.62 46.72C31.5638 46.7307 31.5056 46.7251 31.4525 46.7038C31.3993 46.6826 31.3534 46.6465 31.32 46.6C30.708 47.047 30.0702 47.4577 29.41 47.83C30.47 50.18 31.53 52.53 32.41 54.95C32.86 54.48 34.51 51.23 35.13 51.95C35.2048 52.0399 35.2458 52.1531 35.2458 52.27C35.2458 52.3869 35.2048 52.5002 35.13 52.59C34.47 53.42 33.89 54.31 33.32 55.19C33 55.58 32.85 56.19 32.32 56.4C31.61 56.4 31.59 55.21 31.32 54.71C30.4199 52.5566 29.6453 50.3529 29 48.11C24.72 50.24 20.05 51.56 15.85 53.87C9.40001 57.06 8.00001 65 7.77001 71.53V71.66C7.77001 78.17 8.41001 84.66 8.77001 91.18C9.41001 95.01 8.77001 102.76 12.2 105.03C12.4293 105.167 12.6663 105.291 12.91 105.4C13.9887 105.924 15.1484 106.263 16.34 106.4H16.64L17.78 106.54ZM58.48 104C60.4899 104.091 62.4813 104.427 64.41 105C63.9792 104.669 63.517 104.381 63.03 104.14C62.9868 104.086 62.9589 104.021 62.9492 103.952C62.9395 103.883 62.9483 103.813 62.9748 103.749C63.0013 103.684 63.0445 103.628 63.1 103.586C63.1554 103.544 63.221 103.518 63.29 103.51C64.57 103.79 65.73 104.41 67 104.7C66.1571 103.823 65.0761 103.211 63.89 102.94C63.8249 102.892 63.7759 102.825 63.7495 102.749C63.7231 102.672 63.7206 102.589 63.7422 102.511C63.7639 102.433 63.8088 102.364 63.8709 102.312C63.933 102.26 64.0094 102.228 64.09 102.22C64.805 102.345 65.5053 102.543 66.18 102.81C67.02 103.07 67.74 103.88 68.62 103.87C67.6745 102.714 66.444 101.825 65.05 101.29C64.35 100.95 64.86 100.29 65.49 100.59C66.3706 100.877 67.2352 101.211 68.08 101.59C68.64 101.82 69.08 102.33 69.68 102.44C68.6 100.24 65.87 99.27 63.68 98.55C61.68 98.04 59.6 98.62 57.68 98C57.68 98.09 57.68 98.18 57.68 98.26V98.18C57.2974 100.099 57.07 102.045 57 104C57.493 103.975 57.987 103.975 58.48 104ZM31.85 46.44C35.11 49.32 38.05 52.54 41.06 55.66C43.44 52.17 45.65 48.54 47.93 44.99C47.74 42.63 46.93 40.33 47 37.99C47.4 36.75 53.27 37.59 51.58 33.99C50.24 34.39 48.92 34.89 47.58 35.19L47.23 35.27C44.23 36.04 41 35.63 40.15 32.19C40.43 31.44 42.21 31.58 42.93 31.31C43.65 31.04 44.61 30.96 45.45 30.78H45.39C47.28 30.21 49.39 30.05 51.12 29.18C51.0945 29.0951 51.0644 29.0117 51.03 28.93C50.0583 26.3133 49.2403 23.6421 48.58 20.93C48.38 21.83 47.15 21.58 46.46 21.83C45.61 21.83 45.01 22.57 44.19 22.61C44.19 22.83 43.96 22.77 43.99 22.61C42.16 21.35 47.49 19.36 48.34 20.2C48.25 19.95 48.19 19.68 48.12 19.42C48.06 19.16 47.99 18.9 47.95 18.63C46.6521 18.1488 45.5013 17.3391 44.61 16.28C44.4838 16.7813 44.2322 17.2423 43.8789 17.6196C43.5256 17.997 43.0822 18.2784 42.5903 18.4373C42.0984 18.5963 41.5742 18.6276 41.0668 18.5284C40.5595 18.4292 40.0857 18.2026 39.69 17.87C39.34 20.44 36.32 21.36 34.19 20.28C34.2012 20.6272 34.133 20.9723 33.9904 21.289C33.8479 21.6058 33.6349 21.8858 33.3677 22.1077C33.1005 22.3296 32.7861 22.4875 32.4485 22.5693C32.111 22.6512 31.7592 22.6548 31.42 22.58C31.4904 22.8149 31.4988 23.0639 31.4444 23.303C31.39 23.5421 31.2746 23.763 31.1095 23.9442C30.9444 24.1254 30.7351 24.2608 30.5022 24.3372C30.2692 24.4136 30.0204 24.4283 29.78 24.38C30.54 26.66 31.47 28.91 32.42 31.12C32.73 32.06 33.42 32.97 33.31 33.98C32.49 35.43 30.92 32.49 30.54 31.8C30.28 31.19 29.42 31.73 28.98 31.9C27.8 32.61 29.82 34.32 30.48 34.81C31.24 35.81 31.66 38.32 30.75 39.36C31.28 41.68 31.5 44.04 31.88 46.36C31.8759 46.3885 31.8657 46.4158 31.85 46.44Z" fill="#231F20"/>
<path d="M71.33 50.76C71.1 49.76 73.07 49.51 73.7 49.03C74.33 48.55 75.32 48.25 76.12 47.85C76.31 47.69 76.65 47.64 76.75 47.93C77.57 48.52 74.23 49.6 73.82 49.93C73.19 50 71.71 51.43 71.33 50.76Z" fill="#231F20"/>
<path d="M71.05 38.25C70.64 38.04 71.19 37.46 71.5 37.47C72 37.65 71.35 38.29 71.05 38.25Z" fill="#231F20"/>
<path d="M72.73 39.71C72.19 39.66 73.18 38.24 72.83 37.43C72.51 37.04 71.83 37.73 71.54 37.96C71.25 38.19 71.18 38.48 70.89 38.5C69.81 38.56 72.1 36.58 72.52 36.68C73.91 36.26 73.45 39.68 72.73 39.71Z" fill="#231F20"/>
<path d="M20.43 96.71C20.43 96.4 20.77 96.41 20.98 96.36H21.07C21.34 96.36 21.78 96.05 21.97 96.36C21.97 96.46 21.97 96.65 21.81 96.68C21.65 96.71 21.7 96.57 21.73 96.5C21.4 96.49 20.62 97.11 20.43 96.71Z" fill="#231F20"/>
<path d="M21.06 94.14C20.62 94.04 18.46 93.68 18.8 93.05C18.8163 93.0125 18.8398 92.9785 18.8693 92.9501C18.8988 92.9218 18.9336 92.8995 18.9717 92.8846C19.0098 92.8697 19.0505 92.8626 19.0914 92.8635C19.1323 92.8644 19.1726 92.8734 19.21 92.89C19.8326 93.2447 20.5077 93.4979 21.21 93.64C21.49 93.7 21.34 94.19 21.06 94.14Z" fill="#231F20"/>
<path d="M29.08 87.34C28.86 87.26 28.32 87.34 28.31 87.03C28.45 86.73 28.91 87.03 29.17 87.03C29.43 87.03 29.28 87.37 29.08 87.34Z" fill="#231F20"/>
<path d="M37.44 59.2C37.04 58.83 38.04 58.2 38.16 57.74C38.27 57.59 38.33 57.29 38.58 57.35C38.6082 57.3637 38.6334 57.383 38.6539 57.4068C38.6744 57.4306 38.6898 57.4584 38.6992 57.4884C38.7086 57.5183 38.7117 57.5499 38.7084 57.5812C38.7051 57.6124 38.6954 57.6426 38.68 57.67C38.4 58 37.91 59.26 37.44 59.2Z" fill="#231F20"/>
<path d="M63.94 68C63.52 67.8 64.18 67.33 64.32 67.12C64.46 66.91 64.82 66.33 65.17 66.53C65.41 66.94 64.31 67.46 64.17 67.85C64.08 67.91 64 68 63.94 68Z" fill="#231F20"/>
<path d="M66 70.29C66 69.99 66.63 69.04 67 69.29C67.37 69.54 66.67 69.85 66.53 70.11C66.43 70.21 66.45 70.41 66.28 70.44C66.2529 70.4581 66.2213 70.4685 66.1887 70.4701C66.1562 70.4717 66.1238 70.4644 66.095 70.449C66.0662 70.4336 66.0422 70.4107 66.0255 70.3826C66.0087 70.3546 65.9999 70.3226 66 70.29Z" fill="#231F20"/>
<path d="M78.65 83.3C78.44 82.79 79.06 82.3 79.29 81.87V81.81C79.88 80.89 80.29 81.6 79.83 81.72C79.4732 82.1398 79.1892 82.6164 78.99 83.13C79 83.3 78.79 83.46 78.65 83.3Z" fill="#231F20"/>
<path d="M80.84 83.66C80.3 83.39 81.07 82.58 81.21 82.21C81.43 81.95 81.65 81.21 82.07 81.41C82.0966 81.436 82.1177 81.4672 82.1322 81.5015C82.1466 81.5358 82.154 81.5727 82.154 81.61C82.154 81.6472 82.1466 81.6841 82.1322 81.7184C82.1177 81.7528 82.0966 81.7839 82.07 81.81C81.54 82.19 81.25 83.73 80.84 83.66Z" fill="#231F20"/>
<path d="M96.49 85.26C96.7072 84.2453 96.6833 83.1938 96.42 82.19V82.09C96.21 81.66 96.76 81.28 96.79 81.83C97.1241 82.6959 97.2673 83.6237 97.21 84.55C97.21 84.88 97.28 85.43 96.83 85.55C96.7467 85.5556 96.6645 85.5284 96.601 85.4742C96.5375 85.42 96.4976 85.3432 96.49 85.26Z" fill="#231F20"/>
<path d="M92.7 89.53C92.39 89.24 92.81 88.94 92.97 88.72C93.3597 88.1471 93.6473 87.511 93.82 86.84C93.9568 86.3893 94.0538 85.9276 94.11 85.46C94.11 85.6 93.89 85.68 93.9 85.46C93.9153 85.385 93.9464 85.3141 93.9913 85.252C94.0361 85.1899 94.0936 85.1381 94.16 85.1C94.74 85.38 93.93 87.96 93.67 88.51C93.47 88.86 93.21 89.73 92.7 89.53Z" fill="#231F20"/>
<path d="M89.86 92C89.26 91.76 90.07 91.31 90.33 91.15C90.59 90.99 90.64 90.84 90.86 90.82C91.46 91.07 90.27 91.66 90.08 91.89C90.0209 91.95 89.9435 91.9887 89.86 92Z" fill="#231F20"/>
<path d="M4.22999 107.32C4.14747 107.323 4.06579 107.302 3.99514 107.26C3.9245 107.217 3.86804 107.154 3.83282 107.079C3.79761 107.005 3.7852 106.921 3.79714 106.84C3.80909 106.758 3.84486 106.681 3.89999 106.62C4.31999 106.27 4.96999 106.42 5.47999 106.33C6.70999 106.17 7.93999 106.33 9.15999 106.27C10.68 106.13 12.16 106.15 13.71 105.95C14.36 105.79 14.43 106.54 13.81 106.63C10.71 107.39 7.42999 107.05 4.22999 107.32Z" fill="#231F20"/>
<path d="M70.1 101.81C70.0617 101.8 70.027 101.779 70 101.75C69.8952 101.79 69.779 101.786 69.6768 101.74C69.5746 101.694 69.4948 101.61 69.455 101.505C69.4152 101.4 69.4187 101.284 69.4646 101.182C69.5106 101.08 69.5952 101 69.7 100.96C70.7 100.74 71.7 100.74 72.7 100.57C76.59 100.29 80.5 100.47 84.39 100.21C86.29 100.21 88.17 99.97 90.07 99.94C90.59 100.04 92.01 99.58 92.07 100.34C91.86 101.11 90.19 100.77 89.53 100.94C85.08 101.5 80.59 101.33 76.12 101.72H76.19C74.35 101.72 72.51 101.81 70.67 101.81C70.52 102.05 70.26 101.9 70.1 101.81Z" fill="#231F20"/>
<path d="M24.91 28.22C24.39 27.69 23.7 26.96 23.84 26.22C23.84 26.09 24.08 26.11 24.04 26.22C24.0153 26.3015 24.0153 26.3885 24.04 26.47C24.2782 27.0662 24.6718 27.5877 25.18 27.98C25.33 28.1 25.08 28.38 24.91 28.22Z" fill="white"/>
<path d="M26.56 22.16C25.81 21.97 26.67 20.79 27.04 20.53C27.33 20.43 27.84 19.86 28.1 20.16C28.1202 20.2164 28.1203 20.2781 28.1003 20.3346C28.0802 20.3911 28.0413 20.4389 27.99 20.47C27.55 20.74 26.99 20.94 26.76 21.47C26.6778 21.5972 26.6233 21.7403 26.6 21.89C26.82 21.85 26.74 22.17 26.56 22.16Z" fill="white"/>
<path d="M32.59 18.36C32.28 18.31 31.45 18.19 31.42 17.83C31.57 17.44 32.03 17.91 32.31 17.9C32.59 17.89 32.88 17.9 32.82 18.19C32.8102 18.2422 32.7811 18.2887 32.7384 18.3202C32.6957 18.3518 32.6427 18.366 32.59 18.36Z" fill="white"/>
<path d="M34.34 15.7C33.91 15.26 35.41 14 35.9 14C36.39 14 36.11 14.49 35.78 14.5C35.2826 14.6864 34.8654 15.0399 34.6 15.5C34.5977 15.5309 34.5889 15.5609 34.5742 15.5882C34.5595 15.6154 34.5392 15.6393 34.5147 15.6582C34.4902 15.677 34.4619 15.6905 34.4318 15.6977C34.4017 15.7049 34.3704 15.7057 34.34 15.7Z" fill="white"/>
<path d="M41.48 13.07C41.11 12.77 42.67 12.21 42.91 12.13C43.15 12.05 43.61 12.25 43.48 12.53C43.4703 12.5518 43.4563 12.5714 43.439 12.5877C43.4216 12.6041 43.4012 12.6168 43.3788 12.6252C43.3565 12.6336 43.3327 12.6374 43.3089 12.6365C43.2851 12.6356 43.2616 12.63 43.24 12.62C42.68 12.28 42 12.84 41.48 13.07Z" fill="white"/>
<path d="M45.52 14.24C45.25 14.24 44.84 14.15 44.72 13.88C44.72 13.82 44.79 13.88 44.81 13.88C44.8956 13.936 44.9904 13.9766 45.09 14H45.26C45.61 14.05 45.96 13.81 46.26 13.87C46.56 14.3 45.76 14.23 45.52 14.24Z" fill="white"/>
<path d="M47.77 11.83C47.71 11.56 48.06 11.55 48.22 11.45C48.38 11.35 48.75 11.12 49.04 11.07C49.33 11.02 49.21 11.39 49.04 11.46C48.87 11.53 48 12.13 47.77 11.83Z" fill="white"/>
<path d="M38.86 16.3C38.25 15.85 38.86 15.3 38.97 15.77C39.0315 15.8448 39.0983 15.9149 39.17 15.98C39.35 16.16 39.05 16.48 38.86 16.3Z" fill="white"/>
<path d="M59.92 30.13C59.81 29.54 60.5 28.94 60.78 28.43C60.8006 28.4049 60.8266 28.3846 60.856 28.3707C60.8854 28.3568 60.9175 28.3496 60.95 28.3496C60.9825 28.3496 61.0146 28.3568 61.044 28.3707C61.0734 28.3846 61.0993 28.4049 61.12 28.43C61.4 28.85 60.44 29.54 60.33 30.03C60.32 30.18 60.06 30.32 59.92 30.13Z" fill="white"/>
<path d="M61.26 30C60.9 29.74 61.58 29.42 61.67 29.14C61.76 28.86 61.99 28.29 62.36 28.43C62.3993 28.474 62.4211 28.531 62.4211 28.59C62.4211 28.649 62.3993 28.706 62.36 28.75C62.06 29.13 61.79 29.82 61.26 30Z" fill="white"/>
<path d="M62.86 29.63C63.0713 28.9319 63.4409 28.2919 63.94 27.76C64.45 27.68 64.27 28.29 64.03 28.5C63.7619 28.872 63.5212 29.263 63.31 29.67C63.31 29.94 62.84 30 62.86 29.63Z" fill="white"/>
</g>
<defs>
<clipPath id="clip0_1225_148">
<rect width="118.01" height="107.96" fill="white"/>
</clipPath>
</defs>
</svg>
