<svg width="228" height="10" viewBox="0 0 228 10" fill="none" xmlns="http://www.w3.org/2000/svg">
<path d="M225.862 4.69122C229.949 0.726011 219.477 4.97177 220.166 3.41001C220.77 2.45056 221.826 1.68327 223.142 1.24972C223.448 1.12814 223.448 1.79213 223.704 1.97917C223.959 2.1662 224.662 2.03528 224.496 2.22232C223.568 3.01684 222.537 3.74347 221.418 4.39196C213.5 4.39195 223.972 4.49483 217.586 4.14881C217.306 4.14881 216.552 4.40131 216.782 4.27038C217.574 3.82149 220.217 2.83954 219.336 3.16686C215.977 4.39195 217.765 4.62575 215.518 4.06464C215.237 3.92436 215.007 3.68121 214.687 3.6438C213.835 3.78757 213.005 3.99437 212.21 4.26103C211.699 3.19491 211.827 3.66251 211.048 3.81214C211.048 3.81214 210.971 3.63445 210.933 3.68121C210.115 4.6164 210.486 5.14946 210.103 3.98047C209.528 3.83084 209.234 4.75668 208.698 4.68186C208.481 4.68186 208.57 4.23297 208.353 4.18621C208.136 4.13945 207.944 4.3826 207.715 4.44807C207.485 4.51353 206.693 4.58834 206.642 4.5977L206.105 4.3639C205.837 4.54158 205.607 4.98112 205.288 4.88761C204.969 4.79409 205.39 4.13945 205.084 4.04593C204.777 3.95241 204.624 4.46677 204.343 4.6164C203.941 4.76779 203.511 4.87493 203.066 4.93436C202.708 4.71927 202.261 4.93436 201.878 4.84085C201.699 4.78473 201.61 4.47612 201.418 4.52288C199.707 4.92501 201.418 5.39261 199.094 5.02788C198.545 4.39195 196.898 5.63576 196.399 5.34585C195.901 5.05594 196.399 4.41066 195.965 4.30779C195.531 4.20492 195.186 4.83149 194.688 4.98112C194.354 5.04185 194.009 5.06082 193.666 5.03723C191.623 4.25167 189.427 5.74798 187.447 5.51418C187.013 5.51418 186.668 5.19622 186.285 5.03723C185.791 5.17726 185.277 5.27456 184.752 5.32714C184.318 5.32714 183.922 5.05594 183.475 5.04659C182.954 5.08791 182.438 5.15667 181.93 5.25233C181.406 5.25233 180.883 5.19622 180.372 5.25233C179.861 5.30844 179.197 5.66381 178.584 5.65446C178.033 5.57241 177.503 5.42723 177.013 5.22427C176.311 5.53288 175.736 6.15946 174.906 6.15946C174.357 6.15946 174.114 5.3739 173.565 5.28973C173.016 5.20557 172.365 5.6264 171.726 5.66381C171.087 5.70122 170.653 5.42066 170.117 5.50483C167.563 6.44002 168.84 6.16881 166.286 6.3465C165.775 6.17786 165.245 6.04327 164.702 5.94437C164.126 5.93819 163.55 5.96006 162.978 6.00983C160.604 5.93717 158.225 5.9997 155.864 6.19687L153.91 6.26233C153.333 6.134 152.737 6.05553 152.135 6.02853C151.446 6.02853 150.858 6.41196 150.105 6.3839C149.351 6.35585 148.994 5.85085 148.393 5.89761C140.424 6.46807 150.948 7.03854 144.281 6.52418C138.956 5.32714 146.503 6.86085 140.629 6.26233C140.028 6.19687 139.518 5.74797 138.917 5.78538C138.126 5.78538 137.449 6.3465 136.682 6.49613C134.92 6.82344 134.46 6.49613 132.851 6.15011C132.103 6.36409 131.323 6.51165 130.527 6.58964C129.812 6.58964 129.148 6.26233 128.432 6.21557C126.351 6.07529 125.265 6.44937 123.171 6.58964C121.339 6.77462 119.476 6.70482 117.679 6.3839C111.715 5.38325 118.446 6.18751 111.69 6.53353C104.615 6.90761 112.967 5.3739 105.457 6.39325C99.8765 7.16011 103.733 7.73993 98.791 6.33714C89.532 8.82474 99.9148 6.52418 91.8053 7.01983C86.02 7.3752 90.5282 8.25428 84.8962 7.95502C77.7828 7.63705 86.0711 6.84214 78.2808 7.95502C76.0828 7.7463 73.8601 7.71494 71.6527 7.8615C67.566 8.30104 68.9069 8.79669 64.9096 8.65641C55.523 8.25428 68.7409 8.07659 59.0094 8.32909C58.0712 8.16387 57.113 8.06676 56.1487 8.03918C54.2586 8.114 51.2958 9.07724 49.444 9.25493C48.3712 9.34845 47.2985 9.18011 46.2129 9.19882C40.5809 9.32039 45.1019 9.61965 39.7125 9.05854C36.4431 9.90021 33.327 8.57224 29.9938 9.05854C28.7167 9.23622 27.6439 9.90956 26.3924 9.99373C25.4346 10.0592 24.5151 9.5916 23.57 9.48872C22.625 9.38585 21.6671 9.3952 20.7093 9.34845C19.8756 9.14923 19.0215 8.99912 18.1551 8.89955C17.2612 8.85279 16.3544 9.09594 15.4604 9.07724C12.4465 9.07724 9.29207 8.14205 6.40584 7.45936C4.27309 7.24427 2.16588 6.9076 0.0203555 6.58963C-0.0690457 6.58963 0.160828 6.06593 0.237458 6.09398C2.7644 5.90882 5.23711 5.4388 7.56799 4.70055C8.36487 4.71923 9.16257 4.70049 9.95616 4.64444C10.8501 4.54157 11.7186 4.26101 12.5998 4.10203C13.481 3.94305 14.3494 3.85888 15.154 3.69055C16.0465 3.42268 16.9696 3.21301 17.9125 3.06397C18.771 3.09753 19.6249 3.17881 20.4667 3.30712C21.3989 3.30712 22.3312 3.22295 23.2635 3.18554C27.2991 3.29777 25.2047 3.47545 29.5213 2.48415C30.5174 2.48415 31.4497 3.03591 32.4458 3.06397C33.442 3.09202 34.6935 2.68989 35.8174 2.64313C37.9501 2.55897 40.0573 3.04527 42.2029 2.90499C43.3522 2.77406 44.4888 2.57767 45.651 2.4935C48.8693 2.25036 52.1131 2.4935 55.3442 2.35323C56.3914 2.28776 57.4258 2.12878 58.4731 2.06332C59.5203 1.99785 60.5036 1.99785 61.5253 1.9698C64.5733 2.23153 67.6494 2.26912 70.7076 2.08202C72.9126 1.80525 75.1522 1.7049 77.3869 1.78276C78.4448 1.89719 79.4935 2.05328 80.5285 2.25036C82.8416 1.7123 85.2009 1.28741 87.5909 0.9785C92.0224 0.576369 96.5305 1.12813 101 1.03461C103.109 1.48411 105.311 1.652 107.501 1.53026C108.637 1.4648 109.748 1.12813 110.898 1.11878C111.887 1.20115 112.868 1.32921 113.835 1.50221C117.373 1.82017 116.389 1.73601 119.991 1.01591C124.295 1.86693 120.898 1.33388 125.291 1.64249C126.129 1.78852 126.984 1.87311 127.845 1.89499C128.777 1.82018 129.62 1.31517 130.552 1.24036C130.693 1.24036 134.562 1.6799 134.78 1.70795C135.504 1.49506 136.258 1.33834 137.027 1.24036C137.64 1.24036 138.215 1.53027 138.828 1.57703C139.476 1.58321 140.124 1.56136 140.769 1.51156C141.387 1.57188 142.01 1.59689 142.634 1.58638C143.362 1.50221 144.026 1.05332 144.754 1.08138C145.482 1.10943 145.852 1.50221 146.401 1.71731C149.109 1.55832 147.678 1.76407 150.526 1.04397C151.65 0.959802 152.953 1.61444 154.064 1.62379C154.728 1.62379 155.341 1.37129 156.043 1.32453C156.645 1.3246 157.247 1.35272 157.844 1.40869C163.655 0.408041 156.337 1.30582 161.254 1.72666C161.88 1.77342 162.531 1.45545 163.106 1.36193C165.851 0.941099 163.872 1.25906 166.477 1.36194C167.07 1.36657 167.662 1.34784 168.252 1.30582C169.474 1.10721 170.71 0.963546 171.956 0.875636C174.165 0.875636 173.029 1.49286 175.302 1.15619C175.966 1.05332 176.579 0.660543 177.23 0.59508C177.778 0.60755 178.321 0.680052 178.839 0.810174C184.088 1.24971 176.17 0.810173 182.339 0.24906C182.824 0.2023 183.271 0.510913 183.743 0.64184C184.201 0.767041 184.685 0.830414 185.174 0.828878C185.8 0.754063 186.298 0.277116 186.923 0.239709C187.549 0.202301 187.766 0.49221 188.201 0.623137C189.112 0.431073 190.067 0.370723 191.01 0.44545C191.419 0.44545 191.815 0.651192 192.211 0.604433C192.606 0.557673 193.105 0.0900791 193.603 0.14619C194.101 0.202302 194.139 0.623137 194.407 0.856934L195.544 0.744712C198.328 -0.630017 195.646 0.221005 197.498 0.744712C197.83 0.838231 199.158 0.34258 199.452 0.34258C199.975 0.34258 200.371 0.894343 200.946 0.688601C202.504 0.351932 201.738 1.05333 202.989 0.894343C203.5 0.82888 203.947 0.454803 204.471 0.492211C204.649 0.492211 204.752 0.67925 204.892 0.772769C205.339 0.567027 206.016 0.221006 206.578 0.379989C206.757 0.379989 206.833 0.613787 206.999 0.660546C207.165 0.707306 207.676 0.567026 207.983 0.716657C208.353 0.660546 209.362 0.389341 209.707 0.613787C210.639 1.21231 209.707 1.65185 211.303 0.370637C211.776 0.754065 213.168 0.688602 213.181 0.707307C213.359 0.913048 212.989 1.46481 213.295 1.47416C213.602 1.48351 213.806 0.978512 214.062 0.735362C213.717 1.62379 214.892 0.782121 214.994 0.791473C215.096 0.800825 215.173 1.27777 215.415 1.38064C215.85 1.56768 216.922 1.10944 217.229 1.00657C217.229 1.24972 217.472 1.55833 217.229 1.74537C216.871 2.08204 215.377 2.60574 215.799 2.32518C216.584 1.69172 217.54 1.18526 218.608 0.838233C218.94 0.754066 218.979 1.39935 219.298 1.49287C220.46 1.82953 221.852 1.25907 222.963 1.76407C222.697 2.62414 222.369 3.47325 221.98 4.30779C221.98 4.42001 221.686 4.30779 221.558 4.22362C221.06 3.98047 220.051 3.91501 220.102 3.41001C220.562 -0.817053 221.635 0.604436 223.819 1.09074C225.172 1.4087 226.552 1.65185 227.918 1.93241C228.365 2.17556 226.322 4.94372 225.862 4.69122Z" fill="#353E47"/>
</svg>
