<svg width="40" height="41" viewBox="0 0 40 41" fill="none" xmlns="http://www.w3.org/2000/svg">
<g clip-path="url(#clip0_1550_3)">
<path d="M32.0945 32.095C39.4367 24.7528 39.4367 12.8488 32.0945 5.50664C24.7523 -1.83554 12.8483 -1.83554 5.5061 5.50664C-1.83608 12.8488 -1.83608 24.7528 5.5061 32.095C12.8483 39.4372 24.7523 39.4372 32.0945 32.095Z" fill="#8BC34A"/>
<path d="M0.403149 19.2039C0.402743 15.5099 1.49067 11.8978 3.53105 8.8185C5.57144 5.73923 8.47383 3.32936 11.8757 1.88987C15.2776 0.450385 19.0282 0.04509 22.6591 0.724609C26.29 1.40413 29.6402 3.13834 32.2913 5.71064C30.5569 3.91664 28.4827 2.4859 26.1896 1.50185C23.8965 0.51781 21.4305 0.000155828 18.9353 -0.0209206C16.4401 -0.041997 13.9656 0.433926 11.6562 1.37909C9.34686 2.32426 7.24877 3.71976 5.48432 5.48421C3.71987 7.24866 2.32437 9.34675 1.3792 11.6561C0.434033 13.9655 -0.0418902 16.4399 -0.0208138 18.9352C0.00026264 21.4304 0.517916 23.8964 1.50196 26.1895C2.48601 28.4826 3.91675 30.5568 5.71075 32.2912C2.30189 28.7883 0.397188 24.0917 0.403149 19.2039V19.2039Z" fill="#AED581"/>
<path d="M15.0146 28.0338L24.0063 36.8637C27.9238 35.7333 31.3678 33.3604 33.8195 30.1025C36.2711 26.8446 37.5975 22.8781 37.5989 18.8008C37.5989 18.6334 37.5989 18.4687 37.5989 18.3041L29.0471 9.76372L15.0146 28.0338Z" fill="url(#paint0_linear_1550_3)"/>
<path d="M16.1782 28.3403C15.8255 28.3411 15.4772 28.2618 15.1596 28.1084C14.842 27.955 14.5634 27.7315 14.3447 27.4548L8.17424 19.675C7.81387 19.1874 7.65695 18.5789 7.73657 17.9779C7.81618 17.3768 8.12611 16.8301 8.601 16.4532C9.07588 16.0762 9.6786 15.8984 10.2821 15.9573C10.8855 16.0161 11.4425 16.307 11.8356 16.7686L18.0032 24.5512C18.2764 24.8949 18.4471 25.3087 18.4959 25.745C18.5446 26.1813 18.4694 26.6225 18.2789 27.018C18.0884 27.4136 17.7903 27.7474 17.4187 27.9813C17.0472 28.2152 16.6172 28.3396 16.1782 28.3403V28.3403Z" fill="white"/>
<path d="M16.1784 28.3403C15.7384 28.3417 15.307 28.2189 14.9338 27.9858C14.5605 27.7528 14.2607 27.4191 14.0688 27.0232C13.8769 26.6272 13.8008 26.1851 13.8491 25.7478C13.8974 25.3105 14.0683 24.8957 14.342 24.5512L25.7633 10.144C26.1495 9.65852 26.7127 9.34628 27.3291 9.27601C27.9455 9.20575 28.5645 9.38323 29.05 9.76939C29.5356 10.1556 29.8478 10.7188 29.9181 11.3352C29.9883 11.9516 29.8109 12.5706 29.4247 13.0561L18.0034 27.4548C17.7856 27.7304 17.5084 27.9532 17.1923 28.1066C16.8763 28.2599 16.5297 28.3398 16.1784 28.3403Z" fill="white"/>
</g>
<defs>
<linearGradient id="paint0_linear_1550_3" x1="20.7054" y1="17.5719" x2="33.5118" y2="30.3782" gradientUnits="userSpaceOnUse">
<stop stop-color="#689F38"/>
<stop offset="1" stop-color="#8BC34A"/>
</linearGradient>
<clipPath id="clip0_1550_3">
<rect width="40" height="40.8401" fill="white"/>
</clipPath>
</defs>
</svg>
