<svg width="15" height="16" viewBox="0 0 15 16" fill="none" xmlns="http://www.w3.org/2000/svg">
<g clip-path="url(#clip0_1372_3)">
<path d="M13.913 8.66793C14.8068 4.87812 12.4591 1.08132 8.66929 0.187544C4.87948 -0.706234 1.08268 1.64146 0.188901 5.43128C-0.704878 9.22109 1.64282 13.0179 5.43263 13.9117C9.22244 14.8054 13.0192 12.4577 13.913 8.66793Z" fill="#F44336"/>
<path d="M0.151135 7.20143C0.150983 5.81621 0.558956 4.46164 1.3241 3.30692C2.08924 2.15219 3.17764 1.24849 4.45335 0.708681C5.72907 0.168873 7.13555 0.0168878 8.49713 0.271707C9.85871 0.526527 11.115 1.17686 12.1092 2.14147C11.4588 1.46872 10.681 0.932191 9.82107 0.563174C8.96116 0.194158 8.03639 3.7455e-05 7.10068 -0.0078662C6.16498 -0.0157698 5.23706 0.162701 4.37104 0.51714C3.50503 0.871578 2.71824 1.39489 2.05657 2.05656C1.3949 2.71823 0.871593 3.50501 0.517155 4.37103C0.162716 5.23704 -0.0157546 6.16496 -0.00785094 7.10067C5.27138e-05 8.03638 0.194173 8.96115 0.56319 9.82105C0.932206 10.681 1.46873 11.4588 2.14149 12.1092C0.863165 10.7956 0.1489 9.03436 0.151135 7.20143Z" fill="#E57373"/>
<path d="M3.80615 10.4403L7.53141 14.0815C9.2444 13.9645 10.8558 13.2262 12.063 12.0053C13.2702 10.7843 13.9902 9.16474 14.0879 7.45053L10.3711 3.72528L3.80615 10.4403Z" fill="url(#paint0_linear_1372_3)"/>
<path d="M4.3479 10.6276C4.17437 10.628 4.00464 10.5769 3.86018 10.4807C3.71572 10.3846 3.60303 10.2477 3.53636 10.0875C3.4697 9.9273 3.45207 9.75091 3.48569 9.58067C3.51932 9.41043 3.60269 9.25399 3.72525 9.13115L9.13113 3.72527C9.21276 3.64386 9.30962 3.57931 9.41619 3.53533C9.52276 3.49135 9.63695 3.46879 9.75225 3.46893C9.86754 3.46908 9.98167 3.49194 10.0881 3.53619C10.1946 3.58045 10.2913 3.64524 10.3727 3.72687C10.4541 3.8085 10.5187 3.90536 10.5626 4.01193C10.6066 4.11851 10.6292 4.2327 10.629 4.34799C10.6289 4.46328 10.606 4.57741 10.5618 4.68387C10.5175 4.79033 10.4527 4.88703 10.3711 4.96844L4.96842 10.3711C4.88701 10.4527 4.79028 10.5173 4.68378 10.5614C4.57729 10.6054 4.46314 10.6279 4.3479 10.6276Z" fill="white"/>
<path d="M9.75165 10.6276C9.63642 10.6279 9.52227 10.6054 9.41577 10.5613C9.30928 10.5173 9.21254 10.4527 9.13113 10.3711L3.72526 4.96841C3.5604 4.80356 3.46779 4.57997 3.46779 4.34683C3.46779 4.11369 3.5604 3.8901 3.72526 3.72524C3.89011 3.56039 4.1137 3.46777 4.34684 3.46777C4.57998 3.46777 4.80357 3.56039 4.96843 3.72524L10.3711 9.13112C10.4935 9.25377 10.5768 9.40991 10.6105 9.57986C10.6442 9.7498 10.6269 9.92593 10.5606 10.086C10.4943 10.2461 10.3821 10.383 10.2382 10.4794C10.0942 10.5757 9.92491 10.6273 9.75165 10.6276Z" fill="white"/>
</g>
<defs>
<linearGradient id="paint0_linear_1372_3" x1="6.24353" y1="6.2393" x2="12.0453" y2="12.0411" gradientUnits="userSpaceOnUse">
<stop stop-color="#B71C1C"/>
<stop offset="1" stop-color="#F44336"/>
</linearGradient>
<clipPath id="clip0_1372_3">
<rect width="15" height="15.3151" fill="white"/>
</clipPath>
</defs>
</svg>
