<svg width="46" height="46" viewBox="0 0 46 46" fill="none" xmlns="http://www.w3.org/2000/svg">
<g filter="url(#filter0_ddd_1644_2)">
<rect x="3" y="3" width="35" height="35" rx="17.5" fill="#F9F9F9"/>
</g>
<path d="M24.6701 14.96C24.4772 14.96 24.2887 15.0172 24.1284 15.1245C23.9681 15.2317 23.8432 15.3841 23.7696 15.5624C23.6959 15.7407 23.6769 15.9368 23.7148 16.1259C23.7528 16.315 23.846 16.4886 23.9826 16.6247C24.1193 16.7608 24.2933 16.8533 24.4826 16.8904C24.6718 16.9275 24.8679 16.9076 25.0458 16.8333C25.2238 16.7589 25.3757 16.6334 25.4822 16.4726C25.5888 16.3118 25.6453 16.1231 25.6444 15.9302C25.6444 15.8024 25.6192 15.6759 25.5702 15.5579C25.5212 15.44 25.4494 15.3328 25.3588 15.2427C25.2683 15.1525 25.1609 15.0812 25.0427 15.0326C24.9245 14.9841 24.7979 14.9594 24.6701 14.96V14.96Z" fill="url(#paint0_linear_1644_2)"/>
<path d="M20.3493 16.2056C19.5408 16.2048 18.7501 16.4439 18.0775 16.8926C17.4048 17.3413 16.8804 17.9795 16.5706 18.7263C16.2608 19.4732 16.1796 20.2952 16.3371 21.0883C16.4947 21.8813 16.8839 22.6098 17.4557 23.1816C18.0274 23.7533 18.7559 24.1426 19.549 24.3001C20.3421 24.4577 21.164 24.3764 21.9109 24.0666C22.6578 23.7568 23.2959 23.2324 23.7447 22.5598C24.1934 21.8871 24.4324 21.0965 24.4316 20.2879C24.4305 19.2056 24.0001 18.1679 23.2347 17.4025C22.4694 16.6372 21.4317 16.2067 20.3493 16.2056ZM20.3493 22.9026C19.8322 22.9026 19.3267 22.7492 18.8967 22.4619C18.4667 22.1746 18.1316 21.7663 17.9337 21.2885C17.7358 20.8108 17.684 20.285 17.7849 19.7778C17.8858 19.2707 18.1348 18.8048 18.5005 18.4391C18.8661 18.0734 19.332 17.8244 19.8392 17.7235C20.3464 17.6226 20.8721 17.6744 21.3499 17.8723C21.8277 18.0702 22.236 18.4053 22.5233 18.8353C22.8106 19.2653 22.964 19.7708 22.964 20.2879C22.964 20.9814 22.6885 21.6464 22.1982 22.1368C21.7078 22.6271 21.0428 22.9026 20.3493 22.9026Z" fill="url(#paint1_linear_1644_2)"/>
<path d="M23.5933 28.58H16.9703C15.6513 28.5757 14.3877 28.0489 13.4562 27.1151C12.5247 26.1812 12.0011 24.9164 12 23.5974V16.9785C12.0011 15.6599 12.5248 14.3955 13.4565 13.4623C14.3881 12.5291 15.6517 12.0033 16.9703 12H23.5933C24.9133 12.0011 26.179 12.526 27.1124 13.4594C28.0458 14.3928 28.5707 15.6585 28.5718 16.9785V23.5974C28.5707 24.9178 28.046 26.1839 27.1127 27.118C26.1794 28.052 24.9137 28.5778 23.5933 28.58V28.58ZM16.9703 13.5581C16.0635 13.5592 15.1941 13.9199 14.5529 14.5611C13.9117 15.2023 13.551 16.0717 13.5499 16.9785V23.5974C13.551 24.5042 13.9117 25.3735 14.5529 26.0148C15.1941 26.656 16.0635 27.0167 16.9703 27.0178H23.5933C24.5001 27.0167 25.3694 26.656 26.0107 26.0148C26.6519 25.3735 27.0126 24.5042 27.0137 23.5974V16.9785C27.0126 16.0717 26.6519 15.2023 26.0107 14.5611C25.3694 13.9199 24.5001 13.5592 23.5933 13.5581H16.9703Z" fill="url(#paint2_linear_1644_2)"/>
<defs>
<filter id="filter0_ddd_1644_2" x="0.5" y="0.5" width="45.5" height="45.5" filterUnits="userSpaceOnUse" color-interpolation-filters="sRGB">
<feFlood flood-opacity="0" result="BackgroundImageFix"/>
<feColorMatrix in="SourceAlpha" type="matrix" values="0 0 0 0 0 0 0 0 0 0 0 0 0 0 0 0 0 0 127 0" result="hardAlpha"/>
<feOffset dx="3" dy="3"/>
<feGaussianBlur stdDeviation="2.5"/>
<feComposite in2="hardAlpha" operator="out"/>
<feColorMatrix type="matrix" values="0 0 0 0 0 0 0 0 0 0 0 0 0 0 0 0 0 0 0.25 0"/>
<feBlend mode="normal" in2="BackgroundImageFix" result="effect1_dropShadow_1644_2"/>
<feColorMatrix in="SourceAlpha" type="matrix" values="0 0 0 0 0 0 0 0 0 0 0 0 0 0 0 0 0 0 127 0" result="hardAlpha"/>
<feOffset dx="0.5" dy="0.5"/>
<feGaussianBlur stdDeviation="1"/>
<feComposite in2="hardAlpha" operator="out"/>
<feColorMatrix type="matrix" values="0 0 0 0 0 0 0 0 0 0 0 0 0 0 0 0 0 0 0.25 0"/>
<feBlend mode="normal" in2="effect1_dropShadow_1644_2" result="effect2_dropShadow_1644_2"/>
<feColorMatrix in="SourceAlpha" type="matrix" values="0 0 0 0 0 0 0 0 0 0 0 0 0 0 0 0 0 0 127 0" result="hardAlpha"/>
<feOffset dx="-0.5" dy="-0.5"/>
<feGaussianBlur stdDeviation="1"/>
<feComposite in2="hardAlpha" operator="out"/>
<feColorMatrix type="matrix" values="0 0 0 0 1 0 0 0 0 1 0 0 0 0 1 0 0 0 1 0"/>
<feBlend mode="normal" in2="effect2_dropShadow_1644_2" result="effect3_dropShadow_1644_2"/>
<feBlend mode="normal" in="SourceGraphic" in2="effect3_dropShadow_1644_2" result="shape"/>
</filter>
<linearGradient id="paint0_linear_1644_2" x1="16.485" y1="7.74091" x2="32.0742" y2="23.3342" gradientUnits="userSpaceOnUse">
<stop stop-color="#FFE185"/>
<stop offset="0.21" stop-color="#FFBB36"/>
<stop offset="0.38" stop-color="#FF5176"/>
<stop offset="0.52" stop-color="#F63395"/>
<stop offset="0.74" stop-color="#A436D2"/>
<stop offset="1" stop-color="#5F4EED"/>
</linearGradient>
<linearGradient id="paint1_linear_1644_2" x1="12.1436" y1="12.0822" x2="27.7328" y2="27.6756" gradientUnits="userSpaceOnUse">
<stop stop-color="#FFE185"/>
<stop offset="0.21" stop-color="#FFBB36"/>
<stop offset="0.38" stop-color="#FF5176"/>
<stop offset="0.52" stop-color="#F63395"/>
<stop offset="0.74" stop-color="#A436D2"/>
<stop offset="1" stop-color="#5F4EED"/>
</linearGradient>
<linearGradient id="paint2_linear_1644_2" x1="12.111" y1="12.1151" x2="27.7002" y2="27.7085" gradientUnits="userSpaceOnUse">
<stop stop-color="#FFE185"/>
<stop offset="0.21" stop-color="#FFBB36"/>
<stop offset="0.38" stop-color="#FF5176"/>
<stop offset="0.52" stop-color="#F63395"/>
<stop offset="0.74" stop-color="#A436D2"/>
<stop offset="1" stop-color="#5F4EED"/>
</linearGradient>
</defs>
</svg>
