<svg width="35" height="35" viewBox="0 0 35 35" fill="none" xmlns="http://www.w3.org/2000/svg">
<rect width="35" height="35" rx="17.5" fill="#F9F9F9"/>
<path d="M27 14.9508C26.9989 13.9033 26.5823 12.8991 25.8416 12.1584C25.1009 11.4177 24.0967 11.0011 23.0492 11H12.9508C11.9033 11.0011 10.8991 11.4177 10.1584 12.1584C9.41771 12.8991 9.00111 13.9033 9.00002 14.9508V19.6504C8.99839 20.1703 9.09937 20.6854 9.29719 21.1661C9.495 21.6469 9.78576 22.0839 10.1528 22.4521C10.5198 22.8203 10.9559 23.1124 11.436 23.3117C11.9162 23.511 12.431 23.6136 12.9508 23.6136H23.0492C24.097 23.6136 25.1019 23.1974 25.8428 22.4565C26.5838 21.7156 27 20.7106 27 19.6628V14.9508ZM21.0593 17.6523L16.5293 19.8904C16.3514 19.9855 15.7516 19.8573 15.7516 19.6546V15.0625C15.7516 14.8557 16.3597 14.7274 16.5376 14.8308L20.8731 17.1889C21.0552 17.2923 21.2496 17.553 21.0593 17.6523Z" fill="url(#paint0_linear_1860_8)"/>
<defs>
<linearGradient id="paint0_linear_1860_8" x1="25.821" y1="23.2827" x2="9.14895" y2="10.5325" gradientUnits="userSpaceOnUse">
<stop stop-color="#FF0000"/>
<stop offset="1" stop-color="#9B0000"/>
</linearGradient>
</defs>
</svg>
