<svg width="35" height="35" viewBox="0 0 35 35" fill="none" xmlns="http://www.w3.org/2000/svg">
<rect width="35" height="35" rx="17.5" fill="#F9F9F9"/>
<path d="M9 26.06L10.2188 21.4979C9.23888 19.7244 8.93098 17.6569 9.35151 15.6747C9.77205 13.6925 10.8928 11.9284 12.5084 10.7058C14.1239 9.48328 16.1259 8.88423 18.1472 9.01853C20.1685 9.15284 22.0737 10.0115 23.5133 11.4371C24.953 12.8626 25.8307 14.7596 25.9854 16.78C26.1401 18.8004 25.5615 20.8089 24.3557 22.4372C23.15 24.0655 21.3978 25.2044 19.4205 25.6451C17.4432 26.0858 15.3734 25.7988 13.5905 24.8366L9 26.06ZM13.7944 23.1333L14.0832 23.3074C15.5138 24.1601 17.2069 24.4598 18.8432 24.1498C20.4795 23.8398 21.9458 22.9417 22.9657 21.6248C23.9856 20.3079 24.4885 18.6632 24.3796 17.0009C24.2707 15.3387 23.5575 13.7737 22.3746 12.6012C21.1916 11.4286 19.6207 10.7296 17.9579 10.6358C16.2952 10.5421 14.6557 11.0602 13.3485 12.0923C12.0413 13.1245 11.1569 14.5994 10.862 16.2389C10.5671 17.8784 10.882 19.5692 11.7475 20.9924L11.9216 21.2812L11.2422 23.8299L13.7944 23.1333Z" fill="url(#paint0_linear_1860_9)"/>
<path fill-rule="evenodd" clip-rule="evenodd" d="M20.678 18.6306C20.5115 18.497 20.3167 18.403 20.1085 18.3559C19.9003 18.3088 19.684 18.3098 19.4762 18.3587C19.1662 18.4862 18.9666 18.9747 18.7628 19.2083C18.7195 19.2667 18.6565 19.3074 18.5855 19.3231C18.5145 19.3387 18.4402 19.3281 18.3764 19.2933C17.2348 18.8446 16.2775 18.0247 15.6586 16.9655C15.6058 16.898 15.5808 16.8129 15.5887 16.7276C15.5966 16.6424 15.6368 16.5633 15.701 16.5067C15.9327 16.2886 16.1027 16.0131 16.1936 15.7081C16.2139 15.3776 16.1371 15.0483 15.9728 14.7609C15.8479 14.3563 15.6108 13.9954 15.2891 13.7202C15.1187 13.6413 14.9289 13.6141 14.7432 13.642C14.5575 13.67 14.3841 13.7518 14.2445 13.8773C14.0036 14.0832 13.8119 14.3403 13.6833 14.6299C13.5547 14.9195 13.4925 15.2342 13.5013 15.551C13.501 15.7299 13.5224 15.9082 13.565 16.0819C13.678 16.4937 13.8496 16.8872 14.0746 17.2501C14.2402 17.5304 14.4186 17.798 14.6097 18.0614C15.2362 18.9097 16.0188 19.6305 16.9156 20.1853C17.3692 20.4675 17.8537 20.6969 18.3594 20.8692C18.8832 21.106 19.4613 21.197 20.0325 21.1326C20.3592 21.0834 20.6687 20.9547 20.9338 20.7576C21.199 20.5606 21.4115 20.3013 21.5528 20.0026C21.6353 19.822 21.6605 19.6204 21.625 19.4249C21.5358 19.0596 21.0008 18.8218 20.678 18.6306Z" fill="url(#paint1_linear_1860_9)"/>
<defs>
<linearGradient id="paint0_linear_1860_9" x1="22.9925" y1="25.546" x2="10.7758" y2="13.3329" gradientUnits="userSpaceOnUse">
<stop stop-color="#00FB73"/>
<stop offset="1" stop-color="#00B25B"/>
</linearGradient>
<linearGradient id="paint1_linear_1860_9" x1="23.9436" y1="24.5903" x2="11.7312" y2="12.3814" gradientUnits="userSpaceOnUse">
<stop stop-color="#00FB73"/>
<stop offset="1" stop-color="#00B25B"/>
</linearGradient>
</defs>
</svg>
