<svg width="46" height="46" viewBox="0 0 46 46" fill="none" xmlns="http://www.w3.org/2000/svg">
<g filter="url(#filter0_ddd_1644_4)">
<rect x="3" y="3" width="35" height="35" rx="17.5" fill="#F9F9F9"/>
</g>
<path d="M29.8434 14.7765C29.2631 15.0241 28.6538 15.1972 28.03 15.2917C28.3226 15.2422 28.7512 14.7147 28.9202 14.5045C29.1908 14.1806 29.3952 13.8067 29.5219 13.4041C29.5219 13.3752 29.5508 13.334 29.5219 13.3093C29.5069 13.3031 29.4908 13.2998 29.4745 13.2998C29.4583 13.2998 29.4422 13.3031 29.4271 13.3093C28.748 13.6744 28.025 13.9514 27.2758 14.1336C27.2498 14.1419 27.2218 14.1425 27.1955 14.1352C27.1691 14.1278 27.1455 14.113 27.1274 14.0924C27.0709 14.0242 27.0089 13.9608 26.942 13.9028C26.6314 13.6346 26.2793 13.4188 25.8993 13.264C25.394 13.0584 24.8485 12.971 24.3044 13.0084C23.7757 13.0391 23.2592 13.1794 22.7877 13.4206C22.3118 13.6668 21.8911 14.0076 21.5513 14.4221C21.2031 14.8499 20.954 15.3496 20.8219 15.8852C20.7086 16.3916 20.696 16.9153 20.7848 17.4266C20.7848 17.5131 20.7848 17.5255 20.7106 17.5131C17.7556 17.0721 15.3076 16.0171 13.3211 13.7544C13.2346 13.6555 13.1892 13.6555 13.1192 13.7544C12.2496 15.0609 12.6699 17.1546 13.758 18.1808C13.9009 18.3269 14.0523 18.4645 14.2113 18.5929C13.7133 18.5519 13.2285 18.4118 12.7853 18.1808C12.6988 18.1272 12.6535 18.1602 12.6493 18.2591C12.6447 18.3968 12.6516 18.5347 12.6699 18.6712C12.7523 19.3439 13.0131 19.9823 13.4255 20.52C13.8379 21.0578 14.3867 21.4753 15.015 21.7293C15.1667 21.7959 15.3258 21.8444 15.4889 21.8736C15.0274 21.965 14.5541 21.9803 14.0877 21.9189C13.9888 21.8983 13.9475 21.9478 13.9888 22.0467C14.6028 23.7241 15.9299 24.2228 16.9272 24.5195C17.0591 24.5443 17.191 24.5443 17.3394 24.5731L17.3146 24.5978C16.9849 25.1006 15.8392 25.4757 15.3076 25.6612C14.3324 26.0092 13.2932 26.1414 12.2619 26.0486C12.0971 26.0486 12.0641 26.0486 12.0188 26.0486C11.9734 26.0486 12.0188 26.1186 12.0641 26.1599C12.2743 26.2959 12.4762 26.4195 12.6988 26.5349C13.3455 26.8828 14.0281 27.1592 14.7347 27.3592C18.3985 28.3689 22.5198 27.6271 25.2687 24.8863C27.4283 22.7432 28.1825 19.7881 28.1825 16.8249C28.1825 16.7095 28.3185 16.6476 28.4009 16.5858C28.948 16.1597 29.431 15.6573 29.8351 15.0939C29.8984 15.0127 29.9318 14.9123 29.9299 14.8095V14.8095C29.9176 14.7229 29.9176 14.7435 29.8434 14.7765Z" fill="url(#paint0_linear_1644_4)"/>
<defs>
<filter id="filter0_ddd_1644_4" x="0.5" y="0.5" width="45.5" height="45.5" filterUnits="userSpaceOnUse" color-interpolation-filters="sRGB">
<feFlood flood-opacity="0" result="BackgroundImageFix"/>
<feColorMatrix in="SourceAlpha" type="matrix" values="0 0 0 0 0 0 0 0 0 0 0 0 0 0 0 0 0 0 127 0" result="hardAlpha"/>
<feOffset dx="3" dy="3"/>
<feGaussianBlur stdDeviation="2.5"/>
<feComposite in2="hardAlpha" operator="out"/>
<feColorMatrix type="matrix" values="0 0 0 0 0 0 0 0 0 0 0 0 0 0 0 0 0 0 0.25 0"/>
<feBlend mode="normal" in2="BackgroundImageFix" result="effect1_dropShadow_1644_4"/>
<feColorMatrix in="SourceAlpha" type="matrix" values="0 0 0 0 0 0 0 0 0 0 0 0 0 0 0 0 0 0 127 0" result="hardAlpha"/>
<feOffset dx="0.5" dy="0.5"/>
<feGaussianBlur stdDeviation="1"/>
<feComposite in2="hardAlpha" operator="out"/>
<feColorMatrix type="matrix" values="0 0 0 0 0 0 0 0 0 0 0 0 0 0 0 0 0 0 0.25 0"/>
<feBlend mode="normal" in2="effect1_dropShadow_1644_4" result="effect2_dropShadow_1644_4"/>
<feColorMatrix in="SourceAlpha" type="matrix" values="0 0 0 0 0 0 0 0 0 0 0 0 0 0 0 0 0 0 127 0" result="hardAlpha"/>
<feOffset dx="-0.5" dy="-0.5"/>
<feGaussianBlur stdDeviation="1"/>
<feComposite in2="hardAlpha" operator="out"/>
<feColorMatrix type="matrix" values="0 0 0 0 1 0 0 0 0 1 0 0 0 0 1 0 0 0 1 0"/>
<feBlend mode="normal" in2="effect2_dropShadow_1644_4" result="effect3_dropShadow_1644_4"/>
<feBlend mode="normal" in="SourceGraphic" in2="effect3_dropShadow_1644_4" result="shape"/>
</filter>
<linearGradient id="paint0_linear_1644_4" x1="27.0574" y1="25.9991" x2="16.3541" y2="15.2961" gradientUnits="userSpaceOnUse">
<stop stop-color="#00CCFF"/>
<stop offset="1" stop-color="#0080FF"/>
</linearGradient>
</defs>
</svg>
