<svg width="35" height="35" viewBox="0 0 35 35" fill="none" xmlns="http://www.w3.org/2000/svg">
<rect width="35" height="35" rx="17.5" fill="#F9F9F9"/>
<path d="M26.8434 11.7765C26.2631 12.0241 25.6538 12.1972 25.03 12.2917C25.3226 12.2422 25.7512 11.7147 25.9202 11.5045C26.1908 11.1806 26.3952 10.8067 26.5219 10.4041C26.5219 10.3752 26.5508 10.334 26.5219 10.3093C26.5069 10.3031 26.4908 10.2998 26.4745 10.2998C26.4583 10.2998 26.4422 10.3031 26.4271 10.3093C25.748 10.6744 25.025 10.9514 24.2758 11.1336C24.2498 11.1419 24.2218 11.1425 24.1955 11.1352C24.1691 11.1278 24.1455 11.113 24.1274 11.0924C24.0709 11.0242 24.0089 10.9608 23.942 10.9028C23.6314 10.6346 23.2793 10.4188 22.8993 10.264C22.394 10.0584 21.8485 9.97103 21.3044 10.0084C20.7757 10.0391 20.2592 10.1794 19.7877 10.4206C19.3118 10.6668 18.8911 11.0076 18.5513 11.4221C18.2031 11.8499 17.954 12.3496 17.8219 12.8852C17.7086 13.3916 17.696 13.9153 17.7848 14.4266C17.7848 14.5131 17.7848 14.5255 17.7106 14.5131C14.7556 14.0721 12.3076 13.0171 10.3211 10.7544C10.2346 10.6555 10.1892 10.6555 10.1192 10.7544C9.24957 12.0609 9.66994 14.1546 10.758 15.1808C10.9009 15.3269 11.0523 15.4645 11.2113 15.5929C10.7133 15.5519 10.2285 15.4118 9.78534 15.1808C9.69879 15.1272 9.65346 15.1602 9.64934 15.2591C9.64471 15.3968 9.6516 15.5347 9.66994 15.6712C9.75225 16.3439 10.0131 16.9823 10.4255 17.52C10.8379 18.0578 11.3867 18.4753 12.015 18.7293C12.1667 18.7959 12.3258 18.8444 12.4889 18.8736C12.0274 18.965 11.5541 18.9803 11.0877 18.9189C10.9888 18.8983 10.9475 18.9478 10.9888 19.0467C11.6028 20.7241 12.9299 21.2228 13.9272 21.5195C14.0591 21.5443 14.191 21.5443 14.3394 21.5731L14.3146 21.5978C13.9849 22.1006 12.8392 22.4757 12.3076 22.6612C11.3324 23.0092 10.2932 23.1414 9.26193 23.0486C9.09708 23.0486 9.06411 23.0486 9.01878 23.0486C8.97344 23.0486 9.01878 23.1186 9.06411 23.1599C9.2743 23.2959 9.47624 23.4195 9.69879 23.5349C10.3455 23.8828 11.0281 24.1592 11.7347 24.3592C15.3985 25.3689 19.5198 24.6271 22.2687 21.8863C24.4283 19.7432 25.1825 16.7881 25.1825 13.8249C25.1825 13.7095 25.3185 13.6476 25.4009 13.5858C25.948 13.1597 26.431 12.6573 26.8351 12.0939C26.8984 12.0127 26.9318 11.9123 26.9299 11.8095C26.9176 11.7229 26.9176 11.7435 26.8434 11.7765Z" fill="url(#paint0_linear_1860_7)"/>
<defs>
<linearGradient id="paint0_linear_1860_7" x1="24.0574" y1="22.9991" x2="13.3541" y2="12.2961" gradientUnits="userSpaceOnUse">
<stop stop-color="#00CCFF"/>
<stop offset="1" stop-color="#0080FF"/>
</linearGradient>
</defs>
</svg>
