<svg width="46" height="46" viewBox="0 0 46 46" fill="none" xmlns="http://www.w3.org/2000/svg">
<g filter="url(#filter0_ddd_1644_10)">
<rect x="3" y="3" width="35" height="35" rx="17.5" fill="#F9F9F9"/>
</g>
<path d="M12 29.06L13.2188 24.4979C12.2389 22.7244 11.931 20.6569 12.3515 18.6747C12.772 16.6925 13.8928 14.9284 15.5084 13.7058C17.1239 12.4833 19.1259 11.8842 21.1472 12.0185C23.1685 12.1528 25.0737 13.0115 26.5133 14.4371C27.953 15.8626 28.8307 17.7596 28.9854 19.78C29.1401 21.8004 28.5615 23.8089 27.3557 25.4372C26.15 27.0655 24.3978 28.2044 22.4205 28.6451C20.4432 29.0858 18.3734 28.7988 16.5906 27.8366L12 29.06ZM16.7944 26.1333L17.0832 26.3074C18.5138 27.1601 20.2069 27.4598 21.8432 27.1498C23.4795 26.8398 24.9458 25.9417 25.9657 24.6248C26.9856 23.3079 27.4885 21.6632 27.3796 20.0009C27.2707 18.3387 26.5575 16.7737 25.3746 15.6012C24.1916 14.4286 22.6207 13.7296 20.9579 13.6358C19.2952 13.5421 17.6557 14.0602 16.3485 15.0923C15.0413 16.1245 14.1569 17.5994 13.862 19.2389C13.5671 20.8784 13.882 22.5692 14.7475 23.9924L14.9216 24.2812L14.2422 26.8299L16.7944 26.1333Z" fill="url(#paint0_linear_1644_10)"/>
<path fill-rule="evenodd" clip-rule="evenodd" d="M23.678 21.6306C23.5115 21.497 23.3167 21.403 23.1085 21.3559C22.9003 21.3088 22.684 21.3098 22.4762 21.3587C22.1662 21.4862 21.9666 21.9747 21.7628 22.2083C21.7195 22.2667 21.6565 22.3074 21.5855 22.3231C21.5145 22.3387 21.4402 22.3281 21.3764 22.2933C20.2348 21.8446 19.2775 21.0247 18.6586 19.9655C18.6058 19.898 18.5808 19.8129 18.5887 19.7276C18.5966 19.6424 18.6368 19.5633 18.701 19.5067C18.9327 19.2886 19.1027 19.0131 19.1936 18.7081C19.2139 18.3776 19.1371 18.0483 18.9728 17.7609C18.8479 17.3563 18.6108 16.9954 18.2891 16.7202C18.1187 16.6413 17.9289 16.6141 17.7432 16.642C17.5575 16.67 17.3841 16.7518 17.2445 16.8773C17.0036 17.0832 16.8119 17.3403 16.6833 17.6299C16.5547 17.9195 16.4925 18.2342 16.5013 18.551C16.501 18.7299 16.5224 18.9082 16.565 19.0819C16.678 19.4937 16.8496 19.8872 17.0746 20.2501C17.2402 20.5304 17.4186 20.798 17.6097 21.0614C18.2362 21.9097 19.0188 22.6305 19.9156 23.1853C20.3692 23.4675 20.8537 23.6969 21.3594 23.8692C21.8832 24.106 22.4613 24.197 23.0325 24.1326C23.3592 24.0834 23.6687 23.9547 23.9338 23.7576C24.199 23.5606 24.4115 23.3013 24.5528 23.0026C24.6353 22.822 24.6605 22.6204 24.625 22.4249C24.5358 22.0596 24.0008 21.8218 23.678 21.6306Z" fill="url(#paint1_linear_1644_10)"/>
<defs>
<filter id="filter0_ddd_1644_10" x="0.5" y="0.5" width="45.5" height="45.5" filterUnits="userSpaceOnUse" color-interpolation-filters="sRGB">
<feFlood flood-opacity="0" result="BackgroundImageFix"/>
<feColorMatrix in="SourceAlpha" type="matrix" values="0 0 0 0 0 0 0 0 0 0 0 0 0 0 0 0 0 0 127 0" result="hardAlpha"/>
<feOffset dx="3" dy="3"/>
<feGaussianBlur stdDeviation="2.5"/>
<feComposite in2="hardAlpha" operator="out"/>
<feColorMatrix type="matrix" values="0 0 0 0 0 0 0 0 0 0 0 0 0 0 0 0 0 0 0.25 0"/>
<feBlend mode="normal" in2="BackgroundImageFix" result="effect1_dropShadow_1644_10"/>
<feColorMatrix in="SourceAlpha" type="matrix" values="0 0 0 0 0 0 0 0 0 0 0 0 0 0 0 0 0 0 127 0" result="hardAlpha"/>
<feOffset dx="0.5" dy="0.5"/>
<feGaussianBlur stdDeviation="1"/>
<feComposite in2="hardAlpha" operator="out"/>
<feColorMatrix type="matrix" values="0 0 0 0 0 0 0 0 0 0 0 0 0 0 0 0 0 0 0.25 0"/>
<feBlend mode="normal" in2="effect1_dropShadow_1644_10" result="effect2_dropShadow_1644_10"/>
<feColorMatrix in="SourceAlpha" type="matrix" values="0 0 0 0 0 0 0 0 0 0 0 0 0 0 0 0 0 0 127 0" result="hardAlpha"/>
<feOffset dx="-0.5" dy="-0.5"/>
<feGaussianBlur stdDeviation="1"/>
<feComposite in2="hardAlpha" operator="out"/>
<feColorMatrix type="matrix" values="0 0 0 0 1 0 0 0 0 1 0 0 0 0 1 0 0 0 1 0"/>
<feBlend mode="normal" in2="effect2_dropShadow_1644_10" result="effect3_dropShadow_1644_10"/>
<feBlend mode="normal" in="SourceGraphic" in2="effect3_dropShadow_1644_10" result="shape"/>
</filter>
<linearGradient id="paint0_linear_1644_10" x1="25.9925" y1="28.546" x2="13.7758" y2="16.3329" gradientUnits="userSpaceOnUse">
<stop stop-color="#00FB73"/>
<stop offset="1" stop-color="#00B25B"/>
</linearGradient>
<linearGradient id="paint1_linear_1644_10" x1="26.9436" y1="27.5903" x2="14.7312" y2="15.3814" gradientUnits="userSpaceOnUse">
<stop stop-color="#00FB73"/>
<stop offset="1" stop-color="#00B25B"/>
</linearGradient>
</defs>
</svg>
