<svg width="35" height="35" viewBox="0 0 35 35" fill="none" xmlns="http://www.w3.org/2000/svg">
<rect width="35" height="35" rx="17.5" fill="#F9F9F9"/>
<path d="M21.6701 11.96C21.4772 11.96 21.2887 12.0172 21.1284 12.1245C20.9681 12.2317 20.8432 12.3841 20.7696 12.5624C20.6959 12.7407 20.6769 12.9368 20.7148 13.1259C20.7528 13.315 20.846 13.4886 20.9826 13.6247C21.1193 13.7608 21.2933 13.8533 21.4826 13.8904C21.6718 13.9275 21.8679 13.9076 22.0458 13.8333C22.2238 13.7589 22.3757 13.6334 22.4822 13.4726C22.5888 13.3118 22.6453 13.1231 22.6444 12.9302C22.6444 12.8024 22.6192 12.6759 22.5702 12.5579C22.5212 12.44 22.4494 12.3328 22.3588 12.2427C22.2683 12.1525 22.1609 12.0812 22.0427 12.0326C21.9245 11.9841 21.7979 11.9594 21.6701 11.96V11.96Z" fill="url(#paint0_linear_1860_5)"/>
<path d="M17.3493 13.2056C16.5408 13.2048 15.7501 13.4439 15.0775 13.8926C14.4048 14.3413 13.8804 14.9795 13.5706 15.7263C13.2608 16.4732 13.1796 17.2952 13.3371 18.0883C13.4947 18.8813 13.8839 19.6098 14.4557 20.1816C15.0274 20.7533 15.7559 21.1426 16.549 21.3001C17.3421 21.4577 18.164 21.3764 18.9109 21.0666C19.6578 20.7568 20.2959 20.2324 20.7447 19.5598C21.1934 18.8871 21.4324 18.0965 21.4316 17.2879C21.4305 16.2056 21.0001 15.1679 20.2347 14.4025C19.4694 13.6372 18.4317 13.2067 17.3493 13.2056ZM17.3493 19.9026C16.8322 19.9026 16.3267 19.7492 15.8967 19.4619C15.4667 19.1746 15.1316 18.7663 14.9337 18.2885C14.7358 17.8108 14.684 17.285 14.7849 16.7778C14.8858 16.2707 15.1348 15.8048 15.5005 15.4391C15.8661 15.0734 16.332 14.8244 16.8392 14.7235C17.3464 14.6226 17.8721 14.6744 18.3499 14.8723C18.8277 15.0702 19.236 15.4053 19.5233 15.8353C19.8106 16.2653 19.964 16.7708 19.964 17.2879C19.964 17.9814 19.6885 18.6464 19.1982 19.1368C18.7078 19.6271 18.0428 19.9026 17.3493 19.9026Z" fill="url(#paint1_linear_1860_5)"/>
<path d="M20.5933 25.58H13.9703C12.6513 25.5757 11.3877 25.0489 10.4562 24.1151C9.52469 23.1812 9.00108 21.9164 9 20.5974V13.9785C9.00108 12.6599 9.52483 11.3955 10.4565 10.4623C11.3881 9.52909 12.6517 9.00326 13.9703 9H20.5933C21.9133 9.00109 23.179 9.52596 24.1124 10.4594C25.0458 11.3928 25.5707 12.6585 25.5718 13.9785V20.5974C25.5707 21.9178 25.046 23.1839 24.1127 24.118C23.1794 25.052 21.9137 25.5778 20.5933 25.58V25.58ZM13.9703 10.5581C13.0635 10.5592 12.1941 10.9199 11.5529 11.5611C10.9117 12.2023 10.551 13.0717 10.5499 13.9785V20.5974C10.551 21.5042 10.9117 22.3735 11.5529 23.0148C12.1941 23.656 13.0635 24.0167 13.9703 24.0178H20.5933C21.5001 24.0167 22.3694 23.656 23.0107 23.0148C23.6519 22.3735 24.0126 21.5042 24.0137 20.5974V13.9785C24.0126 13.0717 23.6519 12.2023 23.0107 11.5611C22.3694 10.9199 21.5001 10.5592 20.5933 10.5581H13.9703Z" fill="url(#paint2_linear_1860_5)"/>
<defs>
<linearGradient id="paint0_linear_1860_5" x1="13.485" y1="4.74091" x2="29.0742" y2="20.3342" gradientUnits="userSpaceOnUse">
<stop stop-color="#FFE185"/>
<stop offset="0.21" stop-color="#FFBB36"/>
<stop offset="0.38" stop-color="#FF5176"/>
<stop offset="0.52" stop-color="#F63395"/>
<stop offset="0.74" stop-color="#A436D2"/>
<stop offset="1" stop-color="#5F4EED"/>
</linearGradient>
<linearGradient id="paint1_linear_1860_5" x1="9.14359" y1="9.08221" x2="24.7328" y2="24.6756" gradientUnits="userSpaceOnUse">
<stop stop-color="#FFE185"/>
<stop offset="0.21" stop-color="#FFBB36"/>
<stop offset="0.38" stop-color="#FF5176"/>
<stop offset="0.52" stop-color="#F63395"/>
<stop offset="0.74" stop-color="#A436D2"/>
<stop offset="1" stop-color="#5F4EED"/>
</linearGradient>
<linearGradient id="paint2_linear_1860_5" x1="9.111" y1="9.11511" x2="24.7002" y2="24.7085" gradientUnits="userSpaceOnUse">
<stop stop-color="#FFE185"/>
<stop offset="0.21" stop-color="#FFBB36"/>
<stop offset="0.38" stop-color="#FF5176"/>
<stop offset="0.52" stop-color="#F63395"/>
<stop offset="0.74" stop-color="#A436D2"/>
<stop offset="1" stop-color="#5F4EED"/>
</linearGradient>
</defs>
</svg>
