<svg width="387" height="343" viewBox="0 0 387 343" fill="none" xmlns="http://www.w3.org/2000/svg">
<path d="M132.062 207.437L110.891 197.594L110.891 180.875L145.695 199.664L168 199.664L168 215.211L146.164 215.211L110.891 234L110.891 217.203L132.062 207.437ZM139.367 121.266C143.768 121.266 147.779 121.799 151.398 122.867C154.992 123.909 158.091 125.549 160.695 127.789C163.299 130.029 165.305 132.906 166.711 136.422C168.091 139.937 168.781 144.143 168.781 149.039C168.781 153.831 168.091 157.984 166.711 161.5C165.305 164.99 163.312 167.867 160.734 170.133C158.13 172.398 155.018 174.078 151.398 175.172C147.779 176.266 143.742 176.812 139.289 176.812C133.352 176.812 128.195 175.836 123.82 173.883C119.419 171.904 116.021 168.857 113.625 164.742C111.203 160.628 109.992 155.367 109.992 148.961C109.992 142.451 111.203 137.164 113.625 133.102C116.047 129.013 119.458 126.018 123.859 124.117C128.26 122.216 133.43 121.266 139.367 121.266ZM139.367 160.562C142.805 160.562 145.76 160.172 148.234 159.391C150.708 158.609 152.609 157.372 153.937 155.68C155.266 153.987 155.93 151.773 155.93 149.039C155.93 146.201 155.266 143.948 153.937 142.281C152.609 140.589 150.708 139.378 148.234 138.648C145.76 137.893 142.805 137.516 139.367 137.516C134.211 137.516 130.135 138.375 127.141 140.094C124.146 141.812 122.648 144.768 122.648 148.961C122.648 151.747 123.326 154 124.68 155.719C126.034 157.411 127.961 158.648 130.461 159.43C132.961 160.185 135.93 160.562 139.367 160.562ZM110.891 62.3984L145.266 62.3984C150.057 62.3984 154.224 63.3099 157.766 65.1328C161.281 66.9557 164.003 69.6901 165.93 73.3359C167.831 76.9818 168.781 81.5521 168.781 87.0469C168.781 94.9115 166.763 100.914 162.727 105.055C158.69 109.195 152.987 111.266 145.617 111.266L110.891 111.266L110.891 95.7578L144.406 95.7578C148.443 95.7578 151.372 95.0026 153.195 93.4922C155.018 91.9818 155.93 89.7552 155.93 86.8125C155.93 84.7031 155.539 82.9844 154.758 81.6562C153.951 80.3281 152.687 79.3646 150.969 78.7656C149.25 78.1406 147.036 77.8281 144.328 77.8281L110.891 77.8281L110.891 62.3984ZM110.891 31.6953C110.891 26.513 111.529 22.2031 112.805 18.7656C114.055 15.3281 115.93 12.75 118.43 11.0312C120.93 9.28646 124.042 8.41406 127.766 8.41406C130.083 8.41406 132.193 8.80469 134.094 9.58594C135.995 10.3672 137.701 11.487 139.211 12.9453C140.695 14.3776 141.997 16.0964 143.117 18.1016L168 1.46093L168 18.9609L147.219 31.0703L147.219 34.9766L168 34.9766L168 50.4062L110.891 50.4062L110.891 31.6953ZM122.57 31.9297L122.57 34.9766L135.617 34.9766L135.617 32.0859C135.617 29.7161 135.096 27.776 134.055 26.2656C133.013 24.7552 131.151 24 128.469 24C126.62 24 125.174 24.625 124.133 25.875C123.091 27.125 122.57 29.1432 122.57 31.9297Z" fill="#8FA8A6" fill-opacity="0.2"/>
<path d="M136.602 274.727C134.779 274.727 133.151 275.117 131.719 275.898C130.286 276.654 129.062 277.76 128.047 279.219C127.031 280.677 126.25 282.461 125.703 284.57C125.182 286.654 124.922 289.023 124.922 291.68C124.922 295.273 125.378 298.294 126.289 300.742C127.201 303.19 128.581 305.039 130.43 306.289C132.305 307.539 134.648 308.164 137.461 308.164C140.013 308.164 142.461 307.812 144.805 307.109C147.174 306.406 149.557 305.56 151.953 304.57V317.617C149.427 318.737 146.836 319.544 144.18 320.039C141.549 320.534 138.75 320.781 135.781 320.781C129.583 320.781 124.505 319.557 120.547 317.109C116.615 314.635 113.711 311.211 111.836 306.836C109.987 302.461 109.062 297.383 109.062 291.602C109.062 287.279 109.661 283.32 110.859 279.727C112.083 276.133 113.867 273.021 116.211 270.391C118.555 267.734 121.445 265.69 124.883 264.258C128.346 262.799 132.305 262.07 136.758 262.07C139.518 262.07 142.422 262.396 145.469 263.047C148.542 263.672 151.536 264.688 154.453 266.094L149.727 278.242C147.643 277.253 145.534 276.419 143.398 275.742C141.263 275.065 138.997 274.727 136.602 274.727ZM216.562 291.367C216.562 295.768 216.029 299.779 214.961 303.398C213.919 306.992 212.279 310.091 210.039 312.695C207.799 315.299 204.922 317.305 201.406 318.711C197.891 320.091 193.685 320.781 188.789 320.781C183.997 320.781 179.844 320.091 176.328 318.711C172.839 317.305 169.961 315.312 167.695 312.734C165.43 310.13 163.75 307.018 162.656 303.398C161.562 299.779 161.016 295.742 161.016 291.289C161.016 285.352 161.992 280.195 163.945 275.82C165.924 271.419 168.971 268.021 173.086 265.625C177.201 263.203 182.461 261.992 188.867 261.992C195.378 261.992 200.664 263.203 204.727 265.625C208.815 268.047 211.81 271.458 213.711 275.859C215.612 280.26 216.562 285.43 216.562 291.367ZM177.266 291.367C177.266 294.805 177.656 297.76 178.438 300.234C179.219 302.708 180.456 304.609 182.148 305.938C183.841 307.266 186.055 307.93 188.789 307.93C191.628 307.93 193.88 307.266 195.547 305.938C197.24 304.609 198.451 302.708 199.18 300.234C199.935 297.76 200.312 294.805 200.312 291.367C200.312 286.211 199.453 282.135 197.734 279.141C196.016 276.146 193.06 274.648 188.867 274.648C186.081 274.648 183.828 275.326 182.109 276.68C180.417 278.034 179.18 279.961 178.398 282.461C177.643 284.961 177.266 287.93 177.266 291.367Z" fill="#8FA8A6" fill-opacity="0.2"/>
<path d="M226.875 320V262.891H242.305V307.539H264.297V320H226.875Z" fill="#FF4949" fill-opacity="0.2"/>
<path d="M326.875 291.367C326.875 295.768 326.341 299.779 325.273 303.398C324.232 306.992 322.591 310.091 320.352 312.695C318.112 315.299 315.234 317.305 311.719 318.711C308.203 320.091 303.997 320.781 299.102 320.781C294.31 320.781 290.156 320.091 286.641 318.711C283.151 317.305 280.273 315.312 278.008 312.734C275.742 310.13 274.062 307.018 272.969 303.398C271.875 299.779 271.328 295.742 271.328 291.289C271.328 285.352 272.305 280.195 274.258 275.82C276.237 271.419 279.284 268.021 283.398 265.625C287.513 263.203 292.773 261.992 299.18 261.992C305.69 261.992 310.977 263.203 315.039 265.625C319.128 268.047 322.122 271.458 324.023 275.859C325.924 280.26 326.875 285.43 326.875 291.367ZM287.578 291.367C287.578 294.805 287.969 297.76 288.75 300.234C289.531 302.708 290.768 304.609 292.461 305.938C294.154 307.266 296.367 307.93 299.102 307.93C301.94 307.93 304.193 307.266 305.859 305.938C307.552 304.609 308.763 302.708 309.492 300.234C310.247 297.76 310.625 294.805 310.625 291.367C310.625 286.211 309.766 282.135 308.047 279.141C306.328 276.146 303.372 274.648 299.18 274.648C296.393 274.648 294.141 275.326 292.422 276.68C290.729 278.034 289.492 279.961 288.711 282.461C287.956 284.961 287.578 287.93 287.578 291.367Z" fill="#0096FF" fill-opacity="0.2"/>
<path d="M355.898 262.891C361.081 262.891 365.391 263.529 368.828 264.805C372.266 266.055 374.844 267.93 376.562 270.43C378.307 272.93 379.18 276.042 379.18 279.766C379.18 282.083 378.789 284.193 378.008 286.094C377.227 287.995 376.107 289.701 374.648 291.211C373.216 292.695 371.497 293.997 369.492 295.117L386.133 320H368.633L356.523 299.219H352.617V320H337.188V262.891H355.898ZM355.664 274.57H352.617V287.617H355.508C357.878 287.617 359.818 287.096 361.328 286.055C362.839 285.013 363.594 283.151 363.594 280.469C363.594 278.62 362.969 277.174 361.719 276.133C360.469 275.091 358.451 274.57 355.664 274.57Z" fill="#3CCF4E" fill-opacity="0.2"/>
<path d="M40.7266 299.398C40.7266 301.221 41.1172 302.849 41.8984 304.281C42.6536 305.714 43.7604 306.937 45.2187 307.953C46.6771 308.969 48.4609 309.75 50.5703 310.297C52.6536 310.818 55.0234 311.078 57.6797 311.078C61.2734 311.078 64.2943 310.622 66.7422 309.711C69.1901 308.799 71.0391 307.419 72.2891 305.57C73.5391 303.695 74.1641 301.352 74.1641 298.539C74.1641 295.987 73.8125 293.539 73.1094 291.195C72.4062 288.826 71.5599 286.443 70.5703 284.047L83.6172 284.047C84.737 286.573 85.5443 289.164 86.0391 291.82C86.5339 294.451 86.7812 297.25 86.7812 300.219C86.7812 306.417 85.5573 311.495 83.1094 315.453C80.6354 319.385 77.2109 322.289 72.8359 324.164C68.4609 326.013 63.3828 326.937 57.6016 326.937C53.2786 326.937 49.3203 326.339 45.7266 325.141C42.1328 323.917 39.0208 322.133 36.3906 319.789C33.7344 317.445 31.6901 314.555 30.2578 311.117C28.7995 307.654 28.0703 303.695 28.0703 299.242C28.0703 296.482 28.3958 293.578 29.0469 290.531C29.6719 287.458 30.6875 284.464 32.0937 281.547L44.2422 286.273C43.2526 288.357 42.4193 290.466 41.7422 292.602C41.0651 294.737 40.7266 297.003 40.7266 299.398ZM86 223.93L86 239.437L62.7187 239.437L62.7187 257.367L86 257.367L86 272.875L28.8906 272.875L28.8906 257.367L50.0625 257.367L50.0625 239.437L28.8906 239.437L28.8906 223.93L86 223.93ZM57.3672 158.109C61.7682 158.109 65.7786 158.643 69.3984 159.711C72.9922 160.753 76.0911 162.393 78.6953 164.633C81.2995 166.872 83.3047 169.75 84.7109 173.266C86.0911 176.781 86.7812 180.987 86.7812 185.883C86.7812 190.674 86.0911 194.828 84.7109 198.344C83.3047 201.833 81.3125 204.711 78.7344 206.977C76.1302 209.242 73.0182 210.922 69.3984 212.016C65.7786 213.109 61.7422 213.656 57.2891 213.656C51.3516 213.656 46.1953 212.68 41.8203 210.727C37.4193 208.747 34.0208 205.701 31.625 201.586C29.2031 197.471 27.9922 192.211 27.9922 185.805C27.9922 179.294 29.2031 174.008 31.625 169.945C34.0469 165.857 37.4583 162.862 41.8594 160.961C46.2604 159.06 51.4297 158.109 57.3672 158.109ZM57.3672 197.406C60.8047 197.406 63.7604 197.016 66.2344 196.234C68.7083 195.453 70.6094 194.216 71.9375 192.523C73.2656 190.831 73.9297 188.617 73.9297 185.883C73.9297 183.044 73.2656 180.792 71.9375 179.125C70.6094 177.432 68.7083 176.221 66.2344 175.492C63.7604 174.737 60.8047 174.359 57.3672 174.359C52.2109 174.359 48.1354 175.219 45.1406 176.937C42.1458 178.656 40.6484 181.612 40.6484 185.805C40.6484 188.591 41.3255 190.844 42.6797 192.562C44.0338 194.255 45.9609 195.492 48.4609 196.273C50.9609 197.029 53.9297 197.406 57.3672 197.406ZM57.3672 94.3594C61.7682 94.3594 65.7786 94.8932 69.3984 95.9609C72.9922 97.0026 76.0911 98.6432 78.6953 100.883C81.2995 103.122 83.3047 106 84.7109 109.516C86.0911 113.031 86.7812 117.237 86.7812 122.133C86.7812 126.924 86.0911 131.078 84.7109 134.594C83.3047 138.083 81.3125 140.961 78.7344 143.227C76.1302 145.492 73.0182 147.172 69.3984 148.266C65.7786 149.359 61.7422 149.906 57.2891 149.906C51.3516 149.906 46.1953 148.93 41.8203 146.977C37.4193 144.997 34.0208 141.951 31.625 137.836C29.2031 133.721 27.9922 128.461 27.9922 122.055C27.9922 115.544 29.2031 110.258 31.625 106.195C34.0469 102.107 37.4583 99.112 41.8594 97.2109C46.2604 95.3099 51.4297 94.3594 57.3672 94.3594ZM57.3672 133.656C60.8047 133.656 63.7604 133.266 66.2344 132.484C68.7083 131.703 70.6094 130.466 71.9375 128.773C73.2656 127.081 73.9297 124.867 73.9297 122.133C73.9297 119.294 73.2656 117.042 71.9375 115.375C70.6094 113.682 68.7083 112.471 66.2344 111.742C63.7604 110.987 60.8047 110.609 57.3672 110.609C52.2109 110.609 48.1354 111.469 45.1406 113.187C42.1458 114.906 40.6484 117.862 40.6484 122.055C40.6484 124.841 41.3255 127.094 42.6797 128.812C44.0338 130.505 45.9609 131.742 48.4609 132.523C50.9609 133.279 53.9297 133.656 57.3672 133.656ZM68.6562 46.7031C71.7552 46.7031 74.6979 47.4844 77.4844 49.0469C80.2448 50.6094 82.4844 53.0443 84.2031 56.3516C85.9219 59.6328 86.7812 63.8776 86.7812 69.0859C86.7812 71.6901 86.6641 73.9818 86.4297 75.9609C86.1953 77.9141 85.8177 79.737 85.2969 81.4297C84.75 83.1224 84.0469 84.8802 83.1875 86.7031L69.4375 86.7031C71 83.6042 72.1979 80.4792 73.0312 77.3281C73.8385 74.1771 74.2422 71.3255 74.2422 68.7734C74.2422 67.237 74.0599 65.987 73.6953 65.0234C73.3307 64.0339 72.8359 63.3047 72.2109 62.8359C71.5599 62.3672 70.8177 62.1328 69.9844 62.1328C68.9948 62.1328 68.1614 62.4844 67.4844 63.1875C66.7812 63.8646 66.0521 64.9583 65.2969 66.4687C64.5417 67.9792 63.6042 69.9714 62.4844 72.4453C61.4948 74.5547 60.4792 76.4687 59.4375 78.1875C58.3958 79.8802 57.2109 81.3385 55.8828 82.5625C54.5286 83.7604 52.9531 84.6849 51.1562 85.3359C49.3594 85.987 47.237 86.3125 44.7891 86.3125C41.1172 86.3125 38.0443 85.4141 35.5703 83.6172C33.0703 81.7943 31.1953 79.2682 29.9453 76.0391C28.6953 72.7839 28.0703 69.0339 28.0703 64.7891C28.0703 61.0651 28.487 57.7187 29.3203 54.75C30.1536 51.7552 31.1042 49.0729 32.1719 46.7031L44.0859 51.4297C42.9661 53.8776 42.0807 56.2865 41.4297 58.6562C40.7526 61.026 40.4141 63.2266 40.4141 65.2578C40.4141 66.5859 40.5833 67.6797 40.9219 68.5391C41.2344 69.3724 41.6641 69.9974 42.2109 70.4141C42.7578 70.8047 43.3828 71 44.0859 71C44.9713 71 45.7656 70.6615 46.4687 69.9844C47.1719 69.2812 47.9401 68.1224 48.7734 66.5078C49.5807 64.8672 50.6354 62.6406 51.9375 59.8281C53.1875 57.0417 54.5417 54.6719 56 52.7187C57.4323 50.7656 59.1641 49.2812 61.1953 48.2656C63.2005 47.224 65.6875 46.7031 68.6562 46.7031ZM86 3.96875L86 37.875L28.8906 37.875L28.8906 3.96875L41.2734 3.96875L41.2734 22.4453L50.2578 22.4453L50.2578 5.33594L62.6406 5.33593L62.6406 22.4453L73.4219 22.4453L73.4219 3.96875L86 3.96875Z" fill="#8FA8A6" fill-opacity="0.2"/>
</svg>
