<svg width="40" height="41" viewBox="0 0 40 41" fill="none" xmlns="http://www.w3.org/2000/svg">
<g clip-path="url(#clip0_1542_19)">
<path d="M37.1012 23.1145C39.4846 13.0083 33.2241 2.88353 23.1179 0.500118C13.0117 -1.88329 2.88694 4.37724 0.503532 14.4834C-1.87988 24.5896 4.38065 34.7144 14.4868 37.0978C24.593 39.4812 34.7178 33.2207 37.1012 23.1145Z" fill="#F44336"/>
<path d="M0.403149 19.2255C0.402743 15.5315 1.49067 11.9194 3.53105 8.84009C5.57144 5.76082 8.47383 3.35095 11.8757 1.91146C15.2776 0.471976 19.0282 0.0666812 22.6591 0.7462C26.29 1.42572 29.6402 3.15993 32.2913 5.73223C30.5569 3.93823 28.4827 2.50749 26.1896 1.52345C23.8965 0.539401 21.4305 0.021747 18.9353 0.00067061C16.4401 -0.0204058 13.9656 0.455517 11.6562 1.40069C9.34686 2.34585 7.24877 3.74135 5.48432 5.5058C3.71987 7.27025 2.32437 9.36834 1.3792 11.6777C0.434033 13.9871 -0.0418902 16.4615 -0.0208138 18.9568C0.00026264 21.452 0.517916 23.918 1.50196 26.2111C2.48601 28.5042 3.91675 30.5784 5.71075 32.3128C2.30189 28.8099 0.397188 24.1133 0.403149 19.2255Z" fill="#E57373"/>
<path d="M10.1499 27.8408L20.0839 37.5506C24.6519 37.2385 28.9489 35.2698 32.1681 32.014C35.3873 28.7582 37.3074 24.4392 37.5678 19.868L27.6565 9.93402L10.1499 27.8408Z" fill="url(#paint0_linear_1542_19)"/>
<path d="M11.5945 28.3403C11.1318 28.3413 10.6792 28.2049 10.2939 27.9485C9.9087 27.6921 9.60819 27.3272 9.43043 26.9C9.25266 26.4727 9.20564 26.0024 9.2953 25.5484C9.38496 25.0944 9.60728 24.6772 9.93413 24.3497L24.3498 9.934C24.5675 9.71689 24.8258 9.54477 25.11 9.42749C25.3942 9.3102 25.6987 9.25003 26.0061 9.25043C26.3136 9.25082 26.6179 9.31177 26.9018 9.42979C27.1857 9.54781 27.4435 9.72059 27.6607 9.93826C27.8778 10.1559 28.0499 10.4142 28.1672 10.6984C28.2845 10.9826 28.3446 11.2871 28.3442 11.5946C28.3438 11.902 28.2829 12.2064 28.1649 12.4903C28.0469 12.7741 27.8741 13.032 27.6564 13.2491L13.2492 27.6563C13.0322 27.8738 12.7742 28.0462 12.4902 28.1636C12.2062 28.281 11.9018 28.341 11.5945 28.3403Z" fill="white"/>
<path d="M26.0045 28.3403C25.6972 28.341 25.3928 28.281 25.1089 28.1636C24.8249 28.0462 24.5669 27.8738 24.3498 27.6563L9.93414 13.2491C9.49453 12.8095 9.24756 12.2133 9.24756 11.5916C9.24756 10.9699 9.49453 10.3736 9.93414 9.93402C10.3738 9.49441 10.97 9.24744 11.5917 9.24744C12.2134 9.24744 12.8097 9.49441 13.2493 9.93402L27.6564 24.3497C27.9827 24.6768 28.2049 25.0931 28.2948 25.5463C28.3848 25.9995 28.3385 26.4692 28.1617 26.8961C27.985 27.323 27.6858 27.688 27.3019 27.945C26.918 28.202 26.4666 28.3396 26.0045 28.3403Z" fill="white"/>
</g>
<defs>
<linearGradient id="paint0_linear_1542_19" x1="16.6496" y1="16.6381" x2="32.1211" y2="32.1096" gradientUnits="userSpaceOnUse">
<stop stop-color="#B71C1C"/>
<stop offset="1" stop-color="#F44336"/>
</linearGradient>
<clipPath id="clip0_1542_19">
<rect width="40" height="40.8401" fill="white"/>
</clipPath>
</defs>
</svg>
