<svg width="31" height="38" viewBox="0 0 31 38" fill="none" xmlns="http://www.w3.org/2000/svg">
<path d="M20.8498 16.8574V16.235L20.9424 16.1417L29.3174 7.93408C29.5335 7.72363 29.7053 7.47209 29.8228 7.19426C29.9403 6.91643 30.0011 6.61792 30.0016 6.31627C30.0037 6.01534 29.945 5.71708 29.829 5.4394C29.7131 5.16171 29.5422 4.91031 29.3266 4.7003C28.8887 4.27192 28.2992 4.03381 27.6866 4.03774C27.0677 4.03412 26.4725 4.27515 26.0305 4.70833L21.2394 9.41605C19.8575 11.0833 17.5271 12.0799 15.0028 12.0799C12.5328 12.0799 10.2265 11.1166 8.8378 9.50188L3.96953 4.72006C3.52754 4.28786 2.93284 4.04754 2.31466 4.05132C1.70165 4.04671 1.11184 4.28543 0.674616 4.71512L0.617807 4.77131C0.210532 5.20347 -0.0111149 5.77806 0.000429352 6.37178C0.0119736 6.96551 0.255789 7.53105 0.679556 7.94705L9.03416 16.1349L9.16198 16.2584L9.12061 16.4319L5.93375 29.6925H9.16074V35.0387C9.16014 35.3391 9.21995 35.6366 9.33664 35.9135C9.45333 36.1904 9.6245 36.4409 9.83998 36.6503C10.2787 37.0812 10.8691 37.3226 11.484 37.3226C12.099 37.3226 12.6893 37.0812 13.1281 36.6503C13.3449 36.4402 13.5172 36.1887 13.6348 35.9106C13.7525 35.6326 13.813 35.3338 13.8129 35.0319V29.6925H16.1797V35.0171C16.1807 35.3185 16.2424 35.6167 16.3611 35.8938C16.4798 36.1709 16.6531 36.4213 16.8707 36.63C17.3106 37.0614 17.9022 37.3031 18.5185 37.3031C19.1347 37.3031 19.7263 37.0614 20.1662 36.63C20.3824 36.4203 20.5543 36.1694 20.6719 35.8922C20.7895 35.615 20.8504 35.317 20.851 35.0158V29.6925H24.0619L20.8572 16.8944L20.8498 16.8574Z" fill="url(#paint0_linear_1538_46)"/>
<path d="M11.5674 8.92947C12.5614 9.90481 13.8953 10.4561 15.2878 10.467H15.3341C16.0505 10.4688 16.7601 10.3275 17.4212 10.0514C18.0563 9.78747 18.634 9.40265 19.1224 8.91835C19.6089 8.43932 19.9964 7.86926 20.2629 7.24064C20.5347 6.59817 20.6728 5.90706 20.6687 5.20947C20.6647 4.51188 20.5186 3.82242 20.2394 3.18313C19.9692 2.5668 19.5829 2.00829 19.1014 1.53815C18.1077 0.562305 16.7737 0.0107723 15.381 -1.43689e-05H15.3341C14.6179 -0.00176922 13.9085 0.139516 13.2476 0.415555C12.6127 0.679803 12.035 1.06459 11.5464 1.54864C11.0598 2.02779 10.6722 2.59809 10.4059 3.22697C10.1341 3.86934 9.99605 4.56035 10.0001 5.25783C10.0041 5.95532 10.1502 6.64468 10.4294 7.28386C10.6995 7.90039 11.0859 8.4591 11.5674 8.92947Z" fill="url(#paint1_linear_1538_46)"/>
<defs>
<linearGradient id="paint0_linear_1538_46" x1="-6.8649" y1="-8.8097" x2="40.4451" y2="43.9324" gradientUnits="userSpaceOnUse">
<stop stop-color="#FF669F"/>
<stop offset="1" stop-color="#FFADCC"/>
</linearGradient>
<linearGradient id="paint1_linear_1538_46" x1="-1.39549" y1="-13.4174" x2="45.9145" y2="39.3253" gradientUnits="userSpaceOnUse">
<stop stop-color="#FF669F"/>
<stop offset="1" stop-color="#FFADCC"/>
</linearGradient>
</defs>
</svg>
