<svg width="30" height="38" viewBox="0 0 30 38" fill="none" xmlns="http://www.w3.org/2000/svg">
<g filter="url(#filter0_d_1411_9)">
<path d="M20.8483 16.8574V16.235L20.9409 16.1417L29.3159 7.93408C29.532 7.72363 29.7039 7.47209 29.8214 7.19426C29.9389 6.91643 29.9996 6.61792 30.0001 6.31627C30.0022 6.01534 29.9435 5.71708 29.8276 5.4394C29.7116 5.16171 29.5407 4.91031 29.3252 4.7003C28.8872 4.27192 28.2978 4.03381 27.6851 4.03774C27.0663 4.03412 26.471 4.27515 26.029 4.70833L21.2379 9.41605C19.856 11.0833 17.5256 12.0799 15.0013 12.0799C12.5314 12.0799 10.2251 11.1166 8.83633 9.50188L3.96806 4.72006C3.52607 4.28786 2.93137 4.04754 2.3132 4.05132C1.70019 4.04671 1.11038 4.28543 0.673151 4.71512L0.616342 4.77131C0.209067 5.20347 -0.0125797 5.77806 -0.00103549 6.37178C0.0105088 6.96551 0.254324 7.53105 0.678091 7.94705L9.03269 16.1349L9.16051 16.2584L9.11914 16.4319L5.93229 29.6925H9.15928V35.0387C9.15867 35.3391 9.21849 35.6366 9.33518 35.9135C9.45186 36.1904 9.62304 36.4409 9.83851 36.6503C10.2773 37.0812 10.8676 37.3226 11.4826 37.3226C12.0975 37.3226 12.6879 37.0812 13.1266 36.6503C13.3434 36.4402 13.5157 36.1887 13.6334 35.9106C13.751 35.6326 13.8116 35.3338 13.8114 35.0319V29.6925H16.1783V35.0171C16.1792 35.3185 16.2409 35.6167 16.3596 35.8938C16.4783 36.1709 16.6516 36.4213 16.8692 36.63C17.3092 37.0614 17.9008 37.3031 18.517 37.3031C19.1332 37.3031 19.7248 37.0614 20.1648 36.63C20.3809 36.4203 20.5528 36.1694 20.6704 35.8922C20.7881 35.615 20.849 35.317 20.8495 35.0158V29.6925H24.0605L20.8557 16.8944L20.8483 16.8574Z" fill="url(#paint0_linear_1411_9)"/>
<path d="M11.2327 8.92947C12.2267 9.90481 13.5605 10.4561 14.9531 10.467H14.9994C15.7158 10.4688 16.4254 10.3275 17.0865 10.0514C17.7216 9.78747 18.2993 9.40265 18.7877 8.91835C19.2742 8.43932 19.6617 7.86926 19.9282 7.24064C20.2 6.59817 20.3381 5.90706 20.334 5.20947C20.33 4.51188 20.1839 3.82242 19.9047 3.18313C19.6345 2.5668 19.2481 2.00829 18.7667 1.53815C17.773 0.562305 16.439 0.0107723 15.0463 -1.43689e-05H14.9994C14.2832 -0.00176922 13.5738 0.139516 12.9129 0.415555C12.278 0.679803 11.7002 1.06459 11.2117 1.54864C10.7251 2.02779 10.3375 2.59809 10.0712 3.22697C9.79942 3.86934 9.66133 4.56035 9.66537 5.25783C9.6694 5.95532 9.81548 6.64468 10.0947 7.28386C10.3648 7.90039 10.7512 8.4591 11.2327 8.92947Z" fill="url(#paint1_linear_1411_9)"/>
</g>
<defs>
<filter id="filter0_d_1411_9" x="-4.00146" y="-3.05176e-05" width="38.0017" height="45.3226" filterUnits="userSpaceOnUse" color-interpolation-filters="sRGB">
<feFlood flood-opacity="0" result="BackgroundImageFix"/>
<feColorMatrix in="SourceAlpha" type="matrix" values="0 0 0 0 0 0 0 0 0 0 0 0 0 0 0 0 0 0 127 0" result="hardAlpha"/>
<feOffset dy="4"/>
<feGaussianBlur stdDeviation="2"/>
<feComposite in2="hardAlpha" operator="out"/>
<feColorMatrix type="matrix" values="0 0 0 0 0 0 0 0 0 0 0 0 0 0 0 0 0 0 0.25 0"/>
<feBlend mode="normal" in2="BackgroundImageFix" result="effect1_dropShadow_1411_9"/>
<feBlend mode="normal" in="SourceGraphic" in2="effect1_dropShadow_1411_9" result="shape"/>
</filter>
<linearGradient id="paint0_linear_1411_9" x1="-6.86637" y1="-8.8097" x2="40.4437" y2="43.9324" gradientUnits="userSpaceOnUse">
<stop stop-color="#FF669F"/>
<stop offset="1" stop-color="#FFADCC"/>
</linearGradient>
<linearGradient id="paint1_linear_1411_9" x1="-1.7302" y1="-13.4174" x2="45.5798" y2="39.3253" gradientUnits="userSpaceOnUse">
<stop stop-color="#FF669F"/>
<stop offset="1" stop-color="#FFADCC"/>
</linearGradient>
</defs>
</svg>
