<svg width="34" height="34" viewBox="0 0 34 34" fill="none" xmlns="http://www.w3.org/2000/svg">
<g filter="url(#filter0_dd_1225_129)">
<rect x="2" y="2" width="30" height="30" rx="15" fill="#F1F1F1"/>
</g>
<path d="M12.3723 3.80655V11.5363L6.03136 8.35348C7.67404 6.26865 9.87246 4.69223 12.3723 3.80655Z" fill="#04247B"/>
<path d="M28.0123 8.35348L21.6714 11.5363V3.80655C24.1731 4.68862 26.3724 6.26572 28.0123 8.35348Z" fill="#04247B"/>
<path d="M12.3723 22.449V30.1934C9.87143 29.3023 7.67319 27.7209 6.03136 25.6318L12.3723 22.449Z" fill="#04247B"/>
<path d="M28.0123 25.6465C26.3733 27.7385 24.1741 29.3205 21.6714 30.2081V22.449L28.0123 25.6465Z" fill="#04247B"/>
<path d="M30.9997 17.0073C31.0037 17.9483 30.9104 18.8871 30.7215 19.8088C30.5885 20.4348 30.4174 21.052 30.2089 21.6569H26.2989L29.5206 23.2704C29.1171 24.1117 28.6262 24.9081 28.0562 25.6465L21.6713 22.449V30.1934C21.0674 30.4022 20.4511 30.5737 19.8262 30.7068C17.9799 31.0782 16.0784 31.0782 14.2321 30.7068C13.6023 30.5737 12.9812 30.4022 12.3723 30.1934V22.449L6.03135 25.6465C5.84098 25.3972 5.6506 25.1331 5.47487 24.8691L11.889 21.6569H7.68614L4.523 23.2557C3.95872 22.168 3.54489 21.0084 3.29289 19.8088C3.0991 18.8876 3.00095 17.9488 3 17.0073C2.99936 16.0658 3.09752 15.1268 3.29289 14.2058C3.41015 13.5714 3.58163 12.9481 3.80543 12.3431H7.68614L4.523 10.715C4.93871 9.88038 5.42885 9.0851 5.98742 8.33884L12.3723 11.5364V3.80657C12.9788 3.58624 13.6003 3.40977 14.2321 3.27854C16.0784 2.90715 17.9799 2.90715 19.8262 3.27854C20.4531 3.40976 21.0698 3.58623 21.6713 3.80657V11.5364L28.0123 8.3535L28.5688 9.11621L22.14 12.3431H26.3136L29.5206 10.715C30.0703 11.8164 30.474 12.985 30.7215 14.1912C30.9128 15.1175 31.0061 16.0614 30.9997 17.0073Z" fill="white"/>
<path d="M7.68614 12.343H3.84937C4.04308 11.7881 4.26799 11.2445 4.523 10.715L7.68614 12.343Z" fill="#CE152A"/>
<path d="M30.2089 21.6569C30.0124 22.2082 29.7825 22.747 29.5206 23.2704L26.2989 21.6569H30.2089Z" fill="#CE152A"/>
<path d="M29.5206 10.715L26.3135 12.3284H22.14L28.5688 9.10156C28.9224 9.61697 29.2405 10.156 29.5206 10.715Z" fill="#CE152A"/>
<path d="M11.889 21.6569L5.47487 24.8691C5.12118 24.3537 4.80314 23.8146 4.52299 23.2557L7.68614 21.6569H11.889Z" fill="#CE152A"/>
<path d="M30.9997 17.0073C31.0037 17.9483 30.9104 18.8871 30.7215 19.8088H19.8262V30.7215C17.9799 31.0928 16.0784 31.0928 14.2321 30.7215V19.8088H3.29289C3.0991 18.8876 3.00095 17.9488 3 17.0073C2.99936 16.0658 3.09752 15.1268 3.29289 14.2058H14.2321V3.27854C16.0784 2.90715 17.9799 2.90715 19.8262 3.27854V14.2058H30.7215C30.9118 15.1274 31.005 16.0663 30.9997 17.0073Z" fill="#CE152A"/>
<defs>
<filter id="filter0_dd_1225_129" x="0" y="0" width="34" height="34" filterUnits="userSpaceOnUse" color-interpolation-filters="sRGB">
<feFlood flood-opacity="0" result="BackgroundImageFix"/>
<feColorMatrix in="SourceAlpha" type="matrix" values="0 0 0 0 0 0 0 0 0 0 0 0 0 0 0 0 0 0 127 0" result="hardAlpha"/>
<feOffset dx="1" dy="1"/>
<feGaussianBlur stdDeviation="0.5"/>
<feComposite in2="hardAlpha" operator="out"/>
<feColorMatrix type="matrix" values="0 0 0 0 0 0 0 0 0 0 0 0 0 0 0 0 0 0 0.5 0"/>
<feBlend mode="normal" in2="BackgroundImageFix" result="effect1_dropShadow_1225_129"/>
<feColorMatrix in="SourceAlpha" type="matrix" values="0 0 0 0 0 0 0 0 0 0 0 0 0 0 0 0 0 0 127 0" result="hardAlpha"/>
<feOffset dx="-1" dy="-1"/>
<feGaussianBlur stdDeviation="0.5"/>
<feComposite in2="hardAlpha" operator="out"/>
<feColorMatrix type="matrix" values="0 0 0 0 1 0 0 0 0 1 0 0 0 0 1 0 0 0 1 0"/>
<feBlend mode="normal" in2="effect1_dropShadow_1225_129" result="effect2_dropShadow_1225_129"/>
<feBlend mode="normal" in="SourceGraphic" in2="effect2_dropShadow_1225_129" result="shape"/>
</filter>
</defs>
</svg>
