<svg width="34" height="34" viewBox="0 0 34 34" fill="none" xmlns="http://www.w3.org/2000/svg">
<g filter="url(#filter0_dd_1225_141)">
<rect x="2" y="2" width="30" height="30" rx="15" fill="#F1F1F1"/>
</g>
<path d="M30.207 12.3536H3.79233C4.7778 9.61249 6.57393 7.24445 8.93678 5.57105C11.2996 3.89765 14.1147 3 16.9997 3C19.8847 3 22.6997 3.89765 25.0626 5.57105C27.4254 7.24445 29.2216 9.61249 30.207 12.3536V12.3536Z" fill="#06B8E3"/>
<path d="M30.207 21.6464C29.2216 24.3875 27.4254 26.7556 25.0626 28.429C22.6997 30.1024 19.8847 31 16.9997 31C14.1147 31 11.2996 30.1024 8.93678 28.429C6.57393 26.7556 4.7778 24.3875 3.79233 21.6464H30.207Z" fill="#3D9B37"/>
<path d="M30.9996 16.9466C31.012 18.5482 30.7437 20.1393 30.2072 21.6464H3.79244C3.28137 20.1327 3.01383 18.5459 3 16.9466C3.00795 15.3859 3.2575 13.8361 3.73961 12.3535H30.1543C30.6967 13.8236 30.9827 15.3777 30.9996 16.9466V16.9466Z" fill="#EC2938"/>
<path d="M16.4715 20.4715C16.0136 20.4715 15.5602 20.3803 15.1371 20.2032C14.7141 20.026 14.3297 19.7664 14.006 19.4391C13.6822 19.1117 13.4254 18.7232 13.2501 18.2955C13.0749 17.8678 12.9847 17.4095 12.9847 16.9466C12.9847 16.4837 13.0749 16.0253 13.2501 15.5977C13.4254 15.17 13.6822 14.7815 14.006 14.4541C14.3297 14.1268 14.7141 13.8672 15.1371 13.69C15.5602 13.5129 16.0136 13.4217 16.4715 13.4217C17.4233 13.4241 18.3354 13.8083 19.0073 14.4899C18.4908 13.747 17.7537 13.1897 16.9028 12.899C16.0519 12.6082 15.1315 12.5991 14.2751 12.8729C13.4187 13.1467 12.6709 13.6892 12.1401 14.4217C11.6093 15.1542 11.3231 16.0386 11.3231 16.9466C11.3231 17.8546 11.6093 18.739 12.1401 19.4715C12.6709 20.204 13.4187 20.7465 14.2751 21.0203C15.1315 21.2941 16.0519 21.285 16.9028 20.9942C17.7537 20.7035 18.4908 20.1462 19.0073 19.4033C18.3354 20.0849 17.4233 20.4691 16.4715 20.4715Z" fill="white"/>
<path d="M20.2223 14.5433L20.6978 15.8251L21.9128 15.2376L21.3317 16.4659L22.5996 16.9466L21.3317 17.3739L21.9128 18.6556L20.6978 18.0682L20.2223 19.3499L19.7997 18.0682L18.5846 18.6556L19.1129 17.3739L17.8978 16.9466L19.1129 16.4659L18.5846 15.2376L19.7997 15.8251L20.2223 14.5433Z" fill="white"/>
<defs>
<filter id="filter0_dd_1225_141" x="0" y="0" width="34" height="34" filterUnits="userSpaceOnUse" color-interpolation-filters="sRGB">
<feFlood flood-opacity="0" result="BackgroundImageFix"/>
<feColorMatrix in="SourceAlpha" type="matrix" values="0 0 0 0 0 0 0 0 0 0 0 0 0 0 0 0 0 0 127 0" result="hardAlpha"/>
<feOffset dx="1" dy="1"/>
<feGaussianBlur stdDeviation="0.5"/>
<feComposite in2="hardAlpha" operator="out"/>
<feColorMatrix type="matrix" values="0 0 0 0 0 0 0 0 0 0 0 0 0 0 0 0 0 0 0.5 0"/>
<feBlend mode="normal" in2="BackgroundImageFix" result="effect1_dropShadow_1225_141"/>
<feColorMatrix in="SourceAlpha" type="matrix" values="0 0 0 0 0 0 0 0 0 0 0 0 0 0 0 0 0 0 127 0" result="hardAlpha"/>
<feOffset dx="-1" dy="-1"/>
<feGaussianBlur stdDeviation="0.5"/>
<feComposite in2="hardAlpha" operator="out"/>
<feColorMatrix type="matrix" values="0 0 0 0 1 0 0 0 0 1 0 0 0 0 1 0 0 0 1 0"/>
<feBlend mode="normal" in2="effect1_dropShadow_1225_141" result="effect2_dropShadow_1225_141"/>
<feBlend mode="normal" in="SourceGraphic" in2="effect2_dropShadow_1225_141" result="shape"/>
</filter>
</defs>
</svg>
