<svg width="150" height="150" viewBox="0 0 150 158" fill="none" xmlns="http://www.w3.org/2000/svg">
<path fill-rule="evenodd" clip-rule="evenodd" d="M84.7085 2.50245C79.5811 3.20392 68.6677 2.8256 66.6207 2.54974C64.6486 3.17634 67.4095 3.65318 63.2681 4.35466C60.172 4.94185 59.8722 4.60687 57.6359 4.94579C55.2931 5.33987 55.5652 5.33987 49.1205 7.98814C47.8702 8.50045 44.2297 10.1556 43.4054 10.2817C44.3401 9.37926 48.3868 7.78321 47.1996 7.62558C36.0101 12.2837 30.9143 16.8117 33.8724 15.4285C34.6257 15.058 35.6551 14.6403 35.6236 14.928C31.991 18.3329 25.8145 22.2147 16.4353 33.8087C16.0409 33.4146 15.6464 33.0205 14.7353 33.6708C11.1856 38.3998 10.7636 39.0579 9.07155 42.0057C9.02816 42.585 8.33793 44.185 8.90195 43.9761C9.92743 42.6835 13.3155 37.186 14.4514 36.788C13.9938 39.7318 9.80122 44.9613 6.25542 52.6776C5.17078 55.5071 6.37375 54.6125 6.04638 56.382C5.43898 57.781 5.40349 57.8637 5.32066 58.0962C3.18293 63.7277 3.54974 62.4312 3.15532 65.3514C2.76091 68.709 1.9918 72.1573 1.03337 80.6814C0.658673 80.7838 0.157766 80.1848 0 81.572C0.528516 89.4852 2.07462 85.6468 2.96995 86.3641C3.47085 86.7582 3.69173 88.1887 3.92049 89.3158C3.8416 89.5168 3.86132 90.0527 4.0112 91.0577C3.69961 92.7049 2.50059 86.8212 2.96206 91.1995C3.13954 94.1631 4.1453 96.8822 4.42139 97.8635C6.39347 104.713 5.86495 106.553 8.08945 110.939C9.36736 113.414 10.0615 113.93 11.1067 115.381C14.9089 120.689 13.3549 121.343 27.6722 136.405C29.2498 137.777 28.5557 136.133 30.7999 138.092C37.15 145.063 48.0082 148.933 53.0054 151.128C57.2967 152.799 57.9593 152.519 65.7174 153.414C66.0685 154.202 69.4762 155.093 73.2311 155.554C72.4422 155.731 70.7857 155.7 71.4286 156.208C75.4516 156.681 76.5008 157.359 81.92 157.158C81.8372 155.31 92.8374 154.75 106.374 149.702C109.801 148.437 112.31 147.27 113.134 146.9C112.633 148.429 106.153 150.986 104.638 151.554C100.777 152.858 101.877 152.508 98.0161 153.603C95.2276 154.462 89.0708 155.4 93.2831 155.968C103.297 153.78 112.609 149.335 121.243 143.617C124.004 141.942 124.963 142.194 128.698 138.916C128.126 139.097 125.684 140.342 124.572 140.681C122.529 141.308 125.692 138.667 126.588 137.769C127.332 137.108 128.136 136.517 128.99 136.003C134.555 132.709 139.639 123.53 141.631 117.379C145.101 112.118 147.547 108.669 149.886 103.456C149.637 102.896 150.106 100.535 149.491 100.662C148.919 101.426 147.227 106.711 146.49 106.738C146.608 104.697 149.085 97.5443 150 90.5335C148.28 93.6862 148.158 91.5936 144.478 102.557C143.875 103.479 141.95 106.596 141.922 104.981C143.07 101.599 144.167 99.5502 144.447 97.6192C144.017 96.4369 142.534 99.1955 142.652 97.1581C143.587 94.234 144.344 92.7365 145.271 87.6015C145.547 85.9779 145.271 80.6853 143.816 80.6538C143.985 83.8819 143.806 87.1189 143.283 90.3089C143.263 90.498 142.459 95.7118 140.368 99.7354C139.757 100.827 138.708 102.289 138.108 101.194C137.379 102.533 135.324 107.802 134.33 108.149C135.908 104.118 137.694 96.8389 138.621 94.6596C139.236 94.3286 138.72 96.63 139.327 96.299C141.745 90.2419 140.794 83.834 139.583 86.2695C138.795 91.3572 137.58 96.3975 135.016 100.851C133.943 101.521 135.979 96.701 135.249 96.6419C133.553 103.207 129.333 110.794 124.994 116.192C122.43 119.345 122.111 119.842 116.92 125.186C115.871 126.935 119.496 123.609 119.338 124.819C119.236 124.941 117.78 126.49 117.429 126.841C116.786 127.232 116.116 127.58 115.426 127.881C113.339 128.784 113.753 128.389 111.659 129.509C108.504 131.065 97.0656 138.99 89.2167 138.328C82.0956 139.764 74.7781 139.944 67.5949 138.86C64.6446 137.52 57.6517 136.299 54.3267 133.781C46.9393 131.318 46.7855 129.58 43.8392 128.102C40.893 126.624 40.0883 126.131 36.7398 122.628C34.2068 119.966 31.8734 117.12 29.7586 114.116C18.9753 98.5768 16.2893 81.0715 20.5096 65.5918C22.5448 57.9859 25.4398 49.5446 30.1688 43.251C34.8545 37.2451 43.5158 30.4471 49.8541 26.8334C52.6088 25.2955 55.4434 23.9051 58.3458 22.6679C64.0964 20.6974 68.5375 19.7831 70.4228 19.59C74.4892 19.0226 78.2717 19.0738 80.6066 19.8698C88.0295 19.7595 93.9378 19.7398 100.635 23.2787C100.217 23.9683 95.3932 21.9664 90.3329 21.0521C95.7877 23.192 109.762 25.9664 119.571 36.319C119.93 36.2402 121.981 38.5023 121.937 37.8638C122.663 38.4077 122.466 37.9584 121.957 37.2136C121.492 36.5436 120.884 35.7082 121.149 35.6372C127.321 40.5082 131.214 46.7071 134.866 53.6667C134.957 53.8559 137.174 58.443 137.888 60.2164C138.262 58.3485 137.3 55.2628 136.724 53.517C135.292 49.2608 134.555 50.4313 133.174 47.2116C133.356 46.1318 134.878 48.5199 135.178 47.7397C134.815 47.0646 134.533 46.349 134.338 45.6076C131.936 41.4934 130.035 40.9692 129.475 38.8806C133.513 43.1328 137.588 47.7042 139.682 53.9347C142.206 56.9613 144.021 63.2076 145.003 66.8883C146.166 71.3021 147.01 79.7277 147.152 80.6814C147.988 71.7001 144.249 60.0667 143.63 57.4027C144.959 59.5189 146.391 63.0657 147.472 66.9396C148.553 70.8134 149.203 74.9907 149.736 78.2341C150.856 73.2292 147.823 62.3524 146.77 58.0214C147.768 59.5977 148.517 61.9622 149.211 62.4903C148.873 60.5446 148.377 58.6296 147.728 56.7642C145.657 49.9387 140.648 42.2421 141.812 41.8875C143.563 44.1101 145.224 47.7988 146.545 50.9199C146.73 49.8598 145.164 44.1495 139.422 36.2481C139.449 37.0087 141.658 40.2362 140.999 40.3821C138.787 37.1269 136.621 34.786 136.065 33.4264C134.918 31.6924 137.489 34.1082 136.215 32.1851C133.628 28.7644 131.959 27.2984 129.648 25.2176C128.09 23.7752 121.886 19.2275 120.048 18.0176C117.24 16.0866 112.211 11.4088 99.9921 7.23543C92.8098 4.77239 89.7847 4.43347 86.4716 3.03841C86.9804 3.03841 87.5089 3.03841 88.2267 2.99506C91.3031 2.78225 87.6193 1.56846 90.3763 1.12315C87.4379 0.72906 86.5386 0.275861 83.0283 0C80.3818 0.68177 85.3514 1.59999 84.7085 2.50245ZM55.6125 6.87681C60.3455 6.52607 48.375 11.0305 46.963 11.4955C46.5055 11.0029 48.726 9.76547 49.2388 9.52507C51.3015 8.50042 53.4309 7.61566 55.6125 6.87681ZM35.9707 17.06C38.6211 15.2196 39.3192 15.1132 40.605 14.4945C40.1317 16.1339 38.909 17.1704 35.5999 19.5861C33.6002 20.2245 36.0338 17.8245 35.9707 17.06ZM3.01728 74.5691C3.21054 74.8292 3.30914 73.7809 3.47874 73.7336C3.94021 74.1277 3.83371 76.5316 3.82977 79.8183C3.672 81.0873 3.54974 81.635 3.4038 81.8242C2.92656 82.439 2.29944 79.042 3.01728 74.5691ZM7.96324 106.577C8.06579 105.962 8.43259 105.99 8.91773 106.411C9.87221 107.239 9.87221 107.885 10.8543 110.443C11.2251 111.467 12.0375 113.812 11.1501 114.226C10.1877 112.918 7.74237 108.181 7.96324 106.577ZM51.5264 13.395C51.2069 13.5487 50.2248 14.0019 50.0907 14.2778C44.0601 17.2728 42.7152 16.9221 44.1508 15.527C45.4879 14.8255 50.8164 12.0669 51.5264 13.395ZM37.8205 19.795L38.1873 20.3428C36.6412 21.6078 35.9746 22.0413 33.3912 23.7201C32.4919 23.7477 35.1029 21.2097 37.8205 19.795ZM7.97902 64.0903C7.91985 65.643 7.19019 69.4341 6.6104 68.9533C6.70848 67.8188 6.89442 66.6936 7.16652 65.5878C7.43078 64.7011 7.71476 64.1258 7.97902 64.0903ZM142.08 53.7692C141.421 53.58 140.215 51.251 139.229 49.0401C139.915 48.8116 141.816 53.1978 142.072 53.7692H142.08ZM132.559 39.4047C132.299 40.2914 130.946 38.4313 130.094 37.4067C129.672 36.2047 130.63 36.7998 132.559 39.4047ZM68.0524 16.6383C68.6558 17.2768 60.9884 18.8413 60.1641 18.8807C58.1289 18.3487 66.2972 16.1103 68.0524 16.6383ZM115.051 30.7663C114.404 30.7112 106.543 25.8915 105.191 25.2097C104.421 23.5033 113.229 27.7476 115.051 30.7663ZM123.898 119.629C124.237 118.671 127.637 114.297 128.193 113.426C128.331 113.221 130.788 109.619 131.431 108.543C131.77 107.984 132.22 107.203 132.677 106.573C132.701 108.189 130.54 111.696 129.471 113.146C127.799 115.46 125.935 117.629 123.898 119.629Z" fill="#3CCF4E"/>
</svg>
