<svg width="130" height="137" viewBox="0 0 130 137" fill="none" xmlns="http://www.w3.org/2000/svg">
<path fill-rule="evenodd" clip-rule="evenodd" d="M73.4141 2.16879C68.9703 2.77673 59.512 2.44885 57.7379 2.20977C56.0288 2.75283 58.4216 3.16609 54.8324 3.77404C52.149 4.28293 51.8892 3.99262 49.9511 4.28635C47.9206 4.62789 48.1565 4.62789 42.5711 6.92305C41.4875 7.36705 38.3324 8.80153 37.618 8.91082C38.4281 8.12869 41.9353 6.74545 40.9064 6.60883C31.2087 10.6459 26.7924 14.5702 29.3561 13.3714C30.0089 13.0503 30.9011 12.6883 30.8738 12.9376C27.7255 15.8885 22.3725 19.2527 14.2439 29.3009C13.9021 28.9593 13.5603 28.6178 12.7706 29.1813C9.6942 33.2798 9.32844 33.8502 7.86201 36.4049C7.82441 36.907 7.22621 38.2937 7.71502 38.1126C8.60377 36.9924 11.5401 32.2279 12.5245 31.8829C12.128 34.4342 8.49439 38.9665 5.42137 45.6539C4.48134 48.1061 5.52391 47.3309 5.2402 48.8644C4.71379 50.0769 4.68302 50.1486 4.61124 50.3501C2.75854 55.2307 3.07644 54.107 2.73461 56.6379C2.39278 59.5478 1.72622 62.5363 0.895585 69.9238C0.57085 70.0126 0.136731 69.4935 0 70.6957C0.458047 77.5539 1.79801 74.2273 2.57395 74.8489C3.00807 75.1904 3.19949 76.4302 3.39775 77.407C3.32939 77.5812 3.34648 78.0457 3.47637 78.9166C3.20633 80.3443 2.16718 75.2451 2.56712 79.0396C2.72094 81.608 3.5926 83.9646 3.83187 84.8151C5.54101 90.751 5.08296 92.346 7.01086 96.1474C8.11838 98.2923 8.71999 98.7397 9.62583 99.9966C12.921 104.597 11.5742 105.164 23.9825 118.218C25.3498 119.406 24.7482 117.982 26.6932 119.68C32.1966 125.722 41.6071 129.075 45.938 130.978C49.6571 132.426 50.2314 132.183 56.9551 132.959C57.2593 133.642 60.2127 134.414 63.4669 134.813C62.7833 134.967 61.3476 134.94 61.9048 135.38C65.3914 135.79 66.3007 136.378 70.9973 136.203C70.9256 134.602 80.4591 134.117 92.1906 129.741C95.1611 128.645 97.3351 127.634 98.0495 127.313C97.6154 128.638 91.9992 130.855 90.6865 131.347C87.3401 132.477 88.2938 132.173 84.9473 133.123C82.5306 133.867 77.1946 134.68 80.8454 135.172C89.5243 133.276 97.5949 129.424 105.077 124.468C107.47 123.016 108.301 123.235 111.538 120.393C111.042 120.551 108.926 121.63 107.962 121.924C106.192 122.467 108.933 120.178 109.709 119.4C110.355 118.827 111.051 118.315 111.791 117.869C116.614 115.014 121.02 107.06 122.746 101.728C125.755 97.1686 127.874 94.1801 129.901 89.6615C129.686 89.1765 130.092 87.1307 129.559 87.24C129.063 87.9026 127.597 92.4827 126.958 92.5066C127.06 90.7374 129.207 84.5384 130 78.4624C128.51 81.1947 128.404 79.3811 125.214 88.8828C124.691 89.682 123.023 92.3836 122.999 90.9833C123.994 88.0529 124.944 86.2769 125.187 84.6033C124.814 83.5787 123.529 85.9695 123.632 84.2037C124.442 81.6695 125.098 80.3716 125.901 75.9213C126.141 74.5142 125.902 69.9273 124.64 69.8999C124.787 72.6976 124.632 75.503 124.179 78.2677C124.162 78.4316 123.464 82.9502 121.653 86.4374C121.123 87.3834 120.214 88.6506 119.694 87.7011C119.062 88.8623 117.281 93.4287 116.419 93.7293C117.787 90.2353 119.335 83.927 120.138 82.0383C120.672 81.7514 120.224 83.746 120.75 83.4591C122.846 78.2096 122.022 72.6562 120.972 74.7669C120.289 79.1762 119.236 83.5445 117.014 87.4039C116.084 87.9846 117.848 83.8075 117.216 83.7563C115.746 89.4464 112.088 96.021 108.328 100.7C106.106 103.432 105.829 103.863 101.331 108.494C100.422 110.011 103.563 107.128 103.426 108.176C103.338 108.282 102.076 109.625 101.772 109.929C101.214 110.268 100.634 110.569 100.035 110.83C98.2272 111.612 98.5862 111.271 96.7711 112.241C94.0364 113.59 84.1235 120.458 77.3211 119.885C71.1495 121.129 64.8076 121.285 58.5822 120.346C56.0253 119.184 49.9648 118.126 47.0832 115.943C40.6808 113.809 40.5474 112.302 37.994 111.022C35.4406 109.741 34.7432 109.314 31.8411 106.278C29.6459 103.97 27.6236 101.504 25.7908 98.9002C16.4453 85.4332 14.1174 70.262 17.775 56.8462C19.5388 50.2544 22.0478 42.9386 26.1463 37.4842C30.2072 32.2791 37.7137 26.3875 43.2069 23.2556C45.5943 21.9228 48.0509 20.7177 50.5664 19.6455C55.5502 17.9378 59.3992 17.1454 61.0331 16.978C64.5573 16.4862 67.8354 16.5306 69.8591 17.2205C76.2922 17.1249 81.4128 17.1078 87.217 20.1749C86.8547 20.7726 82.6741 19.0375 78.2885 18.2452C83.016 20.0997 95.1269 22.5042 103.628 31.4765C103.939 31.4082 105.717 33.3686 105.679 32.8153C106.308 33.2867 106.137 32.8973 105.696 32.2518C105.293 31.6712 104.766 30.9471 104.995 30.8856C110.345 35.1071 113.719 40.4795 116.884 46.5112C116.963 46.6751 118.884 50.6506 119.503 52.1876C119.827 50.5687 118.993 47.8944 118.494 46.3814C117.253 42.6927 116.614 43.7071 115.418 40.9167C115.575 39.9809 116.894 42.0506 117.154 41.3744C116.839 40.7894 116.595 40.1691 116.426 39.5266C114.344 35.9609 112.697 35.5067 112.211 33.6965C115.712 37.3817 119.243 41.3436 121.058 46.7434C123.246 49.3664 124.818 54.7799 125.669 57.9699C126.677 61.7951 127.409 69.0973 127.532 69.9238C128.257 62.1401 125.016 52.0578 124.479 49.749C125.631 51.583 126.872 54.6569 127.809 58.0143C128.745 61.3716 129.31 64.992 129.771 67.8029C130.742 63.4653 128.113 54.0387 127.2 50.2852C128.065 51.6514 128.715 53.7006 129.316 54.1583C129.023 52.472 128.593 50.8123 128.031 49.1957C126.236 43.2802 121.895 36.6099 122.904 36.3025C124.421 38.2288 125.86 41.4256 127.006 44.1306C127.166 43.2119 125.809 38.2629 120.832 31.415C120.856 32.0742 122.77 34.8714 122.2 34.9978C120.282 32.1766 118.405 30.1479 117.923 28.9696C116.929 27.4668 119.157 29.5604 118.053 27.8937C115.811 24.9291 114.365 23.6586 112.362 21.8553C111.012 20.6052 105.635 16.6638 104.042 15.6153C101.608 13.9417 97.2496 9.88763 86.6598 6.27071C80.4352 4.13607 77.8134 3.84234 74.942 2.63329C75.383 2.63329 75.841 2.63329 76.4631 2.59572C79.1294 2.41128 75.9367 1.35934 78.3261 0.973394C75.7795 0.631852 75.0001 0.239079 71.9579 0C69.6642 0.590867 73.9712 1.38666 73.4141 2.16879ZM48.1975 5.9599C52.2994 5.65593 41.925 9.55975 40.7013 9.96277C40.3048 9.53584 42.2292 8.4634 42.6736 8.25506C44.4613 7.36703 46.3068 6.60024 48.1975 5.9599ZM31.1746 14.7853C33.4716 13.1903 34.0767 13.0981 35.191 12.5619C34.7808 13.9827 33.7212 14.881 30.8533 16.9746C29.1202 17.5279 31.2293 15.4479 31.1746 14.7853ZM2.61497 64.6265C2.78247 64.8519 2.86792 63.9434 3.01491 63.9025C3.41485 64.244 3.32255 66.3274 3.31913 69.1759C3.1824 70.2756 3.07644 70.7504 2.94996 70.9143C2.53635 71.4471 1.99285 68.503 2.61497 64.6265ZM6.90147 92.3665C6.99035 91.8337 7.30825 91.8576 7.72869 92.2231C8.55591 92.9403 8.55591 93.5005 9.40706 95.7171C9.72838 96.6051 10.4325 98.6372 9.66343 98.9959C8.82938 97.8619 6.71005 93.7566 6.90147 92.3665ZM44.6562 11.609C44.3793 11.7422 43.5282 12.135 43.412 12.3741C38.1854 14.9698 37.0198 14.6658 38.264 13.4567C39.4228 12.8488 44.0409 10.458 44.6562 11.609ZM32.7777 17.1556L33.0956 17.6304C31.7557 18.7267 31.178 19.1024 28.939 20.5574C28.1597 20.5813 30.4226 18.3818 32.7777 17.1556ZM6.91515 55.5449C6.86387 56.8906 6.23149 60.1762 5.72901 59.7596C5.81402 58.7763 5.97516 57.8011 6.21099 56.8428C6.44001 56.0743 6.68612 55.5757 6.91515 55.5449ZM123.136 46.6C122.565 46.436 121.519 44.4175 120.665 42.5014C121.259 42.3034 122.907 46.1047 123.129 46.6H123.136ZM114.884 34.1508C114.659 34.9192 113.486 33.3071 112.748 32.4191C112.382 31.3774 113.213 31.8932 114.884 34.1508ZM58.9787 14.4199C59.5017 14.9732 52.8566 16.3291 52.1422 16.3633C50.3784 15.9022 57.4576 13.9622 58.9787 14.4199ZM99.7108 26.6642C99.1502 26.6163 92.3376 22.4393 91.1651 21.8484C90.4985 20.3695 98.1315 24.048 99.7108 26.6642ZM107.378 103.678C107.672 102.848 110.618 99.0573 111.1 98.3025C111.22 98.1249 113.35 95.0032 113.907 94.0708C114.201 93.5858 114.59 92.9096 114.987 92.3631C115.007 93.7634 113.134 96.8032 112.208 98.06C110.759 100.065 109.143 101.945 107.378 103.678Z" fill="#3CCF4E"/>
</svg>
