<svg width="1076" height="498" viewBox="0 0 1076 498" fill="none" xmlns="http://www.w3.org/2000/svg">
<path d="M102.207 233H53.9893V93.9619H10.4102V54.5332H145.664V93.9619H102.207V233ZM277.134 233H171.177V54.5332H277.134V93.2295H219.395V121.306H272.861V160.002H219.395V193.693H277.134V233ZM387.852 91.5205C382.155 91.5205 377.069 92.7412 372.593 95.1826C368.117 97.5426 364.292 101.001 361.118 105.559C357.944 110.116 355.503 115.69 353.794 122.282C352.166 128.793 351.353 136.198 351.353 144.499C351.353 155.729 352.777 165.17 355.625 172.819C358.473 180.469 362.786 186.247 368.564 190.153C374.424 194.06 381.748 196.013 390.537 196.013C398.512 196.013 406.162 194.914 413.486 192.717C420.892 190.52 428.338 187.875 435.825 184.782V225.554C427.931 229.053 419.834 231.576 411.533 233.122C403.314 234.668 394.565 235.441 385.288 235.441C365.92 235.441 350.05 231.617 337.681 223.967C325.392 216.236 316.318 205.534 310.459 191.862C304.681 178.19 301.792 162.321 301.792 144.255C301.792 130.746 303.664 118.376 307.407 107.146C311.232 95.915 316.807 86.1901 324.131 77.9707C331.455 69.6699 340.488 63.2816 351.23 58.8057C362.054 54.2484 374.424 51.9697 388.34 51.9697C396.966 51.9697 406.04 52.987 415.562 55.0215C425.164 56.9746 434.523 60.1484 443.638 64.543L428.867 102.507C422.357 99.4144 415.765 96.8102 409.092 94.6943C402.419 92.5785 395.339 91.5205 387.852 91.5205ZM623.691 233H575.229V160.246H519.199V233H470.737V54.5332H519.199V120.695H575.229V54.5332H623.691V233ZM832.31 233H769.077L703.892 107.268H702.793C703.2 111.092 703.566 115.69 703.892 121.062C704.217 126.433 704.502 131.926 704.746 137.541C704.99 143.075 705.112 148.08 705.112 152.556V233H662.388V54.5332H725.376L790.317 178.557H791.05C790.806 174.65 790.562 170.134 790.317 165.007C790.073 159.799 789.829 154.549 789.585 149.26C789.422 143.97 789.341 139.291 789.341 135.222V54.5332H832.31V233ZM1037.88 143.522C1037.88 157.276 1036.21 169.808 1032.87 181.12C1029.62 192.351 1024.49 202.035 1017.49 210.173C1010.49 218.311 1001.5 224.577 990.513 228.972C979.526 233.285 966.383 235.441 951.084 235.441C936.11 235.441 923.13 233.285 912.144 228.972C901.239 224.577 892.246 218.352 885.166 210.295C878.086 202.157 872.837 192.432 869.419 181.12C866.001 169.808 864.292 157.194 864.292 143.278C864.292 124.724 867.344 108.61 873.447 94.9385C879.632 81.1852 889.154 70.5651 902.012 63.0781C914.87 55.5098 931.309 51.7256 951.328 51.7256C971.673 51.7256 988.193 55.5098 1000.89 63.0781C1013.67 70.6465 1023.02 81.3073 1028.96 95.0605C1034.91 108.814 1037.88 124.968 1037.88 143.522ZM915.073 143.522C915.073 154.265 916.294 163.501 918.735 171.232C921.177 178.964 925.042 184.904 930.332 189.055C935.622 193.205 942.539 195.28 951.084 195.28C959.954 195.28 966.994 193.205 972.202 189.055C977.492 184.904 981.276 178.964 983.555 171.232C985.915 163.501 987.095 154.265 987.095 143.522C987.095 127.409 984.409 114.673 979.038 105.314C973.667 95.9557 964.43 91.2764 951.328 91.2764C942.62 91.2764 935.581 93.3923 930.21 97.624C924.92 101.856 921.055 107.878 918.613 115.69C916.253 123.503 915.073 132.78 915.073 143.522Z" fill="white" fill-opacity="0.15"/>
<path d="M367.887 464V285.533H416.104V425.06H484.83V464H367.887ZM680.387 374.522C680.387 388.276 678.718 400.808 675.382 412.12C672.127 423.351 667 433.035 660.001 441.173C653.002 449.311 644.01 455.577 633.023 459.972C622.037 464.285 608.894 466.441 593.595 466.441C578.621 466.441 565.641 464.285 554.654 459.972C543.749 455.577 534.757 449.352 527.677 441.295C520.597 433.157 515.348 423.432 511.93 412.12C508.512 400.808 506.803 388.194 506.803 374.278C506.803 355.724 509.854 339.61 515.958 325.938C522.143 312.185 531.664 301.565 544.522 294.078C557.381 286.51 573.819 282.726 593.839 282.726C614.184 282.726 630.704 286.51 643.399 294.078C656.176 301.646 665.535 312.307 671.476 326.061C677.416 339.814 680.387 355.968 680.387 374.522ZM557.584 374.522C557.584 385.265 558.805 394.501 561.246 402.232C563.688 409.964 567.553 415.904 572.843 420.055C578.132 424.205 585.05 426.28 593.595 426.28C602.465 426.28 609.505 424.205 614.713 420.055C620.003 415.904 623.787 409.964 626.065 402.232C628.425 394.501 629.605 385.265 629.605 374.522C629.605 358.409 626.92 345.673 621.549 336.314C616.178 326.956 606.941 322.276 593.839 322.276C585.131 322.276 578.092 324.392 572.721 328.624C567.431 332.856 563.565 338.878 561.124 346.69C558.764 354.503 557.584 363.78 557.584 374.522ZM784.269 359.508H861.295V455.699C852.099 458.873 841.56 461.477 829.679 463.512C817.797 465.465 805.346 466.441 792.325 466.441C775.154 466.441 760.099 463.105 747.159 456.432C734.22 449.758 724.129 439.627 716.886 426.036C709.643 412.364 706.021 395.112 706.021 374.278C706.021 355.561 709.602 339.407 716.764 325.816C723.925 312.145 734.464 301.606 748.38 294.2C762.377 286.713 779.508 282.97 799.771 282.97C810.921 282.97 821.5 284.028 831.51 286.144C841.52 288.259 850.227 290.945 857.633 294.2L842.374 332.042C835.945 328.868 829.272 326.508 822.354 324.962C815.437 323.334 807.991 322.521 800.016 322.521C789.355 322.521 780.769 324.921 774.259 329.723C767.83 334.524 763.15 340.953 760.221 349.01C757.291 356.985 755.826 365.815 755.826 375.499C755.826 386.567 757.372 395.925 760.465 403.575C763.639 411.144 768.237 416.922 774.259 420.909C780.362 424.815 787.727 426.769 796.354 426.769C799.202 426.769 802.66 426.565 806.729 426.158C810.88 425.751 814.013 425.263 816.129 424.693V396.739H784.269V359.508ZM961.393 351.695L992.154 285.533H1044.4L985.685 394.298V464H937.101V395.763L878.385 285.533H930.875L961.393 351.695Z" fill="white" fill-opacity="0.15"/>
</svg>
