<svg width="20" height="19" viewBox="0 0 20 19" fill="none" xmlns="http://www.w3.org/2000/svg">
<path d="M19.6909 8.39106L10.6542 0.250238C10.4773 0.0892296 10.2467 0 10.0075 0C9.7683 0 9.53771 0.0892296 9.36082 0.250238L0.325328 8.39106C0.178271 8.52073 0.0744062 8.69229 0.0276813 8.8827C-0.0190437 9.07311 -0.00639228 9.27326 0.0639368 9.45627C0.134266 9.63929 0.258906 9.7964 0.42112 9.90652C0.583335 10.0166 0.775358 10.0745 0.971406 10.0723H2.81717V17.7988C2.81638 17.9255 2.84065 18.0511 2.88857 18.1683C2.9365 18.2856 3.00714 18.3922 3.09643 18.482C3.18572 18.5719 3.29189 18.6432 3.40884 18.6918C3.52579 18.7405 3.65121 18.7655 3.77788 18.7655H6.32377C6.45044 18.7655 6.57586 18.7405 6.69281 18.6918C6.80976 18.6432 6.91594 18.5719 7.00522 18.482C7.09451 18.3922 7.16515 18.2856 7.21308 18.1683C7.26101 18.0511 7.28527 17.9255 7.28448 17.7988V12.683C7.28448 12.4282 7.3857 12.1839 7.56586 12.0037C7.74603 11.8235 7.99039 11.7223 8.24519 11.7223H11.7602C12.015 11.7223 12.2593 11.8235 12.4395 12.0037C12.6197 12.1839 12.7209 12.4282 12.7209 12.683V17.8012C12.7209 18.0566 12.8219 18.3016 13.0019 18.4827C13.1819 18.6638 13.4263 18.7664 13.6816 18.7679H16.2227C16.3494 18.7679 16.4748 18.7429 16.5917 18.6942C16.7087 18.6456 16.8149 18.5743 16.9042 18.4844C16.9934 18.3946 17.0641 18.288 17.112 18.1707C17.1599 18.0535 17.1842 17.9279 17.1834 17.8012V10.0747H19.004C19.2024 10.0767 19.3969 10.0189 19.562 9.90877C19.7272 9.79867 19.8553 9.64141 19.9298 9.45745C20.0031 9.27647 20.0194 9.07748 19.9767 8.88697C19.9341 8.69646 19.8343 8.52348 19.6909 8.39106V8.39106Z" fill="white"/>
</svg>
