<svg width="21" height="24" viewBox="0 0 21 24" fill="none" xmlns="http://www.w3.org/2000/svg">
<path d="M19.0818 0H3.94616C3.70222 0 3.46827 0.0969069 3.29577 0.269402C3.12327 0.441898 3.02637 0.675852 3.02637 0.919797V6.32528C3.03594 6.56302 3.13711 6.78783 3.3087 6.95265C3.48028 7.11747 3.70898 7.20952 3.94691 7.20952C4.18484 7.20952 4.41354 7.11747 4.58512 6.95265C4.75671 6.78783 4.85788 6.56302 4.86745 6.32528V1.83959H18.1605V21.1866H4.86745V16.6965C4.85788 16.4588 4.75671 16.2339 4.58512 16.0691C4.41354 15.9043 4.18484 15.8122 3.94691 15.8122C3.70898 15.8122 3.48028 15.9043 3.3087 16.0691C3.13711 16.2339 3.03594 16.4588 3.02637 16.6965V22.1005C3.02637 22.3446 3.12323 22.5787 3.29568 22.7514C3.46813 22.9241 3.70208 23.0214 3.94616 23.0218H19.0818C19.3259 23.0214 19.5599 22.9241 19.7323 22.7514C19.9048 22.5787 20.0016 22.3446 20.0016 22.1005V0.919797C20.0016 0.675852 19.9047 0.441898 19.7322 0.269402C19.5597 0.0969069 19.3258 0 19.0818 0V0Z" fill="white"/>
<path d="M9.52892 14.1413C9.44179 14.2264 9.37241 14.3279 9.32481 14.44C9.27721 14.5521 9.25234 14.6725 9.25164 14.7942C9.25094 14.916 9.27443 15.0367 9.32074 15.1493C9.36704 15.2619 9.43525 15.3642 9.5214 15.4503C9.60755 15.5363 9.70994 15.6044 9.82261 15.6506C9.93528 15.6968 10.056 15.7201 10.1778 15.7193C10.2995 15.7185 10.4199 15.6934 10.5319 15.6457C10.644 15.598 10.7454 15.5285 10.8304 15.4413L14.11 12.1616C14.1315 12.1403 14.1519 12.1179 14.1711 12.0945C14.1801 12.0841 14.1875 12.0722 14.195 12.0617C14.2058 12.0489 14.2157 12.0355 14.2248 12.0215C14.2336 12.0091 14.2416 11.9962 14.2487 11.9827L14.271 11.9454C14.271 11.932 14.2844 11.9171 14.2904 11.9037L14.3098 11.8634C14.3098 11.85 14.3187 11.8366 14.3247 11.8217C14.3306 11.8068 14.3351 11.7934 14.3396 11.7785C14.3439 11.7648 14.3474 11.7509 14.35 11.7367C14.3549 11.7216 14.3589 11.7061 14.362 11.6905C14.362 11.6756 14.362 11.6592 14.362 11.6428C14.362 11.6264 14.362 11.616 14.362 11.6026V11.5146V11.4267C14.362 11.4132 14.362 11.3983 14.362 11.3849C14.362 11.3715 14.362 11.3536 14.362 11.3372C14.362 11.3208 14.362 11.3074 14.35 11.291C14.3473 11.2774 14.3438 11.264 14.3396 11.2507L14.3247 11.206C14.3247 11.1926 14.3143 11.1792 14.3098 11.1658L14.2904 11.1255C14.2904 11.1121 14.2785 11.0972 14.271 11.0838L14.2487 11.0465C14.2487 11.0331 14.2338 11.0197 14.2248 11.0063C14.2157 10.9927 14.2057 10.9798 14.195 10.9675C14.1879 10.956 14.1799 10.945 14.1711 10.9347C14.1518 10.9109 14.1309 10.8885 14.11 10.8661L10.8304 7.58646C10.6578 7.41388 10.4237 7.31693 10.1796 7.31693C9.93557 7.31693 9.7015 7.41388 9.52892 7.58646C9.35634 7.75904 9.25939 7.99311 9.25939 8.23718C9.25939 8.48125 9.35634 8.71531 9.52892 8.8879L11.2388 10.5918H0.919797C0.675852 10.5918 0.441898 10.6887 0.269402 10.8612C0.0969069 11.0337 0 11.2677 0 11.5116C0 11.7556 0.0969069 11.9895 0.269402 12.162C0.441898 12.3345 0.675852 12.4314 0.919797 12.4314H11.2388L9.52892 14.1413Z" fill="white"/>
</svg>
