<svg width="46" height="46" viewBox="0 0 46 46" fill="none" xmlns="http://www.w3.org/2000/svg">
<g filter="url(#filter0_ddd_1247_86)">
<rect x="3" y="3" width="35" height="35" rx="17.5" fill="#F9F9F9"/>
</g>
<path d="M25.2186 14.9593C25.0173 14.9593 24.8206 15.0165 24.6534 15.1238C24.4861 15.231 24.3559 15.3834 24.279 15.5616C24.2022 15.7398 24.1824 15.9359 24.2219 16.125C24.2615 16.3141 24.3587 16.4876 24.5013 16.6237C24.6439 16.7598 24.8254 16.8522 25.0229 16.8893C25.2204 16.9265 25.4249 16.9066 25.6105 16.8322C25.7962 16.7579 25.9546 16.6324 26.0658 16.4716C26.177 16.3109 26.2359 16.1222 26.235 15.9293C26.235 15.8016 26.2087 15.6751 26.1576 15.5572C26.1064 15.4392 26.0315 15.3321 25.9371 15.242C25.8426 15.1518 25.7305 15.0805 25.6072 15.032C25.4839 14.9834 25.3518 14.9588 25.2186 14.9593Z" fill="#626262"/>
<path d="M20.7108 16.2047C19.8673 16.2039 19.0424 16.4429 18.3407 16.8915C17.639 17.3402 17.0919 17.9782 16.7687 18.7249C16.4455 19.4716 16.3607 20.2934 16.525 21.0863C16.6894 21.8793 17.0955 22.6076 17.692 23.1792C18.2885 23.7509 19.0485 24.1401 19.8759 24.2976C20.7033 24.4551 21.5608 24.3738 22.34 24.0641C23.1192 23.7544 23.7849 23.2301 24.2531 22.5576C24.7212 21.8851 24.9706 21.0946 24.9698 20.2862C24.9686 19.204 24.5195 18.1665 23.7211 17.4014C22.9226 16.6362 21.84 16.2058 20.7108 16.2047ZM20.7108 22.9003C20.1713 22.9003 19.6439 22.747 19.1954 22.4597C18.7468 22.1725 18.3972 21.7642 18.1907 21.2866C17.9842 20.8089 17.9302 20.2833 18.0355 19.7762C18.1407 19.2691 18.4005 18.8033 18.782 18.4377C19.1635 18.0721 19.6495 17.8232 20.1787 17.7223C20.7078 17.6214 21.2563 17.6732 21.7547 17.8711C22.2531 18.0689 22.6792 18.404 22.9789 18.8339C23.2786 19.2638 23.4386 19.7692 23.4386 20.2862C23.4386 20.9795 23.1512 21.6444 22.6397 22.1346C22.1281 22.6249 21.4343 22.9003 20.7108 22.9003Z" fill="#626262"/>
<path d="M24.0948 28.5766H17.1853C15.8093 28.5723 14.491 28.0456 13.5192 27.112C12.5474 26.1783 12.0011 24.9137 12 23.595V16.9775C12.0011 15.6591 12.5475 14.395 13.5195 13.462C14.4914 12.529 15.8097 12.0033 17.1853 12H24.0948C25.472 12.0011 26.7924 12.5259 27.7663 13.4591C28.7401 14.3923 29.2876 15.6577 29.2888 16.9775V23.595C29.2876 24.9152 28.7402 26.181 27.7665 27.1149C26.7928 28.0488 25.4724 28.5744 24.0948 28.5766ZM17.1853 13.5578C16.2393 13.5589 15.3323 13.9195 14.6634 14.5606C13.9944 15.2017 13.6181 16.0709 13.6169 16.9775V23.595C13.6181 24.5016 13.9944 25.3708 14.6634 26.0119C15.3323 26.653 16.2393 27.0136 17.1853 27.0147H24.0948C25.0409 27.0136 25.9479 26.653 26.6168 26.0119C27.2858 25.3708 27.6621 24.5016 27.6633 23.595V16.9775C27.6621 16.0709 27.2858 15.2017 26.6168 14.5606C25.9479 13.9195 25.0409 13.5589 24.0948 13.5578H17.1853Z" fill="#626262"/>
<defs>
<filter id="filter0_ddd_1247_86" x="0.5" y="0.5" width="45.5" height="45.5" filterUnits="userSpaceOnUse" color-interpolation-filters="sRGB">
<feFlood flood-opacity="0" result="BackgroundImageFix"/>
<feColorMatrix in="SourceAlpha" type="matrix" values="0 0 0 0 0 0 0 0 0 0 0 0 0 0 0 0 0 0 127 0" result="hardAlpha"/>
<feOffset dx="3" dy="3"/>
<feGaussianBlur stdDeviation="2.5"/>
<feComposite in2="hardAlpha" operator="out"/>
<feColorMatrix type="matrix" values="0 0 0 0 0 0 0 0 0 0 0 0 0 0 0 0 0 0 0.25 0"/>
<feBlend mode="normal" in2="BackgroundImageFix" result="effect1_dropShadow_1247_86"/>
<feColorMatrix in="SourceAlpha" type="matrix" values="0 0 0 0 0 0 0 0 0 0 0 0 0 0 0 0 0 0 127 0" result="hardAlpha"/>
<feOffset dx="0.5" dy="0.5"/>
<feGaussianBlur stdDeviation="1"/>
<feComposite in2="hardAlpha" operator="out"/>
<feColorMatrix type="matrix" values="0 0 0 0 0 0 0 0 0 0 0 0 0 0 0 0 0 0 0.25 0"/>
<feBlend mode="normal" in2="effect1_dropShadow_1247_86" result="effect2_dropShadow_1247_86"/>
<feColorMatrix in="SourceAlpha" type="matrix" values="0 0 0 0 0 0 0 0 0 0 0 0 0 0 0 0 0 0 127 0" result="hardAlpha"/>
<feOffset dx="-0.5" dy="-0.5"/>
<feGaussianBlur stdDeviation="1"/>
<feComposite in2="hardAlpha" operator="out"/>
<feColorMatrix type="matrix" values="0 0 0 0 1 0 0 0 0 1 0 0 0 0 1 0 0 0 1 0"/>
<feBlend mode="normal" in2="effect2_dropShadow_1247_86" result="effect3_dropShadow_1247_86"/>
<feBlend mode="normal" in="SourceGraphic" in2="effect3_dropShadow_1247_86" result="shape"/>
</filter>
</defs>
</svg>
