<svg width="35" height="35" viewBox="0 0 35 35" fill="none" xmlns="http://www.w3.org/2000/svg">
<rect wi  dth="35" height="35" rx="17.5" fill="#F9F9F9"/>
<path d="M22.2186 11.9593C22.0174 11.9593 21.8207 12.0165 21.6535 12.1238C21.4862 12.231 21.3559 12.3834 21.2791 12.5616C21.2023 12.7398 21.1824 12.9359 21.222 13.125C21.2616 13.3141 21.3588 13.4876 21.5014 13.6237C21.644 13.7598 21.8255 13.8522 22.023 13.8893C22.2204 13.9265 22.4249 13.9066 22.6106 13.8322C22.7963 13.7579 22.9547 13.6324 23.0659 13.4716C23.1771 13.3109 23.236 13.1222 23.2351 12.9293C23.2351 12.8016 23.2088 12.6751 23.1576 12.5572C23.1065 12.4392 23.0316 12.3321 22.9371 12.242C22.8427 12.1518 22.7306 12.0805 22.6073 12.032C22.484 11.9834 22.3519 11.9588 22.2186 11.9593Z" fill="#626262"/>
<path d="M17.7109 13.2047C16.8673 13.2039 16.0425 13.4429 15.3407 13.8915C14.639 14.3402 14.0919 14.9782 13.7687 15.7249C13.4455 16.4716 13.3607 17.2934 13.5251 18.0863C13.6894 18.8793 14.0955 19.6076 14.692 20.1792C15.2885 20.7509 16.0485 21.1401 16.8759 21.2976C17.7033 21.4551 18.5608 21.3738 19.34 21.0641C20.1192 20.7544 20.785 20.2301 21.2531 19.5576C21.7212 18.8851 21.9706 18.0946 21.9698 17.2862C21.9687 16.204 21.5196 15.1665 20.7211 14.4014C19.9227 13.6362 18.8401 13.2058 17.7109 13.2047ZM17.7109 19.9003C17.1714 19.9003 16.644 19.747 16.1954 19.4597C15.7468 19.1725 15.3972 18.7642 15.1907 18.2866C14.9843 17.8089 14.9303 17.2833 15.0355 16.7762C15.1408 16.2691 15.4006 15.8033 15.782 15.4377C16.1635 15.0721 16.6496 14.8232 17.1787 14.7223C17.7078 14.6214 18.2563 14.6732 18.7547 14.8711C19.2532 15.0689 19.6792 15.404 19.9789 15.8339C20.2787 16.2638 20.4386 16.7692 20.4386 17.2862C20.4386 17.9795 20.1513 18.6444 19.6397 19.1346C19.1281 19.6249 18.4343 19.9003 17.7109 19.9003Z" fill="#626262"/>
<path d="M21.0948 25.5766H14.1853C12.8093 25.5723 11.491 25.0456 10.5192 24.112C9.54739 23.1783 9.00113 21.9137 9 20.595V13.9775C9.00113 12.6591 9.54753 11.395 10.5195 10.462C11.4914 9.52899 12.8097 9.00326 14.1853 9H21.0948C22.472 9.00109 23.7924 9.52585 24.7663 10.4591C25.7401 11.3923 26.2876 12.6577 26.2888 13.9775V20.595C26.2876 21.9152 25.7402 23.181 24.7665 24.1149C23.7928 25.0488 22.4724 25.5744 21.0948 25.5766ZM14.1853 10.5578C13.2393 10.5589 12.3323 10.9195 11.6634 11.5606C10.9944 12.2017 10.6181 13.0709 10.6169 13.9775V20.595C10.6181 21.5016 10.9944 22.3708 11.6634 23.0119C12.3323 23.653 13.2393 24.0136 14.1853 24.0147H21.0948C22.0409 24.0136 22.9479 23.653 23.6168 23.0119C24.2858 22.3708 24.6621 21.5016 24.6633 20.595V13.9775C24.6621 13.0709 24.2858 12.2017 23.6168 11.5606C22.9479 10.9195 22.0409 10.5589 21.0948 10.5578H14.1853Z" fill="#626262"/>
</svg>
