<svg width="54" height="54" viewBox="0 0 54 54" fill="none" xmlns="http://www.w3.org/2000/svg">
<path d="M1.85156 26V8.86719H6.48047V22.2617H13.0781V26H1.85156ZM20.1562 12.7227V26H15.5742V12.7227H20.1562ZM17.8828 7.37891C18.5391 7.37891 19.1094 7.51563 19.5938 7.78906C20.0859 8.0625 20.332 8.60547 20.332 9.41797C20.332 10.207 20.0859 10.7422 19.5938 11.0234C19.1094 11.2969 18.5391 11.4336 17.8828 11.4336C17.2109 11.4336 16.6367 11.2969 16.1602 11.0234C15.6914 10.7422 15.457 10.207 15.457 9.41797C15.457 8.60547 15.6914 8.0625 16.1602 7.78906C16.6367 7.51563 17.2109 7.37891 17.8828 7.37891ZM31.6641 12.4883C33.0312 12.4883 34.1484 12.875 35.0156 13.6484C35.8828 14.4219 36.3164 15.6602 36.3164 17.3633V26H31.7344V18.7578C31.7344 17.875 31.6055 17.2109 31.3477 16.7656C31.0977 16.3125 30.6914 16.0859 30.1289 16.0859C29.2617 16.0859 28.6797 16.4414 28.3828 17.1523C28.0859 17.8555 27.9375 18.8672 27.9375 20.1875V26H23.3555V12.7227H26.8125L27.4336 14.4805H27.6094C27.8906 14.0586 28.2266 13.6992 28.6172 13.4023C29.0078 13.1055 29.457 12.8789 29.9648 12.7227C30.4727 12.5664 31.0391 12.4883 31.6641 12.4883ZM44.0391 7.76562V14.9375C44.0391 15.4766 44.0156 16.0781 43.9688 16.7422C43.9297 17.3984 43.8672 17.9961 43.7812 18.5352H43.875C44.0547 18.2617 44.2812 17.918 44.5547 17.5039C44.8281 17.0898 45.0742 16.7461 45.293 16.4727L48.2695 12.7227H53.3789L48.7734 18.3711L53.6719 26H48.4336L45.5273 21.2422L44.0391 22.3789V26H39.4336V7.76562H44.0391Z" fill="#003865"/>
<path d="M21.8906 30.1562V43.9062C21.8906 45.8229 21.526 47.4896 20.7969 48.9062C20.0677 50.3125 18.974 51.401 17.5156 52.1719C16.0573 52.9323 14.2292 53.3125 12.0312 53.3125C8.88542 53.3125 6.48438 52.5052 4.82812 50.8906C3.17188 49.276 2.34375 46.9948 2.34375 44.0469V30.1562H8.54688V43.5625C8.54688 45.1771 8.84896 46.349 9.45312 47.0781C10.0573 47.8073 10.9479 48.1719 12.125 48.1719C12.9688 48.1719 13.6562 48.0156 14.1875 47.7031C14.7188 47.3802 15.1042 46.875 15.3438 46.1875C15.5938 45.5 15.7188 44.6146 15.7188 43.5312V30.1562H21.8906ZM34.5938 30.1562C37.4896 30.1562 39.6562 30.7865 41.0938 32.0469C42.5417 33.3073 43.2656 35.099 43.2656 37.4219C43.2656 38.4635 43.1146 39.4635 42.8125 40.4219C42.5208 41.3802 42.0365 42.2344 41.3594 42.9844C40.6927 43.7344 39.8021 44.3281 38.6875 44.7656C37.5833 45.2031 36.2188 45.4219 34.5938 45.4219H32.8594V53H26.6875V30.1562H34.5938ZM34.4531 35.1406H32.8594V40.3906H34.0781C34.6094 40.3906 35.1042 40.3021 35.5625 40.125C36.0208 39.9375 36.3854 39.6406 36.6562 39.2344C36.9375 38.8177 37.0781 38.2656 37.0781 37.5781C37.0781 36.8594 36.8646 36.276 36.4375 35.8281C36.0104 35.3698 35.349 35.1406 34.4531 35.1406Z" fill="#003865"/>
<path d="M45.7812 50.4062C45.7812 49.3021 46.1042 48.526 46.75 48.0781C47.4062 47.6302 48.1927 47.4062 49.1094 47.4062C49.974 47.4062 50.724 47.6302 51.3594 48.0781C51.9948 48.526 52.3125 49.3021 52.3125 50.4062C52.3125 51.4583 51.9948 52.2188 51.3594 52.6875C50.724 53.1562 49.974 53.3906 49.1094 53.3906C48.1927 53.3906 47.4062 53.1562 46.75 52.6875C46.1042 52.2188 45.7812 51.4583 45.7812 50.4062Z" fill="#EF5B0C"/>
</svg>
