<svg width="30" height="38" viewBox="0 0 30 38" fill="none" xmlns="http://www.w3.org/2000/svg">
<path d="M30.0001 6.3164C30.0023 6.01551 29.9438 5.71726 29.8279 5.43957C29.712 5.16187 29.5412 4.91045 29.3258 4.7004C28.8877 4.27208 28.2983 4.03396 27.6857 4.03783C27.0668 4.03421 26.4716 4.27524 26.0296 4.70843L21.2384 9.41625C19.8564 11.0835 17.526 12.0801 15.0016 12.0801C12.5316 12.0801 10.2253 11.1168 8.83651 9.50208L3.96815 4.72016C3.52614 4.28795 2.93143 4.04763 2.31324 4.05141C1.70022 4.0468 1.1104 4.28553 0.673165 4.71522L0.616355 4.77142C0.209071 5.20359 -0.01258 5.77819 -0.00103548 6.37192C0.010509 6.96566 0.254329 7.53121 0.678105 7.94722L9.05573 16.1538L9.15144 16.247V35.0394C9.15156 35.3401 9.21207 35.6377 9.32939 35.9145C9.44671 36.1914 9.61844 36.4419 9.83439 36.6511C10.2731 37.0816 10.8632 37.3228 11.4779 37.3228C12.0925 37.3228 12.6826 37.0816 13.1213 36.6511C13.3371 36.4405 13.5085 36.1888 13.6251 35.9108C13.7418 35.6327 13.8015 35.3341 13.8006 35.0326V26.6649C13.8019 26.5248 13.8325 26.3865 13.8904 26.2589C13.9482 26.1313 14.032 26.0172 14.1365 25.9239C14.3718 25.7249 14.6707 25.6169 14.9788 25.6195C15.2903 25.6181 15.5911 25.7325 15.8229 25.9406C15.9344 26.0352 16.0245 26.1524 16.0873 26.2846C16.15 26.4167 16.1838 26.5606 16.1866 26.7069V35.0178C16.1865 35.3189 16.2472 35.617 16.365 35.8941C16.4827 36.1712 16.6552 36.4218 16.872 36.6307C17.3128 37.0643 17.9068 37.3064 18.5251 37.3044C19.1385 37.3054 19.7274 37.0636 20.1633 36.6319C20.3787 36.422 20.5498 36.1709 20.6665 35.8937C20.7831 35.6164 20.843 35.3186 20.8426 35.0178V16.2353L20.9395 16.1421L29.3147 7.93425C29.5309 7.72385 29.703 7.47235 29.8207 7.19452C29.9384 6.91669 29.9994 6.61814 30.0001 6.3164V6.3164Z" fill="url(#paint0_linear_1412_10)"/>
<path d="M11.233 8.92965C12.227 9.90501 13.5609 10.4563 14.9534 10.4672H14.9997C15.7162 10.469 16.4258 10.3277 17.0869 10.0517C17.722 9.78767 18.2997 9.40284 18.7881 8.91854C19.2746 8.4395 19.6622 7.86943 19.9286 7.24079C20.2004 6.5983 20.3385 5.90719 20.3345 5.20958C20.3305 4.51197 20.1844 3.8225 19.9052 3.1832C19.635 2.56685 19.2486 2.00833 18.7671 1.53818C17.7734 0.562316 16.4394 0.0107725 15.0467 -1.43686e-05H14.9997C14.2835 -0.00176926 13.5741 0.139519 12.9132 0.415563C12.2783 0.679817 11.7005 1.06462 11.212 1.54868C10.7253 2.02783 10.3378 2.59814 10.0715 3.22704C9.79967 3.86942 9.66158 4.56044 9.66561 5.25794C9.66965 5.95545 9.81572 6.64482 10.0949 7.28402C10.3651 7.90055 10.7515 8.45927 11.233 8.92965V8.92965Z" fill="url(#paint1_linear_1412_10)"/>
<defs>
<linearGradient id="paint0_linear_1412_10" x1="-7.9249" y1="-8.70182" x2="40.555" y2="43.0786" gradientUnits="userSpaceOnUse">
<stop stop-color="#09A2E2"/>
<stop offset="1" stop-color="#58C7F5"/>
</linearGradient>
<linearGradient id="paint1_linear_1412_10" x1="-2.66138" y1="-13.6301" x2="45.8185" y2="38.1504" gradientUnits="userSpaceOnUse">
<stop stop-color="#09A2E2"/>
<stop offset="1" stop-color="#58C7F5"/>
</linearGradient>
</defs>
</svg>
