<svg width="70" height="70" viewBox="0 0 70 70" fill="none" xmlns="http://www.w3.org/2000/svg">
<g filter="url(#filter0_d_1814_2)">
<rect x="6" y="6" width="56" height="56" rx="28" fill="white"/>
</g>
<path d="M21.8945 39L19.4277 31.8457H19.375C19.3867 32.0059 19.4004 32.2246 19.416 32.502C19.4316 32.7793 19.4453 33.0762 19.457 33.3926C19.4688 33.709 19.4746 34.0117 19.4746 34.3008V39H18.1973V30.4336H20.1719L22.5449 37.2715H22.5801L25.0352 30.4336H27.0039V39H25.6621V34.2305C25.6621 33.9688 25.666 33.6855 25.6738 33.3809C25.6855 33.0762 25.6973 32.7871 25.709 32.5137C25.7246 32.2402 25.7363 32.0215 25.7441 31.8574H25.6973L23.1367 39H21.8945ZM34.7734 32.5137V39H33.6895L33.502 38.127H33.4258C33.2891 38.3496 33.1152 38.5352 32.9043 38.6836C32.6934 38.8281 32.459 38.9355 32.2012 39.0059C31.9434 39.0801 31.6719 39.1172 31.3867 39.1172C30.8984 39.1172 30.4805 39.0352 30.1328 38.8711C29.7891 38.7031 29.5254 38.4453 29.3418 38.0977C29.1582 37.75 29.0664 37.3008 29.0664 36.75V32.5137H30.4492V36.4922C30.4492 36.9961 30.5508 37.373 30.7539 37.623C30.9609 37.873 31.2812 37.998 31.7148 37.998C32.1328 37.998 32.4648 37.9121 32.7109 37.7402C32.957 37.5684 33.1309 37.3145 33.2324 36.9785C33.3379 36.6426 33.3906 36.2305 33.3906 35.7422V32.5137H34.7734ZM41.1074 37.1484C41.1074 37.5742 41.0039 37.9336 40.7969 38.2266C40.5898 38.5195 40.2871 38.7422 39.8887 38.8945C39.4941 39.043 39.0098 39.1172 38.4355 39.1172C37.9824 39.1172 37.5918 39.084 37.2637 39.0176C36.9395 38.9551 36.6328 38.8574 36.3438 38.7246V37.5352C36.6523 37.6797 36.998 37.8047 37.3809 37.9102C37.7676 38.0156 38.1328 38.0684 38.4766 38.0684C38.9297 38.0684 39.2559 37.998 39.4551 37.8574C39.6543 37.7129 39.7539 37.5215 39.7539 37.2832C39.7539 37.1426 39.7129 37.0176 39.6309 36.9082C39.5527 36.7949 39.4043 36.6797 39.1855 36.5625C38.9707 36.4414 38.6543 36.2969 38.2363 36.1289C37.8262 35.9648 37.4805 35.8008 37.1992 35.6367C36.918 35.4727 36.7051 35.2754 36.5605 35.0449C36.416 34.8105 36.3438 34.5117 36.3438 34.1484C36.3438 33.5742 36.5703 33.1387 37.0234 32.8418C37.4805 32.541 38.084 32.3906 38.834 32.3906C39.2324 32.3906 39.6074 32.4316 39.959 32.5137C40.3145 32.5918 40.6621 32.707 41.002 32.8594L40.5684 33.8965C40.2754 33.7676 39.9805 33.6621 39.6836 33.5801C39.3906 33.4941 39.0918 33.4512 38.7871 33.4512C38.4316 33.4512 38.1602 33.5059 37.9727 33.6152C37.7891 33.7246 37.6973 33.8809 37.6973 34.084C37.6973 34.2363 37.7422 34.3652 37.832 34.4707C37.9219 34.5762 38.0762 34.6816 38.2949 34.7871C38.5176 34.8926 38.8262 35.0234 39.2207 35.1797C39.6074 35.3281 39.9414 35.4844 40.2227 35.6484C40.5078 35.8086 40.7266 36.0059 40.8789 36.2402C41.0312 36.4746 41.1074 36.7773 41.1074 37.1484ZM43.9727 32.5137V39H42.5957V32.5137H43.9727ZM43.293 30.0293C43.5039 30.0293 43.6855 30.0859 43.8379 30.1992C43.9941 30.3125 44.0723 30.5078 44.0723 30.7852C44.0723 31.0586 43.9941 31.2539 43.8379 31.3711C43.6855 31.4844 43.5039 31.541 43.293 31.541C43.0742 31.541 42.8887 31.4844 42.7363 31.3711C42.5879 31.2539 42.5137 31.0586 42.5137 30.7852C42.5137 30.5078 42.5879 30.3125 42.7363 30.1992C42.8887 30.0859 43.0742 30.0293 43.293 30.0293ZM48.5605 39.1172C47.9473 39.1172 47.416 38.998 46.9668 38.7598C46.5176 38.5215 46.1719 38.1562 45.9297 37.6641C45.6875 37.1719 45.5664 36.5469 45.5664 35.7891C45.5664 35 45.6992 34.3555 45.9648 33.8555C46.2305 33.3555 46.5977 32.9863 47.0664 32.748C47.5391 32.5098 48.0801 32.3906 48.6895 32.3906C49.0762 32.3906 49.4258 32.4297 49.7383 32.5078C50.0547 32.582 50.3223 32.6738 50.541 32.7832L50.1309 33.8848C49.8926 33.7871 49.6484 33.7051 49.3984 33.6387C49.1484 33.5723 48.9082 33.5391 48.6777 33.5391C48.2988 33.5391 47.9824 33.623 47.7285 33.791C47.4785 33.959 47.291 34.209 47.166 34.541C47.0449 34.873 46.9844 35.2852 46.9844 35.7773C46.9844 36.2539 47.0469 36.6562 47.1719 36.9844C47.2969 37.3086 47.4824 37.5547 47.7285 37.7227C47.9746 37.8867 48.2773 37.9688 48.6367 37.9688C48.9922 37.9688 49.3105 37.9258 49.5918 37.8398C49.873 37.7539 50.1387 37.6426 50.3887 37.5059V38.7012C50.1426 38.8418 49.8789 38.9453 49.5977 39.0117C49.3164 39.082 48.9707 39.1172 48.5605 39.1172Z" fill="url(#paint0_radial_1814_2)"/>
<circle cx="34" cy="34" r="23.5" stroke="url(#paint1_linear_1814_2)" stroke-width="3"/>
<defs>
<filter id="filter0_d_1814_2" x="0" y="0" width="70" height="70" filterUnits="userSpaceOnUse" color-interpolation-filters="sRGB">
<feFlood flood-opacity="0" result="BackgroundImageFix"/>
<feColorMatrix in="SourceAlpha" type="matrix" values="0 0 0 0 0 0 0 0 0 0 0 0 0 0 0 0 0 0 127 0" result="hardAlpha"/>
<feOffset dx="1" dy="1"/>
<feGaussianBlur stdDeviation="3.5"/>
<feComposite in2="hardAlpha" operator="out"/>
<feColorMatrix type="matrix" values="0 0 0 0 0 0 0 0 0 0 0 0 0 0 0 0 0 0 0.4 0"/>
<feBlend mode="normal" in2="BackgroundImageFix" result="effect1_dropShadow_1814_2"/>
<feBlend mode="normal" in="SourceGraphic" in2="effect1_dropShadow_1814_2" result="shape"/>
</filter>
<radialGradient id="paint0_radial_1814_2" cx="0" cy="0" r="1" gradientUnits="userSpaceOnUse" gradientTransform="translate(34 35) rotate(90) scale(6 21.8781)">
<stop stop-color="#1762A7"/>
<stop offset="1" stop-color="#BC3A80"/>
</radialGradient>
<linearGradient id="paint1_linear_1814_2" x1="34" y1="9" x2="34" y2="59" gradientUnits="userSpaceOnUse">
<stop stop-color="#1762A7"/>
<stop offset="1" stop-color="#BC3A80"/>
</linearGradient>
</defs>
</svg>
