<svg width="70" height="70" viewBox="0 0 70 70" fill="none" xmlns="http://www.w3.org/2000/svg">
<g filter="url(#filter0_dd_1350_2)">
<rect x="7" y="7" width="56" height="56" rx="28" fill="url(#paint0_linear_1350_2)"/>
</g>
<path d="M22.8945 40L20.4277 32.8457H20.375C20.3867 33.0059 20.4004 33.2246 20.416 33.502C20.4316 33.7793 20.4453 34.0762 20.457 34.3926C20.4688 34.709 20.4746 35.0117 20.4746 35.3008V40H19.1973V31.4336H21.1719L23.5449 38.2715H23.5801L26.0352 31.4336H28.0039V40H26.6621V35.2305C26.6621 34.9688 26.666 34.6855 26.6738 34.3809C26.6855 34.0762 26.6973 33.7871 26.709 33.5137C26.7246 33.2402 26.7363 33.0215 26.7441 32.8574H26.6973L24.1367 40H22.8945ZM35.7734 33.5137V40H34.6895L34.502 39.127H34.4258C34.2891 39.3496 34.1152 39.5352 33.9043 39.6836C33.6934 39.8281 33.459 39.9355 33.2012 40.0059C32.9434 40.0801 32.6719 40.1172 32.3867 40.1172C31.8984 40.1172 31.4805 40.0352 31.1328 39.8711C30.7891 39.7031 30.5254 39.4453 30.3418 39.0977C30.1582 38.75 30.0664 38.3008 30.0664 37.75V33.5137H31.4492V37.4922C31.4492 37.9961 31.5508 38.373 31.7539 38.623C31.9609 38.873 32.2812 38.998 32.7148 38.998C33.1328 38.998 33.4648 38.9121 33.7109 38.7402C33.957 38.5684 34.1309 38.3145 34.2324 37.9785C34.3379 37.6426 34.3906 37.2305 34.3906 36.7422V33.5137H35.7734ZM42.1074 38.1484C42.1074 38.5742 42.0039 38.9336 41.7969 39.2266C41.5898 39.5195 41.2871 39.7422 40.8887 39.8945C40.4941 40.043 40.0098 40.1172 39.4355 40.1172C38.9824 40.1172 38.5918 40.084 38.2637 40.0176C37.9395 39.9551 37.6328 39.8574 37.3438 39.7246V38.5352C37.6523 38.6797 37.998 38.8047 38.3809 38.9102C38.7676 39.0156 39.1328 39.0684 39.4766 39.0684C39.9297 39.0684 40.2559 38.998 40.4551 38.8574C40.6543 38.7129 40.7539 38.5215 40.7539 38.2832C40.7539 38.1426 40.7129 38.0176 40.6309 37.9082C40.5527 37.7949 40.4043 37.6797 40.1855 37.5625C39.9707 37.4414 39.6543 37.2969 39.2363 37.1289C38.8262 36.9648 38.4805 36.8008 38.1992 36.6367C37.918 36.4727 37.7051 36.2754 37.5605 36.0449C37.416 35.8105 37.3438 35.5117 37.3438 35.1484C37.3438 34.5742 37.5703 34.1387 38.0234 33.8418C38.4805 33.541 39.084 33.3906 39.834 33.3906C40.2324 33.3906 40.6074 33.4316 40.959 33.5137C41.3145 33.5918 41.6621 33.707 42.002 33.8594L41.5684 34.8965C41.2754 34.7676 40.9805 34.6621 40.6836 34.5801C40.3906 34.4941 40.0918 34.4512 39.7871 34.4512C39.4316 34.4512 39.1602 34.5059 38.9727 34.6152C38.7891 34.7246 38.6973 34.8809 38.6973 35.084C38.6973 35.2363 38.7422 35.3652 38.832 35.4707C38.9219 35.5762 39.0762 35.6816 39.2949 35.7871C39.5176 35.8926 39.8262 36.0234 40.2207 36.1797C40.6074 36.3281 40.9414 36.4844 41.2227 36.6484C41.5078 36.8086 41.7266 37.0059 41.8789 37.2402C42.0312 37.4746 42.1074 37.7773 42.1074 38.1484ZM44.9727 33.5137V40H43.5957V33.5137H44.9727ZM44.293 31.0293C44.5039 31.0293 44.6855 31.0859 44.8379 31.1992C44.9941 31.3125 45.0723 31.5078 45.0723 31.7852C45.0723 32.0586 44.9941 32.2539 44.8379 32.3711C44.6855 32.4844 44.5039 32.541 44.293 32.541C44.0742 32.541 43.8887 32.4844 43.7363 32.3711C43.5879 32.2539 43.5137 32.0586 43.5137 31.7852C43.5137 31.5078 43.5879 31.3125 43.7363 31.1992C43.8887 31.0859 44.0742 31.0293 44.293 31.0293ZM49.5605 40.1172C48.9473 40.1172 48.416 39.998 47.9668 39.7598C47.5176 39.5215 47.1719 39.1562 46.9297 38.6641C46.6875 38.1719 46.5664 37.5469 46.5664 36.7891C46.5664 36 46.6992 35.3555 46.9648 34.8555C47.2305 34.3555 47.5977 33.9863 48.0664 33.748C48.5391 33.5098 49.0801 33.3906 49.6895 33.3906C50.0762 33.3906 50.4258 33.4297 50.7383 33.5078C51.0547 33.582 51.3223 33.6738 51.541 33.7832L51.1309 34.8848C50.8926 34.7871 50.6484 34.7051 50.3984 34.6387C50.1484 34.5723 49.9082 34.5391 49.6777 34.5391C49.2988 34.5391 48.9824 34.623 48.7285 34.791C48.4785 34.959 48.291 35.209 48.166 35.541C48.0449 35.873 47.9844 36.2852 47.9844 36.7773C47.9844 37.2539 48.0469 37.6562 48.1719 37.9844C48.2969 38.3086 48.4824 38.5547 48.7285 38.7227C48.9746 38.8867 49.2773 38.9688 49.6367 38.9688C49.9922 38.9688 50.3105 38.9258 50.5918 38.8398C50.873 38.7539 51.1387 38.6426 51.3887 38.5059V39.7012C51.1426 39.8418 50.8789 39.9453 50.5977 40.0117C50.3164 40.082 49.9707 40.1172 49.5605 40.1172Z" fill="url(#paint1_radial_1350_2)"/>
<circle cx="35" cy="35" r="23.5" stroke="url(#paint2_linear_1350_2)" stroke-width="3"/>
<defs>
<filter id="filter0_dd_1350_2" x="0" y="0" width="70" height="70" filterUnits="userSpaceOnUse" color-interpolation-filters="sRGB">
<feFlood flood-opacity="0" result="BackgroundImageFix"/>
<feColorMatrix in="SourceAlpha" type="matrix" values="0 0 0 0 0 0 0 0 0 0 0 0 0 0 0 0 0 0 127 0" result="hardAlpha"/>
<feOffset dx="2" dy="2"/>
<feGaussianBlur stdDeviation="2.5"/>
<feComposite in2="hardAlpha" operator="out"/>
<feColorMatrix type="matrix" values="0 0 0 0 0 0 0 0 0 0 0 0 0 0 0 0 0 0 0.25 0"/>
<feBlend mode="normal" in2="BackgroundImageFix" result="effect1_dropShadow_1350_2"/>
<feColorMatrix in="SourceAlpha" type="matrix" values="0 0 0 0 0 0 0 0 0 0 0 0 0 0 0 0 0 0 127 0" result="hardAlpha"/>
<feOffset dx="-2" dy="-2"/>
<feGaussianBlur stdDeviation="2.5"/>
<feComposite in2="hardAlpha" operator="out"/>
<feColorMatrix type="matrix" values="0 0 0 0 1 0 0 0 0 1 0 0 0 0 1 0 0 0 0.75 0"/>
<feBlend mode="normal" in2="effect1_dropShadow_1350_2" result="effect2_dropShadow_1350_2"/>
<feBlend mode="normal" in="SourceGraphic" in2="effect2_dropShadow_1350_2" result="shape"/>
</filter>
<linearGradient id="paint0_linear_1350_2" x1="36.8667" y1="7" x2="36.8667" y2="63" gradientUnits="userSpaceOnUse">
<stop stop-color="#EFEFEF"/>
<stop offset="0.5" stop-color="#F8F8F8"/>
<stop offset="1" stop-color="#EFEFEF"/>
</linearGradient>
<radialGradient id="paint1_radial_1350_2" cx="0" cy="0" r="1" gradientUnits="userSpaceOnUse" gradientTransform="translate(35 36) rotate(90) scale(6 21.8781)">
<stop stop-color="#1762A7"/>
<stop offset="1" stop-color="#BC3A80"/>
</radialGradient>
<linearGradient id="paint2_linear_1350_2" x1="35" y1="10" x2="35" y2="60" gradientUnits="userSpaceOnUse">
<stop stop-color="#1762A7"/>
<stop offset="1" stop-color="#BC3A80"/>
</linearGradient>
</defs>
</svg>
