<svg width="20" height="21" viewBox="0 0 20 21" fill="none" xmlns="http://www.w3.org/2000/svg">
<g clip-path="url(#clip0_1398_4)">
<path d="M16.0471 16.0475C19.7182 12.3764 19.7182 6.42442 16.0471 2.75333C12.376 -0.917763 6.42402 -0.917762 2.75293 2.75333C-0.91816 6.42442 -0.91816 12.3764 2.75293 16.0475C6.42402 19.7186 12.376 19.7186 16.0471 16.0475Z" fill="#8BC34A"/>
<path d="M0.201575 9.60193C0.201371 7.75496 0.745336 5.94888 1.76553 4.40924C2.78572 2.86961 4.23692 1.66467 5.93787 0.944928C7.63882 0.225185 9.51412 0.0225374 11.3296 0.362297C13.145 0.702056 14.8201 1.56916 16.1457 2.85531C15.2785 1.95831 14.2414 1.24294 13.0948 0.750919C11.9483 0.258897 10.7152 7.02851e-05 9.46764 -0.0104679C8.22003 -0.0210061 6.9828 0.216955 5.82812 0.68954C4.67343 1.16212 3.62438 1.85987 2.74216 2.7421C1.85993 3.62432 1.16219 4.67337 0.689601 5.82806C0.217016 6.98274 -0.0209451 8.21997 -0.0104069 9.46758C0.00013132 10.7152 0.258958 11.9482 0.75098 13.0948C1.243 14.2413 1.95837 15.2784 2.85537 16.1456C1.15095 14.3941 0.198594 12.0458 0.201575 9.60193Z" fill="#AED581"/>
<path d="M7.50732 14.0169L12.0032 18.4319C13.9619 17.8667 15.6839 16.6802 16.9097 15.0512C18.1355 13.4223 18.7988 11.4391 18.7995 9.40042C18.7995 9.31669 18.7995 9.23438 18.7995 9.15207L14.5236 4.88187L7.50732 14.0169Z" fill="url(#paint0_linear_1398_4)"/>
<path d="M8.08911 14.1702C7.91275 14.1706 7.73861 14.1309 7.5798 14.0542C7.421 13.9775 7.28168 13.8658 7.17234 13.7274L4.08712 9.83752C3.90694 9.59372 3.82848 9.28947 3.86828 8.98894C3.90809 8.68841 4.06306 8.41508 4.3005 8.2266C4.53794 8.03812 4.8393 7.94921 5.14103 7.97864C5.44275 8.00806 5.72126 8.15351 5.91782 8.38431L9.00162 12.2756C9.13818 12.4475 9.22355 12.6543 9.24793 12.8725C9.27231 13.0907 9.23471 13.3113 9.13946 13.509C9.0442 13.7068 8.89514 13.8737 8.70936 13.9907C8.52359 14.1076 8.30862 14.1698 8.08911 14.1702Z" fill="white"/>
<path d="M8.08908 14.1701C7.86909 14.1709 7.65336 14.1094 7.46675 13.9929C7.28014 13.8764 7.13023 13.7095 7.03429 13.5116C6.93834 13.3136 6.90026 13.0926 6.92443 12.8739C6.9486 12.6552 7.03403 12.4478 7.1709 12.2756L12.8815 5.07201C13.0746 4.82924 13.3562 4.67312 13.6644 4.63799C13.9726 4.60286 14.2821 4.6916 14.5249 4.88468C14.7677 5.07776 14.9238 5.35938 14.9589 5.66757C14.994 5.97576 14.9053 6.28529 14.7122 6.52805L9.00159 13.7274C8.8927 13.8652 8.75406 13.9766 8.59605 14.0533C8.43803 14.1299 8.26472 14.1699 8.08908 14.1701Z" fill="white"/>
</g>
<defs>
<linearGradient id="paint0_linear_1398_4" x1="10.3527" y1="8.78593" x2="16.7559" y2="15.1891" gradientUnits="userSpaceOnUse">
<stop stop-color="#689F38"/>
<stop offset="1" stop-color="#8BC34A"/>
</linearGradient>
<clipPath id="clip0_1398_4">
<rect width="20" height="20.4201" fill="white"/>
</clipPath>
</defs>
</svg>
