<svg width="130" height="41" viewBox="0 0 130 41" fill="none" xmlns="http://www.w3.org/2000/svg">
<path d="M3.16216 16.6896V0H0V16.8182C0 19.5796 2.23858 21.8182 5 21.8182H28.5V18.6896H5.16216C4.05759 18.6896 3.16216 17.7941 3.16216 16.6896Z" fill="black"/>
<path d="M40 22V0H43.2V22H40Z" fill="black"/>
<path d="M55 22H58.2V2.95122L82.95 22H86.7V0H82.95V18.7805L59.025 0H55V22Z" fill="black"/>
<path d="M101.432 0H98V21.8182H101.432V12.3906H115.486L125.486 21.8182H130L118.919 10.7744L130 0H125.486L115.486 9.42761H101.432V0Z" fill="black"/>
<path d="M51.0714 30H49V36.7143C49 38.9234 50.7909 40.7143 53 40.7143H60C62.2091 40.7143 64 38.9234 64 36.7143V30H61.9286V36.669C61.9286 37.7736 61.0331 38.669 59.9286 38.669H53.0714C51.9669 38.669 51.0714 37.7736 51.0714 36.669V30Z" fill="black"/>
<path d="M68 40.5H65.9831L65.9991 35.3249H77.2429C78.1332 35.3249 78.855 34.6032 78.855 33.7128C78.855 32.8285 78.1427 32.1093 77.2585 32.1008L65.9991 31.9921V30H77.2785C79.3333 30 80.9991 31.6657 80.9991 33.7205C80.9991 35.7753 79.3333 37.4411 77.2785 37.4411H68.016L68 40.5Z" fill="black"/>
</svg>
