<svg width="35" height="35" viewBox="0 0 35 35" fill="none" xmlns="http://www.w3.org/2000/svg">
<rect width="35" height="35" rx="17.5" fill="#F9F9F9"/>
<path d="M26.841 11.7762C26.2608 12.0237 25.6516 12.1968 25.0279 12.2913C25.3205 12.2419 25.749 11.7144 25.918 11.5043C26.1885 11.1804 26.3929 10.8066 26.5196 10.404C26.5196 10.3752 26.5484 10.334 26.5196 10.3092C26.5046 10.303 26.4885 10.2998 26.4722 10.2998C26.4559 10.2998 26.4398 10.303 26.4248 10.3092C25.7458 10.6743 25.0229 10.9513 24.2738 11.1334C24.2477 11.1418 24.2198 11.1423 24.1934 11.135C24.1671 11.1277 24.1434 11.1128 24.1254 11.0922C24.0689 11.024 24.0069 10.9606 23.94 10.9026C23.6295 10.6345 23.2774 10.4187 22.8975 10.2639C22.3923 10.0584 21.8468 9.97104 21.3027 10.0084C20.7741 10.0391 20.2577 10.1794 19.7863 10.4205C19.3104 10.6667 18.8898 11.0075 18.5501 11.4218C18.2019 11.8496 17.9528 12.3492 17.8207 12.8847C17.7075 13.391 17.6949 13.9147 17.7836 14.4259C17.7836 14.5124 17.7836 14.5248 17.7094 14.5124C14.7549 14.0715 12.3071 13.0166 10.3209 10.7543C10.2344 10.6554 10.1891 10.6554 10.119 10.7543C9.24954 12.0606 9.66985 14.1539 10.7577 15.18C10.9007 15.326 11.052 15.4636 11.211 15.592C10.713 15.551 10.2283 15.4109 9.78523 15.18C9.6987 15.1264 9.65337 15.1594 9.64925 15.2583C9.64463 15.396 9.65152 15.5338 9.66985 15.6703C9.75215 16.3429 10.013 16.9811 10.4253 17.5188C10.8376 18.0565 11.3864 18.474 12.0146 18.7279C12.1663 18.7945 12.3254 18.8429 12.4884 18.8722C12.027 18.9635 11.5538 18.9789 11.0874 18.9175C10.9885 18.8969 10.9473 18.9463 10.9885 19.0452C11.6025 20.7224 12.9294 21.221 13.9266 21.5177C14.0585 21.5424 14.1903 21.5424 14.3387 21.5712L14.3139 21.596C13.9843 22.0987 12.8387 22.4737 12.3071 22.6591C11.332 23.0071 10.293 23.1392 9.2619 23.0465C9.09707 23.0465 9.0641 23.0465 9.01878 23.0465C8.97345 23.0465 9.01878 23.1165 9.0641 23.1577C9.27426 23.2937 9.47618 23.4173 9.6987 23.5327C10.3453 23.8806 11.0279 24.1569 11.7343 24.3569C15.3977 25.3665 19.5184 24.6247 22.267 21.8844C24.4263 19.7416 25.1804 16.7871 25.1804 13.8242C25.1804 13.7089 25.3163 13.647 25.3988 13.5852C25.9457 13.1592 26.4286 12.6569 26.8328 12.0935C26.896 12.0124 26.9294 11.912 26.9275 11.8092C26.9152 11.7227 26.9152 11.7433 26.841 11.7762Z" fill="#626262"/>
</svg>
