<svg width="46" height="46" viewBox="0 0 46 46" fill="none" xmlns="http://www.w3.org/2000/svg">
<g filter="url(#filter0_ddd_1247_83)">
<rect x="3" y="3" width="35" height="35" rx="17.5" fill="#F9F9F9"/>
</g>
<path d="M29.841 14.7762C29.2608 15.0237 28.6516 15.1968 28.0279 15.2913C28.3205 15.2419 28.749 14.7144 28.918 14.5043C29.1885 14.1804 29.3929 13.8066 29.5196 13.404C29.5196 13.3752 29.5484 13.334 29.5196 13.3092C29.5046 13.303 29.4885 13.2998 29.4722 13.2998C29.4559 13.2998 29.4398 13.303 29.4248 13.3092C28.7458 13.6743 28.0229 13.9513 27.2738 14.1334C27.2477 14.1418 27.2198 14.1423 27.1934 14.135C27.1671 14.1277 27.1434 14.1128 27.1254 14.0922C27.0689 14.024 27.0069 13.9606 26.94 13.9026C26.6295 13.6345 26.2774 13.4187 25.8975 13.2639C25.3923 13.0584 24.8468 12.971 24.3027 13.0084C23.7741 13.0391 23.2577 13.1794 22.7863 13.4205C22.3104 13.6667 21.8898 14.0075 21.5501 14.4218C21.2019 14.8496 20.9528 15.3492 20.8207 15.8847C20.7075 16.391 20.6949 16.9147 20.7836 17.4259C20.7836 17.5124 20.7836 17.5248 20.7094 17.5124C17.7549 17.0715 15.3071 16.0166 13.3209 13.7543C13.2344 13.6554 13.1891 13.6554 13.119 13.7543C12.2495 15.0606 12.6699 17.1539 13.7577 18.18C13.9007 18.326 14.052 18.4636 14.211 18.592C13.713 18.551 13.2283 18.4109 12.7852 18.18C12.6987 18.1264 12.6534 18.1594 12.6493 18.2583C12.6446 18.396 12.6515 18.5338 12.6699 18.6703C12.7522 19.3429 13.013 19.9811 13.4253 20.5188C13.8376 21.0565 14.3864 21.474 15.0146 21.7279C15.1663 21.7945 15.3254 21.8429 15.4884 21.8722C15.027 21.9635 14.5538 21.9789 14.0874 21.9175C13.9885 21.8969 13.9473 21.9463 13.9885 22.0452C14.6025 23.7224 15.9294 24.221 16.9266 24.5177C17.0585 24.5424 17.1903 24.5424 17.3387 24.5712L17.3139 24.596C16.9843 25.0987 15.8387 25.4737 15.3071 25.6591C14.332 26.0071 13.293 26.1392 12.2619 26.0465C12.0971 26.0465 12.0641 26.0465 12.0188 26.0465C11.9734 26.0465 12.0188 26.1165 12.0641 26.1577C12.2743 26.2937 12.4762 26.4173 12.6987 26.5327C13.3453 26.8806 14.0279 27.1569 14.7343 27.3569C18.3977 28.3665 22.5184 27.6247 25.267 24.8844C27.4263 22.7416 28.1804 19.7871 28.1804 16.8242C28.1804 16.7089 28.3163 16.647 28.3988 16.5852C28.9457 16.1592 29.4286 15.6569 29.8328 15.0935C29.896 15.0124 29.9294 14.912 29.9275 14.8092C29.9152 14.7227 29.9152 14.7433 29.841 14.7762Z" fill="#626262"/>
<defs>
<filter id="filter0_ddd_1247_83" x="0.5" y="0.5" width="45.5" height="45.5" filterUnits="userSpaceOnUse" color-interpolation-filters="sRGB">
<feFlood flood-opacity="0" result="BackgroundImageFix"/>
<feColorMatrix in="SourceAlpha" type="matrix" values="0 0 0 0 0 0 0 0 0 0 0 0 0 0 0 0 0 0 127 0" result="hardAlpha"/>
<feOffset dx="3" dy="3"/>
<feGaussianBlur stdDeviation="2.5"/>
<feComposite in2="hardAlpha" operator="out"/>
<feColorMatrix type="matrix" values="0 0 0 0 0 0 0 0 0 0 0 0 0 0 0 0 0 0 0.25 0"/>
<feBlend mode="normal" in2="BackgroundImageFix" result="effect1_dropShadow_1247_83"/>
<feColorMatrix in="SourceAlpha" type="matrix" values="0 0 0 0 0 0 0 0 0 0 0 0 0 0 0 0 0 0 127 0" result="hardAlpha"/>
<feOffset dx="0.5" dy="0.5"/>
<feGaussianBlur stdDeviation="1"/>
<feComposite in2="hardAlpha" operator="out"/>
<feColorMatrix type="matrix" values="0 0 0 0 0 0 0 0 0 0 0 0 0 0 0 0 0 0 0.25 0"/>
<feBlend mode="normal" in2="effect1_dropShadow_1247_83" result="effect2_dropShadow_1247_83"/>
<feColorMatrix in="SourceAlpha" type="matrix" values="0 0 0 0 0 0 0 0 0 0 0 0 0 0 0 0 0 0 127 0" result="hardAlpha"/>
<feOffset dx="-0.5" dy="-0.5"/>
<feGaussianBlur stdDeviation="1"/>
<feComposite in2="hardAlpha" operator="out"/>
<feColorMatrix type="matrix" values="0 0 0 0 1 0 0 0 0 1 0 0 0 0 1 0 0 0 1 0"/>
<feBlend mode="normal" in2="effect2_dropShadow_1247_83" result="effect3_dropShadow_1247_83"/>
<feBlend mode="normal" in="SourceGraphic" in2="effect3_dropShadow_1247_83" result="shape"/>
</filter>
</defs>
</svg>
