<svg width="46" height="46" viewBox="0 0 46 46" fill="none" xmlns="http://www.w3.org/2000/svg">
<g filter="url(#filter0_ddd_1247_84)">
<rect x="3" y="3" width="35" height="35" rx="17.5" fill="#F9F9F9"/>
</g>
<path d="M12 29.0554L13.2188 24.4945C12.2389 22.7215 11.931 20.6546 12.3515 18.6729C12.7721 16.6913 13.8929 14.9276 15.5084 13.7054C17.124 12.4831 19.126 11.8843 21.1473 12.0185C23.1687 12.1528 25.0739 13.0112 26.5136 14.4364C27.9532 15.8616 28.8309 17.758 28.9857 19.7779C29.1404 21.7978 28.5618 23.8057 27.356 25.4336C26.1502 27.0614 24.398 28.2 22.4207 28.6406C20.4434 29.0812 18.3735 28.7943 16.5906 27.8324L12 29.0554ZM16.7945 26.1294L17.0832 26.3036C18.5139 27.156 20.207 27.4556 21.8433 27.1457C23.4796 26.8358 24.946 25.9379 25.9659 24.6214C26.9858 23.3048 27.4887 21.6606 27.3798 19.9988C27.2709 18.3369 26.5578 16.7724 25.3748 15.6002C24.1918 14.428 22.6208 13.7291 20.9581 13.6354C19.2953 13.5417 17.6558 14.0596 16.3486 15.0915C15.0414 16.1234 14.1569 17.5979 13.862 19.2369C13.5671 20.876 13.8821 22.5663 14.7476 23.9891L14.9217 24.2779L14.2422 26.8259L16.7945 26.1294Z" fill="#626262"/>
<path fill-rule="evenodd" clip-rule="evenodd" d="M24.1776 21.9979C24.0111 21.8643 23.8163 21.7704 23.6081 21.7233C23.3999 21.6762 23.1837 21.6772 22.9758 21.7261C22.6658 21.8535 22.4662 22.3419 22.2624 22.5754C22.2191 22.6338 22.1561 22.6746 22.0851 22.6902C22.0141 22.7058 21.9398 22.6952 21.876 22.6604C20.7344 22.2119 19.777 21.3921 19.1581 20.3332C19.1053 20.2658 19.0803 20.1807 19.0882 20.0955C19.0961 20.0102 19.1363 19.9312 19.2006 19.8746C19.4323 19.6565 19.6022 19.3811 19.6932 19.0762C19.7134 18.7458 19.6367 18.4166 19.4724 18.1292C19.3475 17.7247 19.1104 17.3639 18.7887 17.0888C18.6182 17.0099 18.4284 16.9827 18.2428 17.0107C18.0571 17.0386 17.8836 17.1204 17.744 17.2459C17.5031 17.4517 17.3114 17.7088 17.1828 17.9983C17.0542 18.2878 16.992 18.6024 17.0008 18.9191C17.0006 19.098 17.0219 19.2762 17.0645 19.4499C17.1775 19.8616 17.3491 20.2549 17.5741 20.6177C17.7397 20.898 17.9181 21.1656 18.1092 21.4289C18.7357 22.2769 19.5184 22.9976 20.4151 23.5522C20.8688 23.8343 21.3532 24.0637 21.859 24.2359C22.3828 24.4727 22.9609 24.5636 23.5322 24.4992C23.8588 24.4501 24.1683 24.3214 24.4335 24.1244C24.6986 23.9274 24.9112 23.6681 25.0525 23.3696C25.1349 23.1889 25.1601 22.9874 25.1246 22.792C25.0355 22.4268 24.5004 22.189 24.1776 21.9979Z" fill="#626262"/>
<defs>
<filter id="filter0_ddd_1247_84" x="0.5" y="0.5" width="45.5" height="45.5" filterUnits="userSpaceOnUse" color-interpolation-filters="sRGB">
<feFlood flood-opacity="0" result="BackgroundImageFix"/>
<feColorMatrix in="SourceAlpha" type="matrix" values="0 0 0 0 0 0 0 0 0 0 0 0 0 0 0 0 0 0 127 0" result="hardAlpha"/>
<feOffset dx="3" dy="3"/>
<feGaussianBlur stdDeviation="2.5"/>
<feComposite in2="hardAlpha" operator="out"/>
<feColorMatrix type="matrix" values="0 0 0 0 0 0 0 0 0 0 0 0 0 0 0 0 0 0 0.25 0"/>
<feBlend mode="normal" in2="BackgroundImageFix" result="effect1_dropShadow_1247_84"/>
<feColorMatrix in="SourceAlpha" type="matrix" values="0 0 0 0 0 0 0 0 0 0 0 0 0 0 0 0 0 0 127 0" result="hardAlpha"/>
<feOffset dx="0.5" dy="0.5"/>
<feGaussianBlur stdDeviation="1"/>
<feComposite in2="hardAlpha" operator="out"/>
<feColorMatrix type="matrix" values="0 0 0 0 0 0 0 0 0 0 0 0 0 0 0 0 0 0 0.25 0"/>
<feBlend mode="normal" in2="effect1_dropShadow_1247_84" result="effect2_dropShadow_1247_84"/>
<feColorMatrix in="SourceAlpha" type="matrix" values="0 0 0 0 0 0 0 0 0 0 0 0 0 0 0 0 0 0 127 0" result="hardAlpha"/>
<feOffset dx="-0.5" dy="-0.5"/>
<feGaussianBlur stdDeviation="1"/>
<feComposite in2="hardAlpha" operator="out"/>
<feColorMatrix type="matrix" values="0 0 0 0 1 0 0 0 0 1 0 0 0 0 1 0 0 0 1 0"/>
<feBlend mode="normal" in2="effect2_dropShadow_1247_84" result="effect3_dropShadow_1247_84"/>
<feBlend mode="normal" in="SourceGraphic" in2="effect3_dropShadow_1247_84" result="shape"/>
</filter>
</defs>
</svg>
