<svg width="35" height="35" viewBox="0 0 35 35" fill="none" xmlns="http://www.w3.org/2000/svg">
<rect width="35" height="35" rx="17.5" fill="#F9F9F9"/>
<path d="M9 26.0554L10.2188 21.4945C9.23888 19.7215 8.93097 17.6546 9.35152 15.6729C9.77206 13.6913 10.8929 11.9276 12.5084 10.7054C14.124 9.48315 16.126 8.88426 18.1473 9.01853C20.1687 9.1528 22.0739 10.0112 23.5136 11.4364C24.9532 12.8616 25.8309 14.758 25.9857 16.7779C26.1404 18.7978 25.5618 20.8057 24.356 22.4336C23.1502 24.0614 21.398 25.2 19.4207 25.6406C17.4434 26.0812 15.3735 25.7943 13.5906 24.8324L9 26.0554ZM13.7945 23.1294L14.0832 23.3036C15.5139 24.156 17.207 24.4556 18.8433 24.1457C20.4796 23.8358 21.946 22.9379 22.9659 21.6214C23.9858 20.3048 24.4887 18.6606 24.3798 16.9988C24.2709 15.3369 23.5578 13.7724 22.3748 12.6002C21.1918 11.428 19.6208 10.7291 17.9581 10.6354C16.2953 10.5417 14.6558 11.0596 13.3486 12.0915C12.0414 13.1234 11.1569 14.5979 10.862 16.2369C10.5671 17.876 10.8821 19.5663 11.7476 20.9891L11.9217 21.2779L11.2422 23.8259L13.7945 23.1294Z" fill="#626262"/>
<path fill-rule="evenodd" clip-rule="evenodd" d="M21.1776 18.9979C21.0111 18.8643 20.8163 18.7704 20.6081 18.7233C20.3999 18.6762 20.1837 18.6772 19.9758 18.7261C19.6658 18.8535 19.4662 19.3419 19.2624 19.5754C19.2191 19.6338 19.1561 19.6746 19.0851 19.6902C19.0141 19.7058 18.9398 19.6952 18.876 19.6604C17.7344 19.2119 16.777 18.3921 16.1581 17.3332C16.1053 17.2658 16.0803 17.1807 16.0882 17.0955C16.0961 17.0102 16.1363 16.9312 16.2006 16.8746C16.4323 16.6565 16.6022 16.3811 16.6932 16.0762C16.7134 15.7458 16.6367 15.4166 16.4724 15.1292C16.3475 14.7247 16.1104 14.3639 15.7887 14.0888C15.6182 14.0099 15.4284 13.9827 15.2428 14.0107C15.0571 14.0386 14.8836 14.1204 14.744 14.2459C14.5031 14.4517 14.3114 14.7088 14.1828 14.9983C14.0542 15.2878 13.992 15.6024 14.0008 15.9191C14.0006 16.098 14.0219 16.2762 14.0645 16.4499C14.1775 16.8616 14.3491 17.2549 14.5741 17.6177C14.7397 17.898 14.9181 18.1656 15.1092 18.4289C15.7357 19.2769 16.5184 19.9976 17.4151 20.5522C17.8688 20.8343 18.3532 21.0637 18.859 21.2359C19.3828 21.4727 19.9609 21.5636 20.5322 21.4992C20.8588 21.4501 21.1683 21.3214 21.4335 21.1244C21.6986 20.9274 21.9112 20.6681 22.0525 20.3696C22.1349 20.1889 22.1601 19.9874 22.1246 19.792C22.0355 19.4268 21.5004 19.189 21.1776 18.9979Z" fill="#626262"/>
</svg>
