<svg width="20" height="21" viewBox="0 0 20 21" fill="none" xmlns="http://www.w3.org/2000/svg">
<g clip-path="url(#clip0_1398_3)">
<path d="M18.5507 11.5572C19.7424 6.50416 16.6122 1.44176 11.5591 0.250059C6.50599 -0.941646 1.44359 2.18862 0.251888 7.2417C-0.939816 12.2948 2.19045 17.3572 7.24353 18.5489C12.2966 19.7406 17.359 16.6103 18.5507 11.5572Z" fill="#F44336"/>
<path d="M0.201575 9.60193C0.201371 7.75496 0.745336 5.94888 1.76553 4.40924C2.78572 2.86961 4.23692 1.66467 5.93787 0.944928C7.63882 0.225185 9.51412 0.0225374 11.3296 0.362297C13.145 0.702056 14.8201 1.56916 16.1457 2.85531C15.2785 1.95831 14.2414 1.24294 13.0948 0.750919C11.9483 0.258897 10.7152 7.02851e-05 9.46764 -0.0104679C8.22003 -0.0210061 6.9828 0.216955 5.82812 0.68954C4.67343 1.16212 3.62438 1.85987 2.74216 2.7421C1.85993 3.62432 1.16219 4.67337 0.689601 5.82806C0.217016 6.98274 -0.0209451 8.21997 -0.0104069 9.46758C0.00013132 10.7152 0.258958 11.9482 0.75098 13.0948C1.243 14.2413 1.95837 15.2784 2.85537 16.1456C1.15095 14.3941 0.198594 12.0458 0.201575 9.60193Z" fill="#E57373"/>
<path d="M5.07483 13.9204L10.0418 18.7753C12.3258 18.6193 14.4743 17.6349 16.0839 16.007C17.6935 14.3791 18.6536 12.2196 18.7838 9.93402L13.8281 4.96701L5.07483 13.9204Z" fill="url(#paint0_linear_1398_3)"/>
<path d="M5.79726 14.1702C5.56589 14.1706 5.33958 14.1025 5.14696 13.9743C4.95435 13.8461 4.8041 13.6636 4.71521 13.45C4.62633 13.2364 4.60282 13.0012 4.64765 12.7742C4.69248 12.5472 4.80364 12.3386 4.96706 12.1748L12.1749 4.967C12.2837 4.85844 12.4129 4.77239 12.555 4.71374C12.6971 4.6551 12.8493 4.62502 13.0031 4.62521C13.1568 4.62541 13.309 4.65589 13.4509 4.71489C13.5928 4.7739 13.7218 4.86029 13.8303 4.96913C13.9389 5.07797 14.0249 5.20712 14.0836 5.34922C14.1422 5.49131 14.1723 5.64357 14.1721 5.79729C14.1719 5.95101 14.1414 6.10318 14.0824 6.24513C14.0234 6.38707 13.937 6.516 13.8282 6.62456L6.62462 13.8281C6.51608 13.9369 6.3871 14.0231 6.2451 14.0818C6.10311 14.1405 5.95091 14.1705 5.79726 14.1702Z" fill="white"/>
<path d="M13.0021 14.1702C12.8485 14.1705 12.6963 14.1405 12.5543 14.0818C12.4123 14.0231 12.2833 13.9369 12.1748 13.8281L4.96695 6.62457C4.74714 6.40476 4.62366 6.10664 4.62366 5.79579C4.62366 5.48494 4.74714 5.18682 4.96695 4.96701C5.18676 4.7472 5.48488 4.62372 5.79573 4.62372C6.10658 4.62372 6.4047 4.7472 6.62451 4.96701L13.8281 12.1748C13.9913 12.3384 14.1023 12.5466 14.1473 12.7732C14.1923 12.9998 14.1691 13.2346 14.0808 13.448C13.9924 13.6615 13.8428 13.844 13.6508 13.9725C13.4589 14.101 13.2332 14.1698 13.0021 14.1702Z" fill="white"/>
</g>
<defs>
<linearGradient id="paint0_linear_1398_3" x1="8.32467" y1="8.31903" x2="16.0604" y2="16.0548" gradientUnits="userSpaceOnUse">
<stop stop-color="#B71C1C"/>
<stop offset="1" stop-color="#F44336"/>
</linearGradient>
<clipPath id="clip0_1398_3">
<rect width="20" height="20.4201" fill="white"/>
</clipPath>
</defs>
</svg>
