<svg width="35" height="35" viewBox="0 0 35 35" fill="none" xmlns="http://www.w3.org/2000/svg">
<rect width="35" height="35" rx="17.5" fill="#F9F9F9"/>
<path d="M26.8837 14.9253C26.8826 13.8846 26.4687 12.8868 25.7328 12.1509C24.9969 11.415 23.9991 11.0011 22.9584 11H12.9253C11.8846 11.0011 10.8868 11.415 10.1509 12.1509C9.41501 12.8868 9.00111 13.8846 9.00002 14.9253V19.5945C8.9984 20.111 9.09873 20.6228 9.29527 21.1005C9.49181 21.5781 9.78068 22.0123 10.1453 22.3781C10.51 22.7439 10.9433 23.0341 11.4203 23.2322C11.8974 23.4302 12.4088 23.5321 12.9253 23.5321H22.9584C23.9995 23.5321 24.9979 23.1186 25.734 22.3825C26.4701 21.6463 26.8837 20.6479 26.8837 19.6069V14.9253ZM20.9814 17.6093L16.4807 19.8329C16.3039 19.9275 15.7079 19.8 15.7079 19.5986V15.0363C15.7079 14.8307 16.3121 14.7033 16.4889 14.8061L20.7964 17.1489C20.9773 17.2517 21.1705 17.5106 20.9814 17.6093Z" fill="#626262"/>
</svg>
